G04 #@! TF.GenerationSoftware,KiCad,Pcbnew,5.0.2-bee76a0~70~ubuntu18.04.1*
G04 #@! TF.CreationDate,2019-10-04T10:46:57+02:00*
G04 #@! TF.ProjectId,STM32F373_Dev_Board,53544d33-3246-4333-9733-5f4465765f42,rev?*
G04 #@! TF.SameCoordinates,PX9104060PY5859300*
G04 #@! TF.FileFunction,Paste,Top*
G04 #@! TF.FilePolarity,Positive*
%FSLAX46Y46*%
G04 Gerber Fmt 4.6, Leading zero omitted, Abs format (unit mm)*
G04 Created by KiCad (PCBNEW 5.0.2-bee76a0~70~ubuntu18.04.1) date Fr 04 Okt 2019 10:46:57 CEST*
%MOMM*%
%LPD*%
G01*
G04 APERTURE LIST*
%ADD10C,0.150000*%
%ADD11C,1.150000*%
%ADD12R,1.900000X0.800000*%
%ADD13R,1.300000X0.250000*%
%ADD14R,0.250000X1.300000*%
%ADD15C,0.750000*%
%ADD16R,4.000000X2.000000*%
%ADD17R,2.500000X1.000000*%
G04 APERTURE END LIST*
D10*
X-52060000Y42640000D02*
X2940000Y42640000D01*
X-52060000Y-2360000D02*
X-52060000Y42640000D01*
X2940000Y-2360000D02*
X-52060000Y-2360000D01*
X2940000Y42640000D02*
X2940000Y-2360000D01*
G04 #@! TO.C,C1*
G36*
X-39610495Y27738796D02*
X-39586227Y27735196D01*
X-39562428Y27729235D01*
X-39539329Y27720970D01*
X-39517150Y27710480D01*
X-39496107Y27697868D01*
X-39476401Y27683253D01*
X-39458223Y27666777D01*
X-39441747Y27648599D01*
X-39427132Y27628893D01*
X-39414520Y27607850D01*
X-39404030Y27585671D01*
X-39395765Y27562572D01*
X-39389804Y27538773D01*
X-39386204Y27514505D01*
X-39385000Y27490001D01*
X-39385000Y26589999D01*
X-39386204Y26565495D01*
X-39389804Y26541227D01*
X-39395765Y26517428D01*
X-39404030Y26494329D01*
X-39414520Y26472150D01*
X-39427132Y26451107D01*
X-39441747Y26431401D01*
X-39458223Y26413223D01*
X-39476401Y26396747D01*
X-39496107Y26382132D01*
X-39517150Y26369520D01*
X-39539329Y26359030D01*
X-39562428Y26350765D01*
X-39586227Y26344804D01*
X-39610495Y26341204D01*
X-39634999Y26340000D01*
X-40285001Y26340000D01*
X-40309505Y26341204D01*
X-40333773Y26344804D01*
X-40357572Y26350765D01*
X-40380671Y26359030D01*
X-40402850Y26369520D01*
X-40423893Y26382132D01*
X-40443599Y26396747D01*
X-40461777Y26413223D01*
X-40478253Y26431401D01*
X-40492868Y26451107D01*
X-40505480Y26472150D01*
X-40515970Y26494329D01*
X-40524235Y26517428D01*
X-40530196Y26541227D01*
X-40533796Y26565495D01*
X-40535000Y26589999D01*
X-40535000Y27490001D01*
X-40533796Y27514505D01*
X-40530196Y27538773D01*
X-40524235Y27562572D01*
X-40515970Y27585671D01*
X-40505480Y27607850D01*
X-40492868Y27628893D01*
X-40478253Y27648599D01*
X-40461777Y27666777D01*
X-40443599Y27683253D01*
X-40423893Y27697868D01*
X-40402850Y27710480D01*
X-40380671Y27720970D01*
X-40357572Y27729235D01*
X-40333773Y27735196D01*
X-40309505Y27738796D01*
X-40285001Y27740000D01*
X-39634999Y27740000D01*
X-39610495Y27738796D01*
X-39610495Y27738796D01*
G37*
D11*
X-39960000Y27040000D03*
D10*
G36*
X-37560495Y27738796D02*
X-37536227Y27735196D01*
X-37512428Y27729235D01*
X-37489329Y27720970D01*
X-37467150Y27710480D01*
X-37446107Y27697868D01*
X-37426401Y27683253D01*
X-37408223Y27666777D01*
X-37391747Y27648599D01*
X-37377132Y27628893D01*
X-37364520Y27607850D01*
X-37354030Y27585671D01*
X-37345765Y27562572D01*
X-37339804Y27538773D01*
X-37336204Y27514505D01*
X-37335000Y27490001D01*
X-37335000Y26589999D01*
X-37336204Y26565495D01*
X-37339804Y26541227D01*
X-37345765Y26517428D01*
X-37354030Y26494329D01*
X-37364520Y26472150D01*
X-37377132Y26451107D01*
X-37391747Y26431401D01*
X-37408223Y26413223D01*
X-37426401Y26396747D01*
X-37446107Y26382132D01*
X-37467150Y26369520D01*
X-37489329Y26359030D01*
X-37512428Y26350765D01*
X-37536227Y26344804D01*
X-37560495Y26341204D01*
X-37584999Y26340000D01*
X-38235001Y26340000D01*
X-38259505Y26341204D01*
X-38283773Y26344804D01*
X-38307572Y26350765D01*
X-38330671Y26359030D01*
X-38352850Y26369520D01*
X-38373893Y26382132D01*
X-38393599Y26396747D01*
X-38411777Y26413223D01*
X-38428253Y26431401D01*
X-38442868Y26451107D01*
X-38455480Y26472150D01*
X-38465970Y26494329D01*
X-38474235Y26517428D01*
X-38480196Y26541227D01*
X-38483796Y26565495D01*
X-38485000Y26589999D01*
X-38485000Y27490001D01*
X-38483796Y27514505D01*
X-38480196Y27538773D01*
X-38474235Y27562572D01*
X-38465970Y27585671D01*
X-38455480Y27607850D01*
X-38442868Y27628893D01*
X-38428253Y27648599D01*
X-38411777Y27666777D01*
X-38393599Y27683253D01*
X-38373893Y27697868D01*
X-38352850Y27710480D01*
X-38330671Y27720970D01*
X-38307572Y27729235D01*
X-38283773Y27735196D01*
X-38259505Y27738796D01*
X-38235001Y27740000D01*
X-37584999Y27740000D01*
X-37560495Y27738796D01*
X-37560495Y27738796D01*
G37*
D11*
X-37910000Y27040000D03*
G04 #@! TD*
D10*
G04 #@! TO.C,C2*
G36*
X-35885495Y22288796D02*
X-35861227Y22285196D01*
X-35837428Y22279235D01*
X-35814329Y22270970D01*
X-35792150Y22260480D01*
X-35771107Y22247868D01*
X-35751401Y22233253D01*
X-35733223Y22216777D01*
X-35716747Y22198599D01*
X-35702132Y22178893D01*
X-35689520Y22157850D01*
X-35679030Y22135671D01*
X-35670765Y22112572D01*
X-35664804Y22088773D01*
X-35661204Y22064505D01*
X-35660000Y22040001D01*
X-35660000Y21389999D01*
X-35661204Y21365495D01*
X-35664804Y21341227D01*
X-35670765Y21317428D01*
X-35679030Y21294329D01*
X-35689520Y21272150D01*
X-35702132Y21251107D01*
X-35716747Y21231401D01*
X-35733223Y21213223D01*
X-35751401Y21196747D01*
X-35771107Y21182132D01*
X-35792150Y21169520D01*
X-35814329Y21159030D01*
X-35837428Y21150765D01*
X-35861227Y21144804D01*
X-35885495Y21141204D01*
X-35909999Y21140000D01*
X-36810001Y21140000D01*
X-36834505Y21141204D01*
X-36858773Y21144804D01*
X-36882572Y21150765D01*
X-36905671Y21159030D01*
X-36927850Y21169520D01*
X-36948893Y21182132D01*
X-36968599Y21196747D01*
X-36986777Y21213223D01*
X-37003253Y21231401D01*
X-37017868Y21251107D01*
X-37030480Y21272150D01*
X-37040970Y21294329D01*
X-37049235Y21317428D01*
X-37055196Y21341227D01*
X-37058796Y21365495D01*
X-37060000Y21389999D01*
X-37060000Y22040001D01*
X-37058796Y22064505D01*
X-37055196Y22088773D01*
X-37049235Y22112572D01*
X-37040970Y22135671D01*
X-37030480Y22157850D01*
X-37017868Y22178893D01*
X-37003253Y22198599D01*
X-36986777Y22216777D01*
X-36968599Y22233253D01*
X-36948893Y22247868D01*
X-36927850Y22260480D01*
X-36905671Y22270970D01*
X-36882572Y22279235D01*
X-36858773Y22285196D01*
X-36834505Y22288796D01*
X-36810001Y22290000D01*
X-35909999Y22290000D01*
X-35885495Y22288796D01*
X-35885495Y22288796D01*
G37*
D11*
X-36360000Y21715000D03*
D10*
G36*
X-35885495Y24338796D02*
X-35861227Y24335196D01*
X-35837428Y24329235D01*
X-35814329Y24320970D01*
X-35792150Y24310480D01*
X-35771107Y24297868D01*
X-35751401Y24283253D01*
X-35733223Y24266777D01*
X-35716747Y24248599D01*
X-35702132Y24228893D01*
X-35689520Y24207850D01*
X-35679030Y24185671D01*
X-35670765Y24162572D01*
X-35664804Y24138773D01*
X-35661204Y24114505D01*
X-35660000Y24090001D01*
X-35660000Y23439999D01*
X-35661204Y23415495D01*
X-35664804Y23391227D01*
X-35670765Y23367428D01*
X-35679030Y23344329D01*
X-35689520Y23322150D01*
X-35702132Y23301107D01*
X-35716747Y23281401D01*
X-35733223Y23263223D01*
X-35751401Y23246747D01*
X-35771107Y23232132D01*
X-35792150Y23219520D01*
X-35814329Y23209030D01*
X-35837428Y23200765D01*
X-35861227Y23194804D01*
X-35885495Y23191204D01*
X-35909999Y23190000D01*
X-36810001Y23190000D01*
X-36834505Y23191204D01*
X-36858773Y23194804D01*
X-36882572Y23200765D01*
X-36905671Y23209030D01*
X-36927850Y23219520D01*
X-36948893Y23232132D01*
X-36968599Y23246747D01*
X-36986777Y23263223D01*
X-37003253Y23281401D01*
X-37017868Y23301107D01*
X-37030480Y23322150D01*
X-37040970Y23344329D01*
X-37049235Y23367428D01*
X-37055196Y23391227D01*
X-37058796Y23415495D01*
X-37060000Y23439999D01*
X-37060000Y24090001D01*
X-37058796Y24114505D01*
X-37055196Y24138773D01*
X-37049235Y24162572D01*
X-37040970Y24185671D01*
X-37030480Y24207850D01*
X-37017868Y24228893D01*
X-37003253Y24248599D01*
X-36986777Y24266777D01*
X-36968599Y24283253D01*
X-36948893Y24297868D01*
X-36927850Y24310480D01*
X-36905671Y24320970D01*
X-36882572Y24329235D01*
X-36858773Y24335196D01*
X-36834505Y24338796D01*
X-36810001Y24340000D01*
X-35909999Y24340000D01*
X-35885495Y24338796D01*
X-35885495Y24338796D01*
G37*
D11*
X-36360000Y23765000D03*
G04 #@! TD*
D10*
G04 #@! TO.C,C3*
G36*
X-35835495Y14238796D02*
X-35811227Y14235196D01*
X-35787428Y14229235D01*
X-35764329Y14220970D01*
X-35742150Y14210480D01*
X-35721107Y14197868D01*
X-35701401Y14183253D01*
X-35683223Y14166777D01*
X-35666747Y14148599D01*
X-35652132Y14128893D01*
X-35639520Y14107850D01*
X-35629030Y14085671D01*
X-35620765Y14062572D01*
X-35614804Y14038773D01*
X-35611204Y14014505D01*
X-35610000Y13990001D01*
X-35610000Y13339999D01*
X-35611204Y13315495D01*
X-35614804Y13291227D01*
X-35620765Y13267428D01*
X-35629030Y13244329D01*
X-35639520Y13222150D01*
X-35652132Y13201107D01*
X-35666747Y13181401D01*
X-35683223Y13163223D01*
X-35701401Y13146747D01*
X-35721107Y13132132D01*
X-35742150Y13119520D01*
X-35764329Y13109030D01*
X-35787428Y13100765D01*
X-35811227Y13094804D01*
X-35835495Y13091204D01*
X-35859999Y13090000D01*
X-36760001Y13090000D01*
X-36784505Y13091204D01*
X-36808773Y13094804D01*
X-36832572Y13100765D01*
X-36855671Y13109030D01*
X-36877850Y13119520D01*
X-36898893Y13132132D01*
X-36918599Y13146747D01*
X-36936777Y13163223D01*
X-36953253Y13181401D01*
X-36967868Y13201107D01*
X-36980480Y13222150D01*
X-36990970Y13244329D01*
X-36999235Y13267428D01*
X-37005196Y13291227D01*
X-37008796Y13315495D01*
X-37010000Y13339999D01*
X-37010000Y13990001D01*
X-37008796Y14014505D01*
X-37005196Y14038773D01*
X-36999235Y14062572D01*
X-36990970Y14085671D01*
X-36980480Y14107850D01*
X-36967868Y14128893D01*
X-36953253Y14148599D01*
X-36936777Y14166777D01*
X-36918599Y14183253D01*
X-36898893Y14197868D01*
X-36877850Y14210480D01*
X-36855671Y14220970D01*
X-36832572Y14229235D01*
X-36808773Y14235196D01*
X-36784505Y14238796D01*
X-36760001Y14240000D01*
X-35859999Y14240000D01*
X-35835495Y14238796D01*
X-35835495Y14238796D01*
G37*
D11*
X-36310000Y13665000D03*
D10*
G36*
X-35835495Y16288796D02*
X-35811227Y16285196D01*
X-35787428Y16279235D01*
X-35764329Y16270970D01*
X-35742150Y16260480D01*
X-35721107Y16247868D01*
X-35701401Y16233253D01*
X-35683223Y16216777D01*
X-35666747Y16198599D01*
X-35652132Y16178893D01*
X-35639520Y16157850D01*
X-35629030Y16135671D01*
X-35620765Y16112572D01*
X-35614804Y16088773D01*
X-35611204Y16064505D01*
X-35610000Y16040001D01*
X-35610000Y15389999D01*
X-35611204Y15365495D01*
X-35614804Y15341227D01*
X-35620765Y15317428D01*
X-35629030Y15294329D01*
X-35639520Y15272150D01*
X-35652132Y15251107D01*
X-35666747Y15231401D01*
X-35683223Y15213223D01*
X-35701401Y15196747D01*
X-35721107Y15182132D01*
X-35742150Y15169520D01*
X-35764329Y15159030D01*
X-35787428Y15150765D01*
X-35811227Y15144804D01*
X-35835495Y15141204D01*
X-35859999Y15140000D01*
X-36760001Y15140000D01*
X-36784505Y15141204D01*
X-36808773Y15144804D01*
X-36832572Y15150765D01*
X-36855671Y15159030D01*
X-36877850Y15169520D01*
X-36898893Y15182132D01*
X-36918599Y15196747D01*
X-36936777Y15213223D01*
X-36953253Y15231401D01*
X-36967868Y15251107D01*
X-36980480Y15272150D01*
X-36990970Y15294329D01*
X-36999235Y15317428D01*
X-37005196Y15341227D01*
X-37008796Y15365495D01*
X-37010000Y15389999D01*
X-37010000Y16040001D01*
X-37008796Y16064505D01*
X-37005196Y16088773D01*
X-36999235Y16112572D01*
X-36990970Y16135671D01*
X-36980480Y16157850D01*
X-36967868Y16178893D01*
X-36953253Y16198599D01*
X-36936777Y16216777D01*
X-36918599Y16233253D01*
X-36898893Y16247868D01*
X-36877850Y16260480D01*
X-36855671Y16270970D01*
X-36832572Y16279235D01*
X-36808773Y16285196D01*
X-36784505Y16288796D01*
X-36760001Y16290000D01*
X-35859999Y16290000D01*
X-35835495Y16288796D01*
X-35835495Y16288796D01*
G37*
D11*
X-36310000Y15715000D03*
G04 #@! TD*
D10*
G04 #@! TO.C,C4*
G36*
X-1285495Y9613796D02*
X-1261227Y9610196D01*
X-1237428Y9604235D01*
X-1214329Y9595970D01*
X-1192150Y9585480D01*
X-1171107Y9572868D01*
X-1151401Y9558253D01*
X-1133223Y9541777D01*
X-1116747Y9523599D01*
X-1102132Y9503893D01*
X-1089520Y9482850D01*
X-1079030Y9460671D01*
X-1070765Y9437572D01*
X-1064804Y9413773D01*
X-1061204Y9389505D01*
X-1060000Y9365001D01*
X-1060000Y8714999D01*
X-1061204Y8690495D01*
X-1064804Y8666227D01*
X-1070765Y8642428D01*
X-1079030Y8619329D01*
X-1089520Y8597150D01*
X-1102132Y8576107D01*
X-1116747Y8556401D01*
X-1133223Y8538223D01*
X-1151401Y8521747D01*
X-1171107Y8507132D01*
X-1192150Y8494520D01*
X-1214329Y8484030D01*
X-1237428Y8475765D01*
X-1261227Y8469804D01*
X-1285495Y8466204D01*
X-1309999Y8465000D01*
X-2210001Y8465000D01*
X-2234505Y8466204D01*
X-2258773Y8469804D01*
X-2282572Y8475765D01*
X-2305671Y8484030D01*
X-2327850Y8494520D01*
X-2348893Y8507132D01*
X-2368599Y8521747D01*
X-2386777Y8538223D01*
X-2403253Y8556401D01*
X-2417868Y8576107D01*
X-2430480Y8597150D01*
X-2440970Y8619329D01*
X-2449235Y8642428D01*
X-2455196Y8666227D01*
X-2458796Y8690495D01*
X-2460000Y8714999D01*
X-2460000Y9365001D01*
X-2458796Y9389505D01*
X-2455196Y9413773D01*
X-2449235Y9437572D01*
X-2440970Y9460671D01*
X-2430480Y9482850D01*
X-2417868Y9503893D01*
X-2403253Y9523599D01*
X-2386777Y9541777D01*
X-2368599Y9558253D01*
X-2348893Y9572868D01*
X-2327850Y9585480D01*
X-2305671Y9595970D01*
X-2282572Y9604235D01*
X-2258773Y9610196D01*
X-2234505Y9613796D01*
X-2210001Y9615000D01*
X-1309999Y9615000D01*
X-1285495Y9613796D01*
X-1285495Y9613796D01*
G37*
D11*
X-1760000Y9040000D03*
D10*
G36*
X-1285495Y7563796D02*
X-1261227Y7560196D01*
X-1237428Y7554235D01*
X-1214329Y7545970D01*
X-1192150Y7535480D01*
X-1171107Y7522868D01*
X-1151401Y7508253D01*
X-1133223Y7491777D01*
X-1116747Y7473599D01*
X-1102132Y7453893D01*
X-1089520Y7432850D01*
X-1079030Y7410671D01*
X-1070765Y7387572D01*
X-1064804Y7363773D01*
X-1061204Y7339505D01*
X-1060000Y7315001D01*
X-1060000Y6664999D01*
X-1061204Y6640495D01*
X-1064804Y6616227D01*
X-1070765Y6592428D01*
X-1079030Y6569329D01*
X-1089520Y6547150D01*
X-1102132Y6526107D01*
X-1116747Y6506401D01*
X-1133223Y6488223D01*
X-1151401Y6471747D01*
X-1171107Y6457132D01*
X-1192150Y6444520D01*
X-1214329Y6434030D01*
X-1237428Y6425765D01*
X-1261227Y6419804D01*
X-1285495Y6416204D01*
X-1309999Y6415000D01*
X-2210001Y6415000D01*
X-2234505Y6416204D01*
X-2258773Y6419804D01*
X-2282572Y6425765D01*
X-2305671Y6434030D01*
X-2327850Y6444520D01*
X-2348893Y6457132D01*
X-2368599Y6471747D01*
X-2386777Y6488223D01*
X-2403253Y6506401D01*
X-2417868Y6526107D01*
X-2430480Y6547150D01*
X-2440970Y6569329D01*
X-2449235Y6592428D01*
X-2455196Y6616227D01*
X-2458796Y6640495D01*
X-2460000Y6664999D01*
X-2460000Y7315001D01*
X-2458796Y7339505D01*
X-2455196Y7363773D01*
X-2449235Y7387572D01*
X-2440970Y7410671D01*
X-2430480Y7432850D01*
X-2417868Y7453893D01*
X-2403253Y7473599D01*
X-2386777Y7491777D01*
X-2368599Y7508253D01*
X-2348893Y7522868D01*
X-2327850Y7535480D01*
X-2305671Y7545970D01*
X-2282572Y7554235D01*
X-2258773Y7560196D01*
X-2234505Y7563796D01*
X-2210001Y7565000D01*
X-1309999Y7565000D01*
X-1285495Y7563796D01*
X-1285495Y7563796D01*
G37*
D11*
X-1760000Y6990000D03*
G04 #@! TD*
D10*
G04 #@! TO.C,C5*
G36*
X-935495Y31688796D02*
X-911227Y31685196D01*
X-887428Y31679235D01*
X-864329Y31670970D01*
X-842150Y31660480D01*
X-821107Y31647868D01*
X-801401Y31633253D01*
X-783223Y31616777D01*
X-766747Y31598599D01*
X-752132Y31578893D01*
X-739520Y31557850D01*
X-729030Y31535671D01*
X-720765Y31512572D01*
X-714804Y31488773D01*
X-711204Y31464505D01*
X-710000Y31440001D01*
X-710000Y30789999D01*
X-711204Y30765495D01*
X-714804Y30741227D01*
X-720765Y30717428D01*
X-729030Y30694329D01*
X-739520Y30672150D01*
X-752132Y30651107D01*
X-766747Y30631401D01*
X-783223Y30613223D01*
X-801401Y30596747D01*
X-821107Y30582132D01*
X-842150Y30569520D01*
X-864329Y30559030D01*
X-887428Y30550765D01*
X-911227Y30544804D01*
X-935495Y30541204D01*
X-959999Y30540000D01*
X-1860001Y30540000D01*
X-1884505Y30541204D01*
X-1908773Y30544804D01*
X-1932572Y30550765D01*
X-1955671Y30559030D01*
X-1977850Y30569520D01*
X-1998893Y30582132D01*
X-2018599Y30596747D01*
X-2036777Y30613223D01*
X-2053253Y30631401D01*
X-2067868Y30651107D01*
X-2080480Y30672150D01*
X-2090970Y30694329D01*
X-2099235Y30717428D01*
X-2105196Y30741227D01*
X-2108796Y30765495D01*
X-2110000Y30789999D01*
X-2110000Y31440001D01*
X-2108796Y31464505D01*
X-2105196Y31488773D01*
X-2099235Y31512572D01*
X-2090970Y31535671D01*
X-2080480Y31557850D01*
X-2067868Y31578893D01*
X-2053253Y31598599D01*
X-2036777Y31616777D01*
X-2018599Y31633253D01*
X-1998893Y31647868D01*
X-1977850Y31660480D01*
X-1955671Y31670970D01*
X-1932572Y31679235D01*
X-1908773Y31685196D01*
X-1884505Y31688796D01*
X-1860001Y31690000D01*
X-959999Y31690000D01*
X-935495Y31688796D01*
X-935495Y31688796D01*
G37*
D11*
X-1410000Y31115000D03*
D10*
G36*
X-935495Y29638796D02*
X-911227Y29635196D01*
X-887428Y29629235D01*
X-864329Y29620970D01*
X-842150Y29610480D01*
X-821107Y29597868D01*
X-801401Y29583253D01*
X-783223Y29566777D01*
X-766747Y29548599D01*
X-752132Y29528893D01*
X-739520Y29507850D01*
X-729030Y29485671D01*
X-720765Y29462572D01*
X-714804Y29438773D01*
X-711204Y29414505D01*
X-710000Y29390001D01*
X-710000Y28739999D01*
X-711204Y28715495D01*
X-714804Y28691227D01*
X-720765Y28667428D01*
X-729030Y28644329D01*
X-739520Y28622150D01*
X-752132Y28601107D01*
X-766747Y28581401D01*
X-783223Y28563223D01*
X-801401Y28546747D01*
X-821107Y28532132D01*
X-842150Y28519520D01*
X-864329Y28509030D01*
X-887428Y28500765D01*
X-911227Y28494804D01*
X-935495Y28491204D01*
X-959999Y28490000D01*
X-1860001Y28490000D01*
X-1884505Y28491204D01*
X-1908773Y28494804D01*
X-1932572Y28500765D01*
X-1955671Y28509030D01*
X-1977850Y28519520D01*
X-1998893Y28532132D01*
X-2018599Y28546747D01*
X-2036777Y28563223D01*
X-2053253Y28581401D01*
X-2067868Y28601107D01*
X-2080480Y28622150D01*
X-2090970Y28644329D01*
X-2099235Y28667428D01*
X-2105196Y28691227D01*
X-2108796Y28715495D01*
X-2110000Y28739999D01*
X-2110000Y29390001D01*
X-2108796Y29414505D01*
X-2105196Y29438773D01*
X-2099235Y29462572D01*
X-2090970Y29485671D01*
X-2080480Y29507850D01*
X-2067868Y29528893D01*
X-2053253Y29548599D01*
X-2036777Y29566777D01*
X-2018599Y29583253D01*
X-1998893Y29597868D01*
X-1977850Y29610480D01*
X-1955671Y29620970D01*
X-1932572Y29629235D01*
X-1908773Y29635196D01*
X-1884505Y29638796D01*
X-1860001Y29640000D01*
X-959999Y29640000D01*
X-935495Y29638796D01*
X-935495Y29638796D01*
G37*
D11*
X-1410000Y29065000D03*
G04 #@! TD*
D10*
G04 #@! TO.C,C6*
G36*
X-22510495Y12938796D02*
X-22486227Y12935196D01*
X-22462428Y12929235D01*
X-22439329Y12920970D01*
X-22417150Y12910480D01*
X-22396107Y12897868D01*
X-22376401Y12883253D01*
X-22358223Y12866777D01*
X-22341747Y12848599D01*
X-22327132Y12828893D01*
X-22314520Y12807850D01*
X-22304030Y12785671D01*
X-22295765Y12762572D01*
X-22289804Y12738773D01*
X-22286204Y12714505D01*
X-22285000Y12690001D01*
X-22285000Y11789999D01*
X-22286204Y11765495D01*
X-22289804Y11741227D01*
X-22295765Y11717428D01*
X-22304030Y11694329D01*
X-22314520Y11672150D01*
X-22327132Y11651107D01*
X-22341747Y11631401D01*
X-22358223Y11613223D01*
X-22376401Y11596747D01*
X-22396107Y11582132D01*
X-22417150Y11569520D01*
X-22439329Y11559030D01*
X-22462428Y11550765D01*
X-22486227Y11544804D01*
X-22510495Y11541204D01*
X-22534999Y11540000D01*
X-23185001Y11540000D01*
X-23209505Y11541204D01*
X-23233773Y11544804D01*
X-23257572Y11550765D01*
X-23280671Y11559030D01*
X-23302850Y11569520D01*
X-23323893Y11582132D01*
X-23343599Y11596747D01*
X-23361777Y11613223D01*
X-23378253Y11631401D01*
X-23392868Y11651107D01*
X-23405480Y11672150D01*
X-23415970Y11694329D01*
X-23424235Y11717428D01*
X-23430196Y11741227D01*
X-23433796Y11765495D01*
X-23435000Y11789999D01*
X-23435000Y12690001D01*
X-23433796Y12714505D01*
X-23430196Y12738773D01*
X-23424235Y12762572D01*
X-23415970Y12785671D01*
X-23405480Y12807850D01*
X-23392868Y12828893D01*
X-23378253Y12848599D01*
X-23361777Y12866777D01*
X-23343599Y12883253D01*
X-23323893Y12897868D01*
X-23302850Y12910480D01*
X-23280671Y12920970D01*
X-23257572Y12929235D01*
X-23233773Y12935196D01*
X-23209505Y12938796D01*
X-23185001Y12940000D01*
X-22534999Y12940000D01*
X-22510495Y12938796D01*
X-22510495Y12938796D01*
G37*
D11*
X-22860000Y12240000D03*
D10*
G36*
X-24560495Y12938796D02*
X-24536227Y12935196D01*
X-24512428Y12929235D01*
X-24489329Y12920970D01*
X-24467150Y12910480D01*
X-24446107Y12897868D01*
X-24426401Y12883253D01*
X-24408223Y12866777D01*
X-24391747Y12848599D01*
X-24377132Y12828893D01*
X-24364520Y12807850D01*
X-24354030Y12785671D01*
X-24345765Y12762572D01*
X-24339804Y12738773D01*
X-24336204Y12714505D01*
X-24335000Y12690001D01*
X-24335000Y11789999D01*
X-24336204Y11765495D01*
X-24339804Y11741227D01*
X-24345765Y11717428D01*
X-24354030Y11694329D01*
X-24364520Y11672150D01*
X-24377132Y11651107D01*
X-24391747Y11631401D01*
X-24408223Y11613223D01*
X-24426401Y11596747D01*
X-24446107Y11582132D01*
X-24467150Y11569520D01*
X-24489329Y11559030D01*
X-24512428Y11550765D01*
X-24536227Y11544804D01*
X-24560495Y11541204D01*
X-24584999Y11540000D01*
X-25235001Y11540000D01*
X-25259505Y11541204D01*
X-25283773Y11544804D01*
X-25307572Y11550765D01*
X-25330671Y11559030D01*
X-25352850Y11569520D01*
X-25373893Y11582132D01*
X-25393599Y11596747D01*
X-25411777Y11613223D01*
X-25428253Y11631401D01*
X-25442868Y11651107D01*
X-25455480Y11672150D01*
X-25465970Y11694329D01*
X-25474235Y11717428D01*
X-25480196Y11741227D01*
X-25483796Y11765495D01*
X-25485000Y11789999D01*
X-25485000Y12690001D01*
X-25483796Y12714505D01*
X-25480196Y12738773D01*
X-25474235Y12762572D01*
X-25465970Y12785671D01*
X-25455480Y12807850D01*
X-25442868Y12828893D01*
X-25428253Y12848599D01*
X-25411777Y12866777D01*
X-25393599Y12883253D01*
X-25373893Y12897868D01*
X-25352850Y12910480D01*
X-25330671Y12920970D01*
X-25307572Y12929235D01*
X-25283773Y12935196D01*
X-25259505Y12938796D01*
X-25235001Y12940000D01*
X-24584999Y12940000D01*
X-24560495Y12938796D01*
X-24560495Y12938796D01*
G37*
D11*
X-24910000Y12240000D03*
G04 #@! TD*
D10*
G04 #@! TO.C,C7*
G36*
X-17785495Y22313796D02*
X-17761227Y22310196D01*
X-17737428Y22304235D01*
X-17714329Y22295970D01*
X-17692150Y22285480D01*
X-17671107Y22272868D01*
X-17651401Y22258253D01*
X-17633223Y22241777D01*
X-17616747Y22223599D01*
X-17602132Y22203893D01*
X-17589520Y22182850D01*
X-17579030Y22160671D01*
X-17570765Y22137572D01*
X-17564804Y22113773D01*
X-17561204Y22089505D01*
X-17560000Y22065001D01*
X-17560000Y21414999D01*
X-17561204Y21390495D01*
X-17564804Y21366227D01*
X-17570765Y21342428D01*
X-17579030Y21319329D01*
X-17589520Y21297150D01*
X-17602132Y21276107D01*
X-17616747Y21256401D01*
X-17633223Y21238223D01*
X-17651401Y21221747D01*
X-17671107Y21207132D01*
X-17692150Y21194520D01*
X-17714329Y21184030D01*
X-17737428Y21175765D01*
X-17761227Y21169804D01*
X-17785495Y21166204D01*
X-17809999Y21165000D01*
X-18710001Y21165000D01*
X-18734505Y21166204D01*
X-18758773Y21169804D01*
X-18782572Y21175765D01*
X-18805671Y21184030D01*
X-18827850Y21194520D01*
X-18848893Y21207132D01*
X-18868599Y21221747D01*
X-18886777Y21238223D01*
X-18903253Y21256401D01*
X-18917868Y21276107D01*
X-18930480Y21297150D01*
X-18940970Y21319329D01*
X-18949235Y21342428D01*
X-18955196Y21366227D01*
X-18958796Y21390495D01*
X-18960000Y21414999D01*
X-18960000Y22065001D01*
X-18958796Y22089505D01*
X-18955196Y22113773D01*
X-18949235Y22137572D01*
X-18940970Y22160671D01*
X-18930480Y22182850D01*
X-18917868Y22203893D01*
X-18903253Y22223599D01*
X-18886777Y22241777D01*
X-18868599Y22258253D01*
X-18848893Y22272868D01*
X-18827850Y22285480D01*
X-18805671Y22295970D01*
X-18782572Y22304235D01*
X-18758773Y22310196D01*
X-18734505Y22313796D01*
X-18710001Y22315000D01*
X-17809999Y22315000D01*
X-17785495Y22313796D01*
X-17785495Y22313796D01*
G37*
D11*
X-18260000Y21740000D03*
D10*
G36*
X-17785495Y24363796D02*
X-17761227Y24360196D01*
X-17737428Y24354235D01*
X-17714329Y24345970D01*
X-17692150Y24335480D01*
X-17671107Y24322868D01*
X-17651401Y24308253D01*
X-17633223Y24291777D01*
X-17616747Y24273599D01*
X-17602132Y24253893D01*
X-17589520Y24232850D01*
X-17579030Y24210671D01*
X-17570765Y24187572D01*
X-17564804Y24163773D01*
X-17561204Y24139505D01*
X-17560000Y24115001D01*
X-17560000Y23464999D01*
X-17561204Y23440495D01*
X-17564804Y23416227D01*
X-17570765Y23392428D01*
X-17579030Y23369329D01*
X-17589520Y23347150D01*
X-17602132Y23326107D01*
X-17616747Y23306401D01*
X-17633223Y23288223D01*
X-17651401Y23271747D01*
X-17671107Y23257132D01*
X-17692150Y23244520D01*
X-17714329Y23234030D01*
X-17737428Y23225765D01*
X-17761227Y23219804D01*
X-17785495Y23216204D01*
X-17809999Y23215000D01*
X-18710001Y23215000D01*
X-18734505Y23216204D01*
X-18758773Y23219804D01*
X-18782572Y23225765D01*
X-18805671Y23234030D01*
X-18827850Y23244520D01*
X-18848893Y23257132D01*
X-18868599Y23271747D01*
X-18886777Y23288223D01*
X-18903253Y23306401D01*
X-18917868Y23326107D01*
X-18930480Y23347150D01*
X-18940970Y23369329D01*
X-18949235Y23392428D01*
X-18955196Y23416227D01*
X-18958796Y23440495D01*
X-18960000Y23464999D01*
X-18960000Y24115001D01*
X-18958796Y24139505D01*
X-18955196Y24163773D01*
X-18949235Y24187572D01*
X-18940970Y24210671D01*
X-18930480Y24232850D01*
X-18917868Y24253893D01*
X-18903253Y24273599D01*
X-18886777Y24291777D01*
X-18868599Y24308253D01*
X-18848893Y24322868D01*
X-18827850Y24335480D01*
X-18805671Y24345970D01*
X-18782572Y24354235D01*
X-18758773Y24360196D01*
X-18734505Y24363796D01*
X-18710001Y24365000D01*
X-17809999Y24365000D01*
X-17785495Y24363796D01*
X-17785495Y24363796D01*
G37*
D11*
X-18260000Y23790000D03*
G04 #@! TD*
D10*
G04 #@! TO.C,C8*
G36*
X-30260495Y25788796D02*
X-30236227Y25785196D01*
X-30212428Y25779235D01*
X-30189329Y25770970D01*
X-30167150Y25760480D01*
X-30146107Y25747868D01*
X-30126401Y25733253D01*
X-30108223Y25716777D01*
X-30091747Y25698599D01*
X-30077132Y25678893D01*
X-30064520Y25657850D01*
X-30054030Y25635671D01*
X-30045765Y25612572D01*
X-30039804Y25588773D01*
X-30036204Y25564505D01*
X-30035000Y25540001D01*
X-30035000Y24639999D01*
X-30036204Y24615495D01*
X-30039804Y24591227D01*
X-30045765Y24567428D01*
X-30054030Y24544329D01*
X-30064520Y24522150D01*
X-30077132Y24501107D01*
X-30091747Y24481401D01*
X-30108223Y24463223D01*
X-30126401Y24446747D01*
X-30146107Y24432132D01*
X-30167150Y24419520D01*
X-30189329Y24409030D01*
X-30212428Y24400765D01*
X-30236227Y24394804D01*
X-30260495Y24391204D01*
X-30284999Y24390000D01*
X-30935001Y24390000D01*
X-30959505Y24391204D01*
X-30983773Y24394804D01*
X-31007572Y24400765D01*
X-31030671Y24409030D01*
X-31052850Y24419520D01*
X-31073893Y24432132D01*
X-31093599Y24446747D01*
X-31111777Y24463223D01*
X-31128253Y24481401D01*
X-31142868Y24501107D01*
X-31155480Y24522150D01*
X-31165970Y24544329D01*
X-31174235Y24567428D01*
X-31180196Y24591227D01*
X-31183796Y24615495D01*
X-31185000Y24639999D01*
X-31185000Y25540001D01*
X-31183796Y25564505D01*
X-31180196Y25588773D01*
X-31174235Y25612572D01*
X-31165970Y25635671D01*
X-31155480Y25657850D01*
X-31142868Y25678893D01*
X-31128253Y25698599D01*
X-31111777Y25716777D01*
X-31093599Y25733253D01*
X-31073893Y25747868D01*
X-31052850Y25760480D01*
X-31030671Y25770970D01*
X-31007572Y25779235D01*
X-30983773Y25785196D01*
X-30959505Y25788796D01*
X-30935001Y25790000D01*
X-30284999Y25790000D01*
X-30260495Y25788796D01*
X-30260495Y25788796D01*
G37*
D11*
X-30610000Y25090000D03*
D10*
G36*
X-32310495Y25788796D02*
X-32286227Y25785196D01*
X-32262428Y25779235D01*
X-32239329Y25770970D01*
X-32217150Y25760480D01*
X-32196107Y25747868D01*
X-32176401Y25733253D01*
X-32158223Y25716777D01*
X-32141747Y25698599D01*
X-32127132Y25678893D01*
X-32114520Y25657850D01*
X-32104030Y25635671D01*
X-32095765Y25612572D01*
X-32089804Y25588773D01*
X-32086204Y25564505D01*
X-32085000Y25540001D01*
X-32085000Y24639999D01*
X-32086204Y24615495D01*
X-32089804Y24591227D01*
X-32095765Y24567428D01*
X-32104030Y24544329D01*
X-32114520Y24522150D01*
X-32127132Y24501107D01*
X-32141747Y24481401D01*
X-32158223Y24463223D01*
X-32176401Y24446747D01*
X-32196107Y24432132D01*
X-32217150Y24419520D01*
X-32239329Y24409030D01*
X-32262428Y24400765D01*
X-32286227Y24394804D01*
X-32310495Y24391204D01*
X-32334999Y24390000D01*
X-32985001Y24390000D01*
X-33009505Y24391204D01*
X-33033773Y24394804D01*
X-33057572Y24400765D01*
X-33080671Y24409030D01*
X-33102850Y24419520D01*
X-33123893Y24432132D01*
X-33143599Y24446747D01*
X-33161777Y24463223D01*
X-33178253Y24481401D01*
X-33192868Y24501107D01*
X-33205480Y24522150D01*
X-33215970Y24544329D01*
X-33224235Y24567428D01*
X-33230196Y24591227D01*
X-33233796Y24615495D01*
X-33235000Y24639999D01*
X-33235000Y25540001D01*
X-33233796Y25564505D01*
X-33230196Y25588773D01*
X-33224235Y25612572D01*
X-33215970Y25635671D01*
X-33205480Y25657850D01*
X-33192868Y25678893D01*
X-33178253Y25698599D01*
X-33161777Y25716777D01*
X-33143599Y25733253D01*
X-33123893Y25747868D01*
X-33102850Y25760480D01*
X-33080671Y25770970D01*
X-33057572Y25779235D01*
X-33033773Y25785196D01*
X-33009505Y25788796D01*
X-32985001Y25790000D01*
X-32334999Y25790000D01*
X-32310495Y25788796D01*
X-32310495Y25788796D01*
G37*
D11*
X-32660000Y25090000D03*
G04 #@! TD*
D10*
G04 #@! TO.C,C9*
G36*
X-33735495Y18263796D02*
X-33711227Y18260196D01*
X-33687428Y18254235D01*
X-33664329Y18245970D01*
X-33642150Y18235480D01*
X-33621107Y18222868D01*
X-33601401Y18208253D01*
X-33583223Y18191777D01*
X-33566747Y18173599D01*
X-33552132Y18153893D01*
X-33539520Y18132850D01*
X-33529030Y18110671D01*
X-33520765Y18087572D01*
X-33514804Y18063773D01*
X-33511204Y18039505D01*
X-33510000Y18015001D01*
X-33510000Y17364999D01*
X-33511204Y17340495D01*
X-33514804Y17316227D01*
X-33520765Y17292428D01*
X-33529030Y17269329D01*
X-33539520Y17247150D01*
X-33552132Y17226107D01*
X-33566747Y17206401D01*
X-33583223Y17188223D01*
X-33601401Y17171747D01*
X-33621107Y17157132D01*
X-33642150Y17144520D01*
X-33664329Y17134030D01*
X-33687428Y17125765D01*
X-33711227Y17119804D01*
X-33735495Y17116204D01*
X-33759999Y17115000D01*
X-34660001Y17115000D01*
X-34684505Y17116204D01*
X-34708773Y17119804D01*
X-34732572Y17125765D01*
X-34755671Y17134030D01*
X-34777850Y17144520D01*
X-34798893Y17157132D01*
X-34818599Y17171747D01*
X-34836777Y17188223D01*
X-34853253Y17206401D01*
X-34867868Y17226107D01*
X-34880480Y17247150D01*
X-34890970Y17269329D01*
X-34899235Y17292428D01*
X-34905196Y17316227D01*
X-34908796Y17340495D01*
X-34910000Y17364999D01*
X-34910000Y18015001D01*
X-34908796Y18039505D01*
X-34905196Y18063773D01*
X-34899235Y18087572D01*
X-34890970Y18110671D01*
X-34880480Y18132850D01*
X-34867868Y18153893D01*
X-34853253Y18173599D01*
X-34836777Y18191777D01*
X-34818599Y18208253D01*
X-34798893Y18222868D01*
X-34777850Y18235480D01*
X-34755671Y18245970D01*
X-34732572Y18254235D01*
X-34708773Y18260196D01*
X-34684505Y18263796D01*
X-34660001Y18265000D01*
X-33759999Y18265000D01*
X-33735495Y18263796D01*
X-33735495Y18263796D01*
G37*
D11*
X-34210000Y17690000D03*
D10*
G36*
X-33735495Y16213796D02*
X-33711227Y16210196D01*
X-33687428Y16204235D01*
X-33664329Y16195970D01*
X-33642150Y16185480D01*
X-33621107Y16172868D01*
X-33601401Y16158253D01*
X-33583223Y16141777D01*
X-33566747Y16123599D01*
X-33552132Y16103893D01*
X-33539520Y16082850D01*
X-33529030Y16060671D01*
X-33520765Y16037572D01*
X-33514804Y16013773D01*
X-33511204Y15989505D01*
X-33510000Y15965001D01*
X-33510000Y15314999D01*
X-33511204Y15290495D01*
X-33514804Y15266227D01*
X-33520765Y15242428D01*
X-33529030Y15219329D01*
X-33539520Y15197150D01*
X-33552132Y15176107D01*
X-33566747Y15156401D01*
X-33583223Y15138223D01*
X-33601401Y15121747D01*
X-33621107Y15107132D01*
X-33642150Y15094520D01*
X-33664329Y15084030D01*
X-33687428Y15075765D01*
X-33711227Y15069804D01*
X-33735495Y15066204D01*
X-33759999Y15065000D01*
X-34660001Y15065000D01*
X-34684505Y15066204D01*
X-34708773Y15069804D01*
X-34732572Y15075765D01*
X-34755671Y15084030D01*
X-34777850Y15094520D01*
X-34798893Y15107132D01*
X-34818599Y15121747D01*
X-34836777Y15138223D01*
X-34853253Y15156401D01*
X-34867868Y15176107D01*
X-34880480Y15197150D01*
X-34890970Y15219329D01*
X-34899235Y15242428D01*
X-34905196Y15266227D01*
X-34908796Y15290495D01*
X-34910000Y15314999D01*
X-34910000Y15965001D01*
X-34908796Y15989505D01*
X-34905196Y16013773D01*
X-34899235Y16037572D01*
X-34890970Y16060671D01*
X-34880480Y16082850D01*
X-34867868Y16103893D01*
X-34853253Y16123599D01*
X-34836777Y16141777D01*
X-34818599Y16158253D01*
X-34798893Y16172868D01*
X-34777850Y16185480D01*
X-34755671Y16195970D01*
X-34732572Y16204235D01*
X-34708773Y16210196D01*
X-34684505Y16213796D01*
X-34660001Y16215000D01*
X-33759999Y16215000D01*
X-33735495Y16213796D01*
X-33735495Y16213796D01*
G37*
D11*
X-34210000Y15640000D03*
G04 #@! TD*
D10*
G04 #@! TO.C,C10*
G36*
X-16085495Y29088796D02*
X-16061227Y29085196D01*
X-16037428Y29079235D01*
X-16014329Y29070970D01*
X-15992150Y29060480D01*
X-15971107Y29047868D01*
X-15951401Y29033253D01*
X-15933223Y29016777D01*
X-15916747Y28998599D01*
X-15902132Y28978893D01*
X-15889520Y28957850D01*
X-15879030Y28935671D01*
X-15870765Y28912572D01*
X-15864804Y28888773D01*
X-15861204Y28864505D01*
X-15860000Y28840001D01*
X-15860000Y27939999D01*
X-15861204Y27915495D01*
X-15864804Y27891227D01*
X-15870765Y27867428D01*
X-15879030Y27844329D01*
X-15889520Y27822150D01*
X-15902132Y27801107D01*
X-15916747Y27781401D01*
X-15933223Y27763223D01*
X-15951401Y27746747D01*
X-15971107Y27732132D01*
X-15992150Y27719520D01*
X-16014329Y27709030D01*
X-16037428Y27700765D01*
X-16061227Y27694804D01*
X-16085495Y27691204D01*
X-16109999Y27690000D01*
X-16760001Y27690000D01*
X-16784505Y27691204D01*
X-16808773Y27694804D01*
X-16832572Y27700765D01*
X-16855671Y27709030D01*
X-16877850Y27719520D01*
X-16898893Y27732132D01*
X-16918599Y27746747D01*
X-16936777Y27763223D01*
X-16953253Y27781401D01*
X-16967868Y27801107D01*
X-16980480Y27822150D01*
X-16990970Y27844329D01*
X-16999235Y27867428D01*
X-17005196Y27891227D01*
X-17008796Y27915495D01*
X-17010000Y27939999D01*
X-17010000Y28840001D01*
X-17008796Y28864505D01*
X-17005196Y28888773D01*
X-16999235Y28912572D01*
X-16990970Y28935671D01*
X-16980480Y28957850D01*
X-16967868Y28978893D01*
X-16953253Y28998599D01*
X-16936777Y29016777D01*
X-16918599Y29033253D01*
X-16898893Y29047868D01*
X-16877850Y29060480D01*
X-16855671Y29070970D01*
X-16832572Y29079235D01*
X-16808773Y29085196D01*
X-16784505Y29088796D01*
X-16760001Y29090000D01*
X-16109999Y29090000D01*
X-16085495Y29088796D01*
X-16085495Y29088796D01*
G37*
D11*
X-16435000Y28390000D03*
D10*
G36*
X-14035495Y29088796D02*
X-14011227Y29085196D01*
X-13987428Y29079235D01*
X-13964329Y29070970D01*
X-13942150Y29060480D01*
X-13921107Y29047868D01*
X-13901401Y29033253D01*
X-13883223Y29016777D01*
X-13866747Y28998599D01*
X-13852132Y28978893D01*
X-13839520Y28957850D01*
X-13829030Y28935671D01*
X-13820765Y28912572D01*
X-13814804Y28888773D01*
X-13811204Y28864505D01*
X-13810000Y28840001D01*
X-13810000Y27939999D01*
X-13811204Y27915495D01*
X-13814804Y27891227D01*
X-13820765Y27867428D01*
X-13829030Y27844329D01*
X-13839520Y27822150D01*
X-13852132Y27801107D01*
X-13866747Y27781401D01*
X-13883223Y27763223D01*
X-13901401Y27746747D01*
X-13921107Y27732132D01*
X-13942150Y27719520D01*
X-13964329Y27709030D01*
X-13987428Y27700765D01*
X-14011227Y27694804D01*
X-14035495Y27691204D01*
X-14059999Y27690000D01*
X-14710001Y27690000D01*
X-14734505Y27691204D01*
X-14758773Y27694804D01*
X-14782572Y27700765D01*
X-14805671Y27709030D01*
X-14827850Y27719520D01*
X-14848893Y27732132D01*
X-14868599Y27746747D01*
X-14886777Y27763223D01*
X-14903253Y27781401D01*
X-14917868Y27801107D01*
X-14930480Y27822150D01*
X-14940970Y27844329D01*
X-14949235Y27867428D01*
X-14955196Y27891227D01*
X-14958796Y27915495D01*
X-14960000Y27939999D01*
X-14960000Y28840001D01*
X-14958796Y28864505D01*
X-14955196Y28888773D01*
X-14949235Y28912572D01*
X-14940970Y28935671D01*
X-14930480Y28957850D01*
X-14917868Y28978893D01*
X-14903253Y28998599D01*
X-14886777Y29016777D01*
X-14868599Y29033253D01*
X-14848893Y29047868D01*
X-14827850Y29060480D01*
X-14805671Y29070970D01*
X-14782572Y29079235D01*
X-14758773Y29085196D01*
X-14734505Y29088796D01*
X-14710001Y29090000D01*
X-14059999Y29090000D01*
X-14035495Y29088796D01*
X-14035495Y29088796D01*
G37*
D11*
X-14385000Y28390000D03*
G04 #@! TD*
D10*
G04 #@! TO.C,C11*
G36*
X-28585495Y9763796D02*
X-28561227Y9760196D01*
X-28537428Y9754235D01*
X-28514329Y9745970D01*
X-28492150Y9735480D01*
X-28471107Y9722868D01*
X-28451401Y9708253D01*
X-28433223Y9691777D01*
X-28416747Y9673599D01*
X-28402132Y9653893D01*
X-28389520Y9632850D01*
X-28379030Y9610671D01*
X-28370765Y9587572D01*
X-28364804Y9563773D01*
X-28361204Y9539505D01*
X-28360000Y9515001D01*
X-28360000Y8864999D01*
X-28361204Y8840495D01*
X-28364804Y8816227D01*
X-28370765Y8792428D01*
X-28379030Y8769329D01*
X-28389520Y8747150D01*
X-28402132Y8726107D01*
X-28416747Y8706401D01*
X-28433223Y8688223D01*
X-28451401Y8671747D01*
X-28471107Y8657132D01*
X-28492150Y8644520D01*
X-28514329Y8634030D01*
X-28537428Y8625765D01*
X-28561227Y8619804D01*
X-28585495Y8616204D01*
X-28609999Y8615000D01*
X-29510001Y8615000D01*
X-29534505Y8616204D01*
X-29558773Y8619804D01*
X-29582572Y8625765D01*
X-29605671Y8634030D01*
X-29627850Y8644520D01*
X-29648893Y8657132D01*
X-29668599Y8671747D01*
X-29686777Y8688223D01*
X-29703253Y8706401D01*
X-29717868Y8726107D01*
X-29730480Y8747150D01*
X-29740970Y8769329D01*
X-29749235Y8792428D01*
X-29755196Y8816227D01*
X-29758796Y8840495D01*
X-29760000Y8864999D01*
X-29760000Y9515001D01*
X-29758796Y9539505D01*
X-29755196Y9563773D01*
X-29749235Y9587572D01*
X-29740970Y9610671D01*
X-29730480Y9632850D01*
X-29717868Y9653893D01*
X-29703253Y9673599D01*
X-29686777Y9691777D01*
X-29668599Y9708253D01*
X-29648893Y9722868D01*
X-29627850Y9735480D01*
X-29605671Y9745970D01*
X-29582572Y9754235D01*
X-29558773Y9760196D01*
X-29534505Y9763796D01*
X-29510001Y9765000D01*
X-28609999Y9765000D01*
X-28585495Y9763796D01*
X-28585495Y9763796D01*
G37*
D11*
X-29060000Y9190000D03*
D10*
G36*
X-28585495Y11813796D02*
X-28561227Y11810196D01*
X-28537428Y11804235D01*
X-28514329Y11795970D01*
X-28492150Y11785480D01*
X-28471107Y11772868D01*
X-28451401Y11758253D01*
X-28433223Y11741777D01*
X-28416747Y11723599D01*
X-28402132Y11703893D01*
X-28389520Y11682850D01*
X-28379030Y11660671D01*
X-28370765Y11637572D01*
X-28364804Y11613773D01*
X-28361204Y11589505D01*
X-28360000Y11565001D01*
X-28360000Y10914999D01*
X-28361204Y10890495D01*
X-28364804Y10866227D01*
X-28370765Y10842428D01*
X-28379030Y10819329D01*
X-28389520Y10797150D01*
X-28402132Y10776107D01*
X-28416747Y10756401D01*
X-28433223Y10738223D01*
X-28451401Y10721747D01*
X-28471107Y10707132D01*
X-28492150Y10694520D01*
X-28514329Y10684030D01*
X-28537428Y10675765D01*
X-28561227Y10669804D01*
X-28585495Y10666204D01*
X-28609999Y10665000D01*
X-29510001Y10665000D01*
X-29534505Y10666204D01*
X-29558773Y10669804D01*
X-29582572Y10675765D01*
X-29605671Y10684030D01*
X-29627850Y10694520D01*
X-29648893Y10707132D01*
X-29668599Y10721747D01*
X-29686777Y10738223D01*
X-29703253Y10756401D01*
X-29717868Y10776107D01*
X-29730480Y10797150D01*
X-29740970Y10819329D01*
X-29749235Y10842428D01*
X-29755196Y10866227D01*
X-29758796Y10890495D01*
X-29760000Y10914999D01*
X-29760000Y11565001D01*
X-29758796Y11589505D01*
X-29755196Y11613773D01*
X-29749235Y11637572D01*
X-29740970Y11660671D01*
X-29730480Y11682850D01*
X-29717868Y11703893D01*
X-29703253Y11723599D01*
X-29686777Y11741777D01*
X-29668599Y11758253D01*
X-29648893Y11772868D01*
X-29627850Y11785480D01*
X-29605671Y11795970D01*
X-29582572Y11804235D01*
X-29558773Y11810196D01*
X-29534505Y11813796D01*
X-29510001Y11815000D01*
X-28609999Y11815000D01*
X-28585495Y11813796D01*
X-28585495Y11813796D01*
G37*
D11*
X-29060000Y11240000D03*
G04 #@! TD*
D10*
G04 #@! TO.C,C12*
G36*
X-11985495Y6888796D02*
X-11961227Y6885196D01*
X-11937428Y6879235D01*
X-11914329Y6870970D01*
X-11892150Y6860480D01*
X-11871107Y6847868D01*
X-11851401Y6833253D01*
X-11833223Y6816777D01*
X-11816747Y6798599D01*
X-11802132Y6778893D01*
X-11789520Y6757850D01*
X-11779030Y6735671D01*
X-11770765Y6712572D01*
X-11764804Y6688773D01*
X-11761204Y6664505D01*
X-11760000Y6640001D01*
X-11760000Y5989999D01*
X-11761204Y5965495D01*
X-11764804Y5941227D01*
X-11770765Y5917428D01*
X-11779030Y5894329D01*
X-11789520Y5872150D01*
X-11802132Y5851107D01*
X-11816747Y5831401D01*
X-11833223Y5813223D01*
X-11851401Y5796747D01*
X-11871107Y5782132D01*
X-11892150Y5769520D01*
X-11914329Y5759030D01*
X-11937428Y5750765D01*
X-11961227Y5744804D01*
X-11985495Y5741204D01*
X-12009999Y5740000D01*
X-12910001Y5740000D01*
X-12934505Y5741204D01*
X-12958773Y5744804D01*
X-12982572Y5750765D01*
X-13005671Y5759030D01*
X-13027850Y5769520D01*
X-13048893Y5782132D01*
X-13068599Y5796747D01*
X-13086777Y5813223D01*
X-13103253Y5831401D01*
X-13117868Y5851107D01*
X-13130480Y5872150D01*
X-13140970Y5894329D01*
X-13149235Y5917428D01*
X-13155196Y5941227D01*
X-13158796Y5965495D01*
X-13160000Y5989999D01*
X-13160000Y6640001D01*
X-13158796Y6664505D01*
X-13155196Y6688773D01*
X-13149235Y6712572D01*
X-13140970Y6735671D01*
X-13130480Y6757850D01*
X-13117868Y6778893D01*
X-13103253Y6798599D01*
X-13086777Y6816777D01*
X-13068599Y6833253D01*
X-13048893Y6847868D01*
X-13027850Y6860480D01*
X-13005671Y6870970D01*
X-12982572Y6879235D01*
X-12958773Y6885196D01*
X-12934505Y6888796D01*
X-12910001Y6890000D01*
X-12009999Y6890000D01*
X-11985495Y6888796D01*
X-11985495Y6888796D01*
G37*
D11*
X-12460000Y6315000D03*
D10*
G36*
X-11985495Y8938796D02*
X-11961227Y8935196D01*
X-11937428Y8929235D01*
X-11914329Y8920970D01*
X-11892150Y8910480D01*
X-11871107Y8897868D01*
X-11851401Y8883253D01*
X-11833223Y8866777D01*
X-11816747Y8848599D01*
X-11802132Y8828893D01*
X-11789520Y8807850D01*
X-11779030Y8785671D01*
X-11770765Y8762572D01*
X-11764804Y8738773D01*
X-11761204Y8714505D01*
X-11760000Y8690001D01*
X-11760000Y8039999D01*
X-11761204Y8015495D01*
X-11764804Y7991227D01*
X-11770765Y7967428D01*
X-11779030Y7944329D01*
X-11789520Y7922150D01*
X-11802132Y7901107D01*
X-11816747Y7881401D01*
X-11833223Y7863223D01*
X-11851401Y7846747D01*
X-11871107Y7832132D01*
X-11892150Y7819520D01*
X-11914329Y7809030D01*
X-11937428Y7800765D01*
X-11961227Y7794804D01*
X-11985495Y7791204D01*
X-12009999Y7790000D01*
X-12910001Y7790000D01*
X-12934505Y7791204D01*
X-12958773Y7794804D01*
X-12982572Y7800765D01*
X-13005671Y7809030D01*
X-13027850Y7819520D01*
X-13048893Y7832132D01*
X-13068599Y7846747D01*
X-13086777Y7863223D01*
X-13103253Y7881401D01*
X-13117868Y7901107D01*
X-13130480Y7922150D01*
X-13140970Y7944329D01*
X-13149235Y7967428D01*
X-13155196Y7991227D01*
X-13158796Y8015495D01*
X-13160000Y8039999D01*
X-13160000Y8690001D01*
X-13158796Y8714505D01*
X-13155196Y8738773D01*
X-13149235Y8762572D01*
X-13140970Y8785671D01*
X-13130480Y8807850D01*
X-13117868Y8828893D01*
X-13103253Y8848599D01*
X-13086777Y8866777D01*
X-13068599Y8883253D01*
X-13048893Y8897868D01*
X-13027850Y8910480D01*
X-13005671Y8920970D01*
X-12982572Y8929235D01*
X-12958773Y8935196D01*
X-12934505Y8938796D01*
X-12910001Y8940000D01*
X-12009999Y8940000D01*
X-11985495Y8938796D01*
X-11985495Y8938796D01*
G37*
D11*
X-12460000Y8365000D03*
G04 #@! TD*
D10*
G04 #@! TO.C,C13*
G36*
X-11435495Y32363796D02*
X-11411227Y32360196D01*
X-11387428Y32354235D01*
X-11364329Y32345970D01*
X-11342150Y32335480D01*
X-11321107Y32322868D01*
X-11301401Y32308253D01*
X-11283223Y32291777D01*
X-11266747Y32273599D01*
X-11252132Y32253893D01*
X-11239520Y32232850D01*
X-11229030Y32210671D01*
X-11220765Y32187572D01*
X-11214804Y32163773D01*
X-11211204Y32139505D01*
X-11210000Y32115001D01*
X-11210000Y31464999D01*
X-11211204Y31440495D01*
X-11214804Y31416227D01*
X-11220765Y31392428D01*
X-11229030Y31369329D01*
X-11239520Y31347150D01*
X-11252132Y31326107D01*
X-11266747Y31306401D01*
X-11283223Y31288223D01*
X-11301401Y31271747D01*
X-11321107Y31257132D01*
X-11342150Y31244520D01*
X-11364329Y31234030D01*
X-11387428Y31225765D01*
X-11411227Y31219804D01*
X-11435495Y31216204D01*
X-11459999Y31215000D01*
X-12360001Y31215000D01*
X-12384505Y31216204D01*
X-12408773Y31219804D01*
X-12432572Y31225765D01*
X-12455671Y31234030D01*
X-12477850Y31244520D01*
X-12498893Y31257132D01*
X-12518599Y31271747D01*
X-12536777Y31288223D01*
X-12553253Y31306401D01*
X-12567868Y31326107D01*
X-12580480Y31347150D01*
X-12590970Y31369329D01*
X-12599235Y31392428D01*
X-12605196Y31416227D01*
X-12608796Y31440495D01*
X-12610000Y31464999D01*
X-12610000Y32115001D01*
X-12608796Y32139505D01*
X-12605196Y32163773D01*
X-12599235Y32187572D01*
X-12590970Y32210671D01*
X-12580480Y32232850D01*
X-12567868Y32253893D01*
X-12553253Y32273599D01*
X-12536777Y32291777D01*
X-12518599Y32308253D01*
X-12498893Y32322868D01*
X-12477850Y32335480D01*
X-12455671Y32345970D01*
X-12432572Y32354235D01*
X-12408773Y32360196D01*
X-12384505Y32363796D01*
X-12360001Y32365000D01*
X-11459999Y32365000D01*
X-11435495Y32363796D01*
X-11435495Y32363796D01*
G37*
D11*
X-11910000Y31790000D03*
D10*
G36*
X-11435495Y30313796D02*
X-11411227Y30310196D01*
X-11387428Y30304235D01*
X-11364329Y30295970D01*
X-11342150Y30285480D01*
X-11321107Y30272868D01*
X-11301401Y30258253D01*
X-11283223Y30241777D01*
X-11266747Y30223599D01*
X-11252132Y30203893D01*
X-11239520Y30182850D01*
X-11229030Y30160671D01*
X-11220765Y30137572D01*
X-11214804Y30113773D01*
X-11211204Y30089505D01*
X-11210000Y30065001D01*
X-11210000Y29414999D01*
X-11211204Y29390495D01*
X-11214804Y29366227D01*
X-11220765Y29342428D01*
X-11229030Y29319329D01*
X-11239520Y29297150D01*
X-11252132Y29276107D01*
X-11266747Y29256401D01*
X-11283223Y29238223D01*
X-11301401Y29221747D01*
X-11321107Y29207132D01*
X-11342150Y29194520D01*
X-11364329Y29184030D01*
X-11387428Y29175765D01*
X-11411227Y29169804D01*
X-11435495Y29166204D01*
X-11459999Y29165000D01*
X-12360001Y29165000D01*
X-12384505Y29166204D01*
X-12408773Y29169804D01*
X-12432572Y29175765D01*
X-12455671Y29184030D01*
X-12477850Y29194520D01*
X-12498893Y29207132D01*
X-12518599Y29221747D01*
X-12536777Y29238223D01*
X-12553253Y29256401D01*
X-12567868Y29276107D01*
X-12580480Y29297150D01*
X-12590970Y29319329D01*
X-12599235Y29342428D01*
X-12605196Y29366227D01*
X-12608796Y29390495D01*
X-12610000Y29414999D01*
X-12610000Y30065001D01*
X-12608796Y30089505D01*
X-12605196Y30113773D01*
X-12599235Y30137572D01*
X-12590970Y30160671D01*
X-12580480Y30182850D01*
X-12567868Y30203893D01*
X-12553253Y30223599D01*
X-12536777Y30241777D01*
X-12518599Y30258253D01*
X-12498893Y30272868D01*
X-12477850Y30285480D01*
X-12455671Y30295970D01*
X-12432572Y30304235D01*
X-12408773Y30310196D01*
X-12384505Y30313796D01*
X-12360001Y30315000D01*
X-11459999Y30315000D01*
X-11435495Y30313796D01*
X-11435495Y30313796D01*
G37*
D11*
X-11910000Y29740000D03*
G04 #@! TD*
D10*
G04 #@! TO.C,FB1*
G36*
X-15785495Y26813796D02*
X-15761227Y26810196D01*
X-15737428Y26804235D01*
X-15714329Y26795970D01*
X-15692150Y26785480D01*
X-15671107Y26772868D01*
X-15651401Y26758253D01*
X-15633223Y26741777D01*
X-15616747Y26723599D01*
X-15602132Y26703893D01*
X-15589520Y26682850D01*
X-15579030Y26660671D01*
X-15570765Y26637572D01*
X-15564804Y26613773D01*
X-15561204Y26589505D01*
X-15560000Y26565001D01*
X-15560000Y25914999D01*
X-15561204Y25890495D01*
X-15564804Y25866227D01*
X-15570765Y25842428D01*
X-15579030Y25819329D01*
X-15589520Y25797150D01*
X-15602132Y25776107D01*
X-15616747Y25756401D01*
X-15633223Y25738223D01*
X-15651401Y25721747D01*
X-15671107Y25707132D01*
X-15692150Y25694520D01*
X-15714329Y25684030D01*
X-15737428Y25675765D01*
X-15761227Y25669804D01*
X-15785495Y25666204D01*
X-15809999Y25665000D01*
X-16710001Y25665000D01*
X-16734505Y25666204D01*
X-16758773Y25669804D01*
X-16782572Y25675765D01*
X-16805671Y25684030D01*
X-16827850Y25694520D01*
X-16848893Y25707132D01*
X-16868599Y25721747D01*
X-16886777Y25738223D01*
X-16903253Y25756401D01*
X-16917868Y25776107D01*
X-16930480Y25797150D01*
X-16940970Y25819329D01*
X-16949235Y25842428D01*
X-16955196Y25866227D01*
X-16958796Y25890495D01*
X-16960000Y25914999D01*
X-16960000Y26565001D01*
X-16958796Y26589505D01*
X-16955196Y26613773D01*
X-16949235Y26637572D01*
X-16940970Y26660671D01*
X-16930480Y26682850D01*
X-16917868Y26703893D01*
X-16903253Y26723599D01*
X-16886777Y26741777D01*
X-16868599Y26758253D01*
X-16848893Y26772868D01*
X-16827850Y26785480D01*
X-16805671Y26795970D01*
X-16782572Y26804235D01*
X-16758773Y26810196D01*
X-16734505Y26813796D01*
X-16710001Y26815000D01*
X-15809999Y26815000D01*
X-15785495Y26813796D01*
X-15785495Y26813796D01*
G37*
D11*
X-16260000Y26240000D03*
D10*
G36*
X-15785495Y24763796D02*
X-15761227Y24760196D01*
X-15737428Y24754235D01*
X-15714329Y24745970D01*
X-15692150Y24735480D01*
X-15671107Y24722868D01*
X-15651401Y24708253D01*
X-15633223Y24691777D01*
X-15616747Y24673599D01*
X-15602132Y24653893D01*
X-15589520Y24632850D01*
X-15579030Y24610671D01*
X-15570765Y24587572D01*
X-15564804Y24563773D01*
X-15561204Y24539505D01*
X-15560000Y24515001D01*
X-15560000Y23864999D01*
X-15561204Y23840495D01*
X-15564804Y23816227D01*
X-15570765Y23792428D01*
X-15579030Y23769329D01*
X-15589520Y23747150D01*
X-15602132Y23726107D01*
X-15616747Y23706401D01*
X-15633223Y23688223D01*
X-15651401Y23671747D01*
X-15671107Y23657132D01*
X-15692150Y23644520D01*
X-15714329Y23634030D01*
X-15737428Y23625765D01*
X-15761227Y23619804D01*
X-15785495Y23616204D01*
X-15809999Y23615000D01*
X-16710001Y23615000D01*
X-16734505Y23616204D01*
X-16758773Y23619804D01*
X-16782572Y23625765D01*
X-16805671Y23634030D01*
X-16827850Y23644520D01*
X-16848893Y23657132D01*
X-16868599Y23671747D01*
X-16886777Y23688223D01*
X-16903253Y23706401D01*
X-16917868Y23726107D01*
X-16930480Y23747150D01*
X-16940970Y23769329D01*
X-16949235Y23792428D01*
X-16955196Y23816227D01*
X-16958796Y23840495D01*
X-16960000Y23864999D01*
X-16960000Y24515001D01*
X-16958796Y24539505D01*
X-16955196Y24563773D01*
X-16949235Y24587572D01*
X-16940970Y24610671D01*
X-16930480Y24632850D01*
X-16917868Y24653893D01*
X-16903253Y24673599D01*
X-16886777Y24691777D01*
X-16868599Y24708253D01*
X-16848893Y24722868D01*
X-16827850Y24735480D01*
X-16805671Y24745970D01*
X-16782572Y24754235D01*
X-16758773Y24760196D01*
X-16734505Y24763796D01*
X-16710001Y24765000D01*
X-15809999Y24765000D01*
X-15785495Y24763796D01*
X-15785495Y24763796D01*
G37*
D11*
X-16260000Y24190000D03*
G04 #@! TD*
D10*
G04 #@! TO.C,R1*
G36*
X-33085495Y35838796D02*
X-33061227Y35835196D01*
X-33037428Y35829235D01*
X-33014329Y35820970D01*
X-32992150Y35810480D01*
X-32971107Y35797868D01*
X-32951401Y35783253D01*
X-32933223Y35766777D01*
X-32916747Y35748599D01*
X-32902132Y35728893D01*
X-32889520Y35707850D01*
X-32879030Y35685671D01*
X-32870765Y35662572D01*
X-32864804Y35638773D01*
X-32861204Y35614505D01*
X-32860000Y35590001D01*
X-32860000Y34939999D01*
X-32861204Y34915495D01*
X-32864804Y34891227D01*
X-32870765Y34867428D01*
X-32879030Y34844329D01*
X-32889520Y34822150D01*
X-32902132Y34801107D01*
X-32916747Y34781401D01*
X-32933223Y34763223D01*
X-32951401Y34746747D01*
X-32971107Y34732132D01*
X-32992150Y34719520D01*
X-33014329Y34709030D01*
X-33037428Y34700765D01*
X-33061227Y34694804D01*
X-33085495Y34691204D01*
X-33109999Y34690000D01*
X-34010001Y34690000D01*
X-34034505Y34691204D01*
X-34058773Y34694804D01*
X-34082572Y34700765D01*
X-34105671Y34709030D01*
X-34127850Y34719520D01*
X-34148893Y34732132D01*
X-34168599Y34746747D01*
X-34186777Y34763223D01*
X-34203253Y34781401D01*
X-34217868Y34801107D01*
X-34230480Y34822150D01*
X-34240970Y34844329D01*
X-34249235Y34867428D01*
X-34255196Y34891227D01*
X-34258796Y34915495D01*
X-34260000Y34939999D01*
X-34260000Y35590001D01*
X-34258796Y35614505D01*
X-34255196Y35638773D01*
X-34249235Y35662572D01*
X-34240970Y35685671D01*
X-34230480Y35707850D01*
X-34217868Y35728893D01*
X-34203253Y35748599D01*
X-34186777Y35766777D01*
X-34168599Y35783253D01*
X-34148893Y35797868D01*
X-34127850Y35810480D01*
X-34105671Y35820970D01*
X-34082572Y35829235D01*
X-34058773Y35835196D01*
X-34034505Y35838796D01*
X-34010001Y35840000D01*
X-33109999Y35840000D01*
X-33085495Y35838796D01*
X-33085495Y35838796D01*
G37*
D11*
X-33560000Y35265000D03*
D10*
G36*
X-33085495Y33788796D02*
X-33061227Y33785196D01*
X-33037428Y33779235D01*
X-33014329Y33770970D01*
X-32992150Y33760480D01*
X-32971107Y33747868D01*
X-32951401Y33733253D01*
X-32933223Y33716777D01*
X-32916747Y33698599D01*
X-32902132Y33678893D01*
X-32889520Y33657850D01*
X-32879030Y33635671D01*
X-32870765Y33612572D01*
X-32864804Y33588773D01*
X-32861204Y33564505D01*
X-32860000Y33540001D01*
X-32860000Y32889999D01*
X-32861204Y32865495D01*
X-32864804Y32841227D01*
X-32870765Y32817428D01*
X-32879030Y32794329D01*
X-32889520Y32772150D01*
X-32902132Y32751107D01*
X-32916747Y32731401D01*
X-32933223Y32713223D01*
X-32951401Y32696747D01*
X-32971107Y32682132D01*
X-32992150Y32669520D01*
X-33014329Y32659030D01*
X-33037428Y32650765D01*
X-33061227Y32644804D01*
X-33085495Y32641204D01*
X-33109999Y32640000D01*
X-34010001Y32640000D01*
X-34034505Y32641204D01*
X-34058773Y32644804D01*
X-34082572Y32650765D01*
X-34105671Y32659030D01*
X-34127850Y32669520D01*
X-34148893Y32682132D01*
X-34168599Y32696747D01*
X-34186777Y32713223D01*
X-34203253Y32731401D01*
X-34217868Y32751107D01*
X-34230480Y32772150D01*
X-34240970Y32794329D01*
X-34249235Y32817428D01*
X-34255196Y32841227D01*
X-34258796Y32865495D01*
X-34260000Y32889999D01*
X-34260000Y33540001D01*
X-34258796Y33564505D01*
X-34255196Y33588773D01*
X-34249235Y33612572D01*
X-34240970Y33635671D01*
X-34230480Y33657850D01*
X-34217868Y33678893D01*
X-34203253Y33698599D01*
X-34186777Y33716777D01*
X-34168599Y33733253D01*
X-34148893Y33747868D01*
X-34127850Y33760480D01*
X-34105671Y33770970D01*
X-34082572Y33779235D01*
X-34058773Y33785196D01*
X-34034505Y33788796D01*
X-34010001Y33790000D01*
X-33109999Y33790000D01*
X-33085495Y33788796D01*
X-33085495Y33788796D01*
G37*
D11*
X-33560000Y33215000D03*
G04 #@! TD*
D10*
G04 #@! TO.C,R2*
G36*
X-44535495Y36138796D02*
X-44511227Y36135196D01*
X-44487428Y36129235D01*
X-44464329Y36120970D01*
X-44442150Y36110480D01*
X-44421107Y36097868D01*
X-44401401Y36083253D01*
X-44383223Y36066777D01*
X-44366747Y36048599D01*
X-44352132Y36028893D01*
X-44339520Y36007850D01*
X-44329030Y35985671D01*
X-44320765Y35962572D01*
X-44314804Y35938773D01*
X-44311204Y35914505D01*
X-44310000Y35890001D01*
X-44310000Y35239999D01*
X-44311204Y35215495D01*
X-44314804Y35191227D01*
X-44320765Y35167428D01*
X-44329030Y35144329D01*
X-44339520Y35122150D01*
X-44352132Y35101107D01*
X-44366747Y35081401D01*
X-44383223Y35063223D01*
X-44401401Y35046747D01*
X-44421107Y35032132D01*
X-44442150Y35019520D01*
X-44464329Y35009030D01*
X-44487428Y35000765D01*
X-44511227Y34994804D01*
X-44535495Y34991204D01*
X-44559999Y34990000D01*
X-45460001Y34990000D01*
X-45484505Y34991204D01*
X-45508773Y34994804D01*
X-45532572Y35000765D01*
X-45555671Y35009030D01*
X-45577850Y35019520D01*
X-45598893Y35032132D01*
X-45618599Y35046747D01*
X-45636777Y35063223D01*
X-45653253Y35081401D01*
X-45667868Y35101107D01*
X-45680480Y35122150D01*
X-45690970Y35144329D01*
X-45699235Y35167428D01*
X-45705196Y35191227D01*
X-45708796Y35215495D01*
X-45710000Y35239999D01*
X-45710000Y35890001D01*
X-45708796Y35914505D01*
X-45705196Y35938773D01*
X-45699235Y35962572D01*
X-45690970Y35985671D01*
X-45680480Y36007850D01*
X-45667868Y36028893D01*
X-45653253Y36048599D01*
X-45636777Y36066777D01*
X-45618599Y36083253D01*
X-45598893Y36097868D01*
X-45577850Y36110480D01*
X-45555671Y36120970D01*
X-45532572Y36129235D01*
X-45508773Y36135196D01*
X-45484505Y36138796D01*
X-45460001Y36140000D01*
X-44559999Y36140000D01*
X-44535495Y36138796D01*
X-44535495Y36138796D01*
G37*
D11*
X-45010000Y35565000D03*
D10*
G36*
X-44535495Y34088796D02*
X-44511227Y34085196D01*
X-44487428Y34079235D01*
X-44464329Y34070970D01*
X-44442150Y34060480D01*
X-44421107Y34047868D01*
X-44401401Y34033253D01*
X-44383223Y34016777D01*
X-44366747Y33998599D01*
X-44352132Y33978893D01*
X-44339520Y33957850D01*
X-44329030Y33935671D01*
X-44320765Y33912572D01*
X-44314804Y33888773D01*
X-44311204Y33864505D01*
X-44310000Y33840001D01*
X-44310000Y33189999D01*
X-44311204Y33165495D01*
X-44314804Y33141227D01*
X-44320765Y33117428D01*
X-44329030Y33094329D01*
X-44339520Y33072150D01*
X-44352132Y33051107D01*
X-44366747Y33031401D01*
X-44383223Y33013223D01*
X-44401401Y32996747D01*
X-44421107Y32982132D01*
X-44442150Y32969520D01*
X-44464329Y32959030D01*
X-44487428Y32950765D01*
X-44511227Y32944804D01*
X-44535495Y32941204D01*
X-44559999Y32940000D01*
X-45460001Y32940000D01*
X-45484505Y32941204D01*
X-45508773Y32944804D01*
X-45532572Y32950765D01*
X-45555671Y32959030D01*
X-45577850Y32969520D01*
X-45598893Y32982132D01*
X-45618599Y32996747D01*
X-45636777Y33013223D01*
X-45653253Y33031401D01*
X-45667868Y33051107D01*
X-45680480Y33072150D01*
X-45690970Y33094329D01*
X-45699235Y33117428D01*
X-45705196Y33141227D01*
X-45708796Y33165495D01*
X-45710000Y33189999D01*
X-45710000Y33840001D01*
X-45708796Y33864505D01*
X-45705196Y33888773D01*
X-45699235Y33912572D01*
X-45690970Y33935671D01*
X-45680480Y33957850D01*
X-45667868Y33978893D01*
X-45653253Y33998599D01*
X-45636777Y34016777D01*
X-45618599Y34033253D01*
X-45598893Y34047868D01*
X-45577850Y34060480D01*
X-45555671Y34070970D01*
X-45532572Y34079235D01*
X-45508773Y34085196D01*
X-45484505Y34088796D01*
X-45460001Y34090000D01*
X-44559999Y34090000D01*
X-44535495Y34088796D01*
X-44535495Y34088796D01*
G37*
D11*
X-45010000Y33515000D03*
G04 #@! TD*
D10*
G04 #@! TO.C,R3*
G36*
X-19835495Y24388796D02*
X-19811227Y24385196D01*
X-19787428Y24379235D01*
X-19764329Y24370970D01*
X-19742150Y24360480D01*
X-19721107Y24347868D01*
X-19701401Y24333253D01*
X-19683223Y24316777D01*
X-19666747Y24298599D01*
X-19652132Y24278893D01*
X-19639520Y24257850D01*
X-19629030Y24235671D01*
X-19620765Y24212572D01*
X-19614804Y24188773D01*
X-19611204Y24164505D01*
X-19610000Y24140001D01*
X-19610000Y23489999D01*
X-19611204Y23465495D01*
X-19614804Y23441227D01*
X-19620765Y23417428D01*
X-19629030Y23394329D01*
X-19639520Y23372150D01*
X-19652132Y23351107D01*
X-19666747Y23331401D01*
X-19683223Y23313223D01*
X-19701401Y23296747D01*
X-19721107Y23282132D01*
X-19742150Y23269520D01*
X-19764329Y23259030D01*
X-19787428Y23250765D01*
X-19811227Y23244804D01*
X-19835495Y23241204D01*
X-19859999Y23240000D01*
X-20760001Y23240000D01*
X-20784505Y23241204D01*
X-20808773Y23244804D01*
X-20832572Y23250765D01*
X-20855671Y23259030D01*
X-20877850Y23269520D01*
X-20898893Y23282132D01*
X-20918599Y23296747D01*
X-20936777Y23313223D01*
X-20953253Y23331401D01*
X-20967868Y23351107D01*
X-20980480Y23372150D01*
X-20990970Y23394329D01*
X-20999235Y23417428D01*
X-21005196Y23441227D01*
X-21008796Y23465495D01*
X-21010000Y23489999D01*
X-21010000Y24140001D01*
X-21008796Y24164505D01*
X-21005196Y24188773D01*
X-20999235Y24212572D01*
X-20990970Y24235671D01*
X-20980480Y24257850D01*
X-20967868Y24278893D01*
X-20953253Y24298599D01*
X-20936777Y24316777D01*
X-20918599Y24333253D01*
X-20898893Y24347868D01*
X-20877850Y24360480D01*
X-20855671Y24370970D01*
X-20832572Y24379235D01*
X-20808773Y24385196D01*
X-20784505Y24388796D01*
X-20760001Y24390000D01*
X-19859999Y24390000D01*
X-19835495Y24388796D01*
X-19835495Y24388796D01*
G37*
D11*
X-20310000Y23815000D03*
D10*
G36*
X-19835495Y22338796D02*
X-19811227Y22335196D01*
X-19787428Y22329235D01*
X-19764329Y22320970D01*
X-19742150Y22310480D01*
X-19721107Y22297868D01*
X-19701401Y22283253D01*
X-19683223Y22266777D01*
X-19666747Y22248599D01*
X-19652132Y22228893D01*
X-19639520Y22207850D01*
X-19629030Y22185671D01*
X-19620765Y22162572D01*
X-19614804Y22138773D01*
X-19611204Y22114505D01*
X-19610000Y22090001D01*
X-19610000Y21439999D01*
X-19611204Y21415495D01*
X-19614804Y21391227D01*
X-19620765Y21367428D01*
X-19629030Y21344329D01*
X-19639520Y21322150D01*
X-19652132Y21301107D01*
X-19666747Y21281401D01*
X-19683223Y21263223D01*
X-19701401Y21246747D01*
X-19721107Y21232132D01*
X-19742150Y21219520D01*
X-19764329Y21209030D01*
X-19787428Y21200765D01*
X-19811227Y21194804D01*
X-19835495Y21191204D01*
X-19859999Y21190000D01*
X-20760001Y21190000D01*
X-20784505Y21191204D01*
X-20808773Y21194804D01*
X-20832572Y21200765D01*
X-20855671Y21209030D01*
X-20877850Y21219520D01*
X-20898893Y21232132D01*
X-20918599Y21246747D01*
X-20936777Y21263223D01*
X-20953253Y21281401D01*
X-20967868Y21301107D01*
X-20980480Y21322150D01*
X-20990970Y21344329D01*
X-20999235Y21367428D01*
X-21005196Y21391227D01*
X-21008796Y21415495D01*
X-21010000Y21439999D01*
X-21010000Y22090001D01*
X-21008796Y22114505D01*
X-21005196Y22138773D01*
X-20999235Y22162572D01*
X-20990970Y22185671D01*
X-20980480Y22207850D01*
X-20967868Y22228893D01*
X-20953253Y22248599D01*
X-20936777Y22266777D01*
X-20918599Y22283253D01*
X-20898893Y22297868D01*
X-20877850Y22310480D01*
X-20855671Y22320970D01*
X-20832572Y22329235D01*
X-20808773Y22335196D01*
X-20784505Y22338796D01*
X-20760001Y22340000D01*
X-19859999Y22340000D01*
X-19835495Y22338796D01*
X-19835495Y22338796D01*
G37*
D11*
X-20310000Y21765000D03*
G04 #@! TD*
D12*
G04 #@! TO.C,U1*
X-19260000Y19890000D03*
X-19260000Y17990000D03*
X-16260000Y18940000D03*
G04 #@! TD*
D13*
G04 #@! TO.C,U2*
X-32110000Y21390000D03*
X-32110000Y20890000D03*
X-32110000Y20390000D03*
X-32110000Y19890000D03*
X-32110000Y19390000D03*
X-32110000Y18890000D03*
X-32110000Y18390000D03*
X-32110000Y17890000D03*
X-32110000Y17390000D03*
X-32110000Y16890000D03*
X-32110000Y16390000D03*
X-32110000Y15890000D03*
D14*
X-30510000Y14290000D03*
X-30010000Y14290000D03*
X-29510000Y14290000D03*
X-29010000Y14290000D03*
X-28510000Y14290000D03*
X-28010000Y14290000D03*
X-27510000Y14290000D03*
X-27010000Y14290000D03*
X-26510000Y14290000D03*
X-26010000Y14290000D03*
X-25510000Y14290000D03*
X-25010000Y14290000D03*
D13*
X-23410000Y15890000D03*
X-23410000Y16390000D03*
X-23410000Y16890000D03*
X-23410000Y17390000D03*
X-23410000Y17890000D03*
X-23410000Y18390000D03*
X-23410000Y18890000D03*
X-23410000Y19390000D03*
X-23410000Y19890000D03*
X-23410000Y20390000D03*
X-23410000Y20890000D03*
X-23410000Y21390000D03*
D14*
X-25010000Y22990000D03*
X-25510000Y22990000D03*
X-26010000Y22990000D03*
X-26510000Y22990000D03*
X-27010000Y22990000D03*
X-27510000Y22990000D03*
X-28010000Y22990000D03*
X-28510000Y22990000D03*
X-29010000Y22990000D03*
X-29510000Y22990000D03*
X-30010000Y22990000D03*
X-30510000Y22990000D03*
G04 #@! TD*
D15*
G04 #@! TO.C,U3*
X-7930000Y7290000D03*
D10*
G36*
X-7555000Y6290000D02*
X-8305000Y6790000D01*
X-8305000Y7790000D01*
X-7555000Y8290000D01*
X-7555000Y6290000D01*
X-7555000Y6290000D01*
G37*
D16*
X-5580000Y7290000D03*
D17*
X-9540000Y5790000D03*
X-9540000Y7290000D03*
X-9540000Y8790000D03*
G04 #@! TD*
G04 #@! TO.C,U4*
X-8940000Y32290000D03*
X-8940000Y30790000D03*
X-8940000Y29290000D03*
D16*
X-4980000Y30790000D03*
D15*
X-7330000Y30790000D03*
D10*
G36*
X-6955000Y29790000D02*
X-7705000Y30290000D01*
X-7705000Y31290000D01*
X-6955000Y31790000D01*
X-6955000Y29790000D01*
X-6955000Y29790000D01*
G37*
G04 #@! TD*
M02*
