G04 #@! TF.GenerationSoftware,KiCad,Pcbnew,5.0.2-bee76a0~70~ubuntu18.04.1*
G04 #@! TF.CreationDate,2019-10-04T10:46:57+02:00*
G04 #@! TF.ProjectId,STM32F373_Dev_Board,53544d33-3246-4333-9733-5f4465765f42,rev?*
G04 #@! TF.SameCoordinates,PX9104060PY5859300*
G04 #@! TF.FileFunction,Soldermask,Top*
G04 #@! TF.FilePolarity,Negative*
%FSLAX46Y46*%
G04 Gerber Fmt 4.6, Leading zero omitted, Abs format (unit mm)*
G04 Created by KiCad (PCBNEW 5.0.2-bee76a0~70~ubuntu18.04.1) date Fr 04 Okt 2019 10:46:57 CEST*
%MOMM*%
%LPD*%
G01*
G04 APERTURE LIST*
%ADD10C,0.150000*%
G04 APERTURE END LIST*
D10*
X-52060000Y42640000D02*
X2940000Y42640000D01*
X-52060000Y-2360000D02*
X-52060000Y42640000D01*
X2940000Y-2360000D02*
X-52060000Y-2360000D01*
X2940000Y42640000D02*
X2940000Y-2360000D01*
G36*
X-47359000Y-901000D02*
X-49161000Y-901000D01*
X-49161000Y901000D01*
X-47359000Y901000D01*
X-47359000Y-901000D01*
X-47359000Y-901000D01*
G37*
G36*
X-7509557Y894481D02*
X-7443373Y887963D01*
X-7330147Y853616D01*
X-7273533Y836443D01*
X-7134913Y762348D01*
X-7117009Y752778D01*
X-7081271Y723448D01*
X-6979814Y640186D01*
X-6896552Y538729D01*
X-6867222Y502991D01*
X-6867221Y502989D01*
X-6783557Y346467D01*
X-6783557Y346466D01*
X-6732037Y176627D01*
X-6714641Y0D01*
X-6732037Y-176627D01*
X-6766384Y-289853D01*
X-6783557Y-346467D01*
X-6857652Y-485087D01*
X-6867222Y-502991D01*
X-6896552Y-538729D01*
X-6979814Y-640186D01*
X-7081271Y-723448D01*
X-7117009Y-752778D01*
X-7117011Y-752779D01*
X-7273533Y-836443D01*
X-7330147Y-853616D01*
X-7443373Y-887963D01*
X-7509558Y-894482D01*
X-7575740Y-901000D01*
X-7664260Y-901000D01*
X-7730443Y-894481D01*
X-7796627Y-887963D01*
X-7909853Y-853616D01*
X-7966467Y-836443D01*
X-8122989Y-752779D01*
X-8122991Y-752778D01*
X-8158729Y-723448D01*
X-8260186Y-640186D01*
X-8343448Y-538729D01*
X-8372778Y-502991D01*
X-8382348Y-485087D01*
X-8456443Y-346467D01*
X-8473616Y-289853D01*
X-8507963Y-176627D01*
X-8525359Y0D01*
X-8507963Y176627D01*
X-8456443Y346466D01*
X-8456443Y346467D01*
X-8372779Y502989D01*
X-8372778Y502991D01*
X-8343448Y538729D01*
X-8260186Y640186D01*
X-8158729Y723448D01*
X-8122991Y752778D01*
X-8105087Y762348D01*
X-7966467Y836443D01*
X-7909853Y853616D01*
X-7796627Y887963D01*
X-7730443Y894481D01*
X-7664260Y901000D01*
X-7575740Y901000D01*
X-7509557Y894481D01*
X-7509557Y894481D01*
G37*
G36*
X-30369557Y894481D02*
X-30303373Y887963D01*
X-30190147Y853616D01*
X-30133533Y836443D01*
X-29994913Y762348D01*
X-29977009Y752778D01*
X-29941271Y723448D01*
X-29839814Y640186D01*
X-29756552Y538729D01*
X-29727222Y502991D01*
X-29727221Y502989D01*
X-29643557Y346467D01*
X-29643557Y346466D01*
X-29592037Y176627D01*
X-29574641Y0D01*
X-29592037Y-176627D01*
X-29626384Y-289853D01*
X-29643557Y-346467D01*
X-29717652Y-485087D01*
X-29727222Y-502991D01*
X-29756552Y-538729D01*
X-29839814Y-640186D01*
X-29941271Y-723448D01*
X-29977009Y-752778D01*
X-29977011Y-752779D01*
X-30133533Y-836443D01*
X-30190147Y-853616D01*
X-30303373Y-887963D01*
X-30369557Y-894481D01*
X-30435740Y-901000D01*
X-30524260Y-901000D01*
X-30590443Y-894481D01*
X-30656627Y-887963D01*
X-30769853Y-853616D01*
X-30826467Y-836443D01*
X-30982989Y-752779D01*
X-30982991Y-752778D01*
X-31018729Y-723448D01*
X-31120186Y-640186D01*
X-31203448Y-538729D01*
X-31232778Y-502991D01*
X-31242348Y-485087D01*
X-31316443Y-346467D01*
X-31333616Y-289853D01*
X-31367963Y-176627D01*
X-31385359Y0D01*
X-31367963Y176627D01*
X-31316443Y346466D01*
X-31316443Y346467D01*
X-31232779Y502989D01*
X-31232778Y502991D01*
X-31203448Y538729D01*
X-31120186Y640186D01*
X-31018729Y723448D01*
X-30982991Y752778D01*
X-30965087Y762348D01*
X-30826467Y836443D01*
X-30769853Y853616D01*
X-30656627Y887963D01*
X-30590443Y894481D01*
X-30524260Y901000D01*
X-30435740Y901000D01*
X-30369557Y894481D01*
X-30369557Y894481D01*
G37*
G36*
X-27829557Y894481D02*
X-27763373Y887963D01*
X-27650147Y853616D01*
X-27593533Y836443D01*
X-27454913Y762348D01*
X-27437009Y752778D01*
X-27401271Y723448D01*
X-27299814Y640186D01*
X-27216552Y538729D01*
X-27187222Y502991D01*
X-27187221Y502989D01*
X-27103557Y346467D01*
X-27103557Y346466D01*
X-27052037Y176627D01*
X-27034641Y0D01*
X-27052037Y-176627D01*
X-27086384Y-289853D01*
X-27103557Y-346467D01*
X-27177652Y-485087D01*
X-27187222Y-502991D01*
X-27216552Y-538729D01*
X-27299814Y-640186D01*
X-27401271Y-723448D01*
X-27437009Y-752778D01*
X-27437011Y-752779D01*
X-27593533Y-836443D01*
X-27650147Y-853616D01*
X-27763373Y-887963D01*
X-27829558Y-894482D01*
X-27895740Y-901000D01*
X-27984260Y-901000D01*
X-28050443Y-894481D01*
X-28116627Y-887963D01*
X-28229853Y-853616D01*
X-28286467Y-836443D01*
X-28442989Y-752779D01*
X-28442991Y-752778D01*
X-28478729Y-723448D01*
X-28580186Y-640186D01*
X-28663448Y-538729D01*
X-28692778Y-502991D01*
X-28702348Y-485087D01*
X-28776443Y-346467D01*
X-28793616Y-289853D01*
X-28827963Y-176627D01*
X-28845359Y0D01*
X-28827963Y176627D01*
X-28776443Y346466D01*
X-28776443Y346467D01*
X-28692779Y502989D01*
X-28692778Y502991D01*
X-28663448Y538729D01*
X-28580186Y640186D01*
X-28478729Y723448D01*
X-28442991Y752778D01*
X-28425087Y762348D01*
X-28286467Y836443D01*
X-28229853Y853616D01*
X-28116627Y887963D01*
X-28050443Y894481D01*
X-27984260Y901000D01*
X-27895740Y901000D01*
X-27829557Y894481D01*
X-27829557Y894481D01*
G37*
G36*
X-25289557Y894481D02*
X-25223373Y887963D01*
X-25110147Y853616D01*
X-25053533Y836443D01*
X-24914913Y762348D01*
X-24897009Y752778D01*
X-24861271Y723448D01*
X-24759814Y640186D01*
X-24676552Y538729D01*
X-24647222Y502991D01*
X-24647221Y502989D01*
X-24563557Y346467D01*
X-24563557Y346466D01*
X-24512037Y176627D01*
X-24494641Y0D01*
X-24512037Y-176627D01*
X-24546384Y-289853D01*
X-24563557Y-346467D01*
X-24637652Y-485087D01*
X-24647222Y-502991D01*
X-24676552Y-538729D01*
X-24759814Y-640186D01*
X-24861271Y-723448D01*
X-24897009Y-752778D01*
X-24897011Y-752779D01*
X-25053533Y-836443D01*
X-25110147Y-853616D01*
X-25223373Y-887963D01*
X-25289558Y-894482D01*
X-25355740Y-901000D01*
X-25444260Y-901000D01*
X-25510443Y-894481D01*
X-25576627Y-887963D01*
X-25689853Y-853616D01*
X-25746467Y-836443D01*
X-25902989Y-752779D01*
X-25902991Y-752778D01*
X-25938729Y-723448D01*
X-26040186Y-640186D01*
X-26123448Y-538729D01*
X-26152778Y-502991D01*
X-26162348Y-485087D01*
X-26236443Y-346467D01*
X-26253616Y-289853D01*
X-26287963Y-176627D01*
X-26305359Y0D01*
X-26287963Y176627D01*
X-26236443Y346466D01*
X-26236443Y346467D01*
X-26152779Y502989D01*
X-26152778Y502991D01*
X-26123448Y538729D01*
X-26040186Y640186D01*
X-25938729Y723448D01*
X-25902991Y752778D01*
X-25885087Y762348D01*
X-25746467Y836443D01*
X-25689853Y853616D01*
X-25576627Y887963D01*
X-25510443Y894481D01*
X-25444260Y901000D01*
X-25355740Y901000D01*
X-25289557Y894481D01*
X-25289557Y894481D01*
G37*
G36*
X-22749557Y894481D02*
X-22683373Y887963D01*
X-22570147Y853616D01*
X-22513533Y836443D01*
X-22374913Y762348D01*
X-22357009Y752778D01*
X-22321271Y723448D01*
X-22219814Y640186D01*
X-22136552Y538729D01*
X-22107222Y502991D01*
X-22107221Y502989D01*
X-22023557Y346467D01*
X-22023557Y346466D01*
X-21972037Y176627D01*
X-21954641Y0D01*
X-21972037Y-176627D01*
X-22006384Y-289853D01*
X-22023557Y-346467D01*
X-22097652Y-485087D01*
X-22107222Y-502991D01*
X-22136552Y-538729D01*
X-22219814Y-640186D01*
X-22321271Y-723448D01*
X-22357009Y-752778D01*
X-22357011Y-752779D01*
X-22513533Y-836443D01*
X-22570147Y-853616D01*
X-22683373Y-887963D01*
X-22749558Y-894482D01*
X-22815740Y-901000D01*
X-22904260Y-901000D01*
X-22970443Y-894481D01*
X-23036627Y-887963D01*
X-23149853Y-853616D01*
X-23206467Y-836443D01*
X-23362989Y-752779D01*
X-23362991Y-752778D01*
X-23398729Y-723448D01*
X-23500186Y-640186D01*
X-23583448Y-538729D01*
X-23612778Y-502991D01*
X-23622348Y-485087D01*
X-23696443Y-346467D01*
X-23713616Y-289853D01*
X-23747963Y-176627D01*
X-23765359Y0D01*
X-23747963Y176627D01*
X-23696443Y346466D01*
X-23696443Y346467D01*
X-23612779Y502989D01*
X-23612778Y502991D01*
X-23583448Y538729D01*
X-23500186Y640186D01*
X-23398729Y723448D01*
X-23362991Y752778D01*
X-23345087Y762348D01*
X-23206467Y836443D01*
X-23149853Y853616D01*
X-23036627Y887963D01*
X-22970443Y894481D01*
X-22904260Y901000D01*
X-22815740Y901000D01*
X-22749557Y894481D01*
X-22749557Y894481D01*
G37*
G36*
X-20209557Y894481D02*
X-20143373Y887963D01*
X-20030147Y853616D01*
X-19973533Y836443D01*
X-19834913Y762348D01*
X-19817009Y752778D01*
X-19781271Y723448D01*
X-19679814Y640186D01*
X-19596552Y538729D01*
X-19567222Y502991D01*
X-19567221Y502989D01*
X-19483557Y346467D01*
X-19483557Y346466D01*
X-19432037Y176627D01*
X-19414641Y0D01*
X-19432037Y-176627D01*
X-19466384Y-289853D01*
X-19483557Y-346467D01*
X-19557652Y-485087D01*
X-19567222Y-502991D01*
X-19596552Y-538729D01*
X-19679814Y-640186D01*
X-19781271Y-723448D01*
X-19817009Y-752778D01*
X-19817011Y-752779D01*
X-19973533Y-836443D01*
X-20030147Y-853616D01*
X-20143373Y-887963D01*
X-20209558Y-894482D01*
X-20275740Y-901000D01*
X-20364260Y-901000D01*
X-20430443Y-894481D01*
X-20496627Y-887963D01*
X-20609853Y-853616D01*
X-20666467Y-836443D01*
X-20822989Y-752779D01*
X-20822991Y-752778D01*
X-20858729Y-723448D01*
X-20960186Y-640186D01*
X-21043448Y-538729D01*
X-21072778Y-502991D01*
X-21082348Y-485087D01*
X-21156443Y-346467D01*
X-21173616Y-289853D01*
X-21207963Y-176627D01*
X-21225359Y0D01*
X-21207963Y176627D01*
X-21156443Y346466D01*
X-21156443Y346467D01*
X-21072779Y502989D01*
X-21072778Y502991D01*
X-21043448Y538729D01*
X-20960186Y640186D01*
X-20858729Y723448D01*
X-20822991Y752778D01*
X-20805087Y762348D01*
X-20666467Y836443D01*
X-20609853Y853616D01*
X-20496627Y887963D01*
X-20430443Y894481D01*
X-20364260Y901000D01*
X-20275740Y901000D01*
X-20209557Y894481D01*
X-20209557Y894481D01*
G37*
G36*
X-17669557Y894481D02*
X-17603373Y887963D01*
X-17490147Y853616D01*
X-17433533Y836443D01*
X-17294913Y762348D01*
X-17277009Y752778D01*
X-17241271Y723448D01*
X-17139814Y640186D01*
X-17056552Y538729D01*
X-17027222Y502991D01*
X-17027221Y502989D01*
X-16943557Y346467D01*
X-16943557Y346466D01*
X-16892037Y176627D01*
X-16874641Y0D01*
X-16892037Y-176627D01*
X-16926384Y-289853D01*
X-16943557Y-346467D01*
X-17017652Y-485087D01*
X-17027222Y-502991D01*
X-17056552Y-538729D01*
X-17139814Y-640186D01*
X-17241271Y-723448D01*
X-17277009Y-752778D01*
X-17277011Y-752779D01*
X-17433533Y-836443D01*
X-17490147Y-853616D01*
X-17603373Y-887963D01*
X-17669558Y-894482D01*
X-17735740Y-901000D01*
X-17824260Y-901000D01*
X-17890443Y-894481D01*
X-17956627Y-887963D01*
X-18069853Y-853616D01*
X-18126467Y-836443D01*
X-18282989Y-752779D01*
X-18282991Y-752778D01*
X-18318729Y-723448D01*
X-18420186Y-640186D01*
X-18503448Y-538729D01*
X-18532778Y-502991D01*
X-18542348Y-485087D01*
X-18616443Y-346467D01*
X-18633616Y-289853D01*
X-18667963Y-176627D01*
X-18685359Y0D01*
X-18667963Y176627D01*
X-18616443Y346466D01*
X-18616443Y346467D01*
X-18532779Y502989D01*
X-18532778Y502991D01*
X-18503448Y538729D01*
X-18420186Y640186D01*
X-18318729Y723448D01*
X-18282991Y752778D01*
X-18265087Y762348D01*
X-18126467Y836443D01*
X-18069853Y853616D01*
X-17956627Y887963D01*
X-17890443Y894481D01*
X-17824260Y901000D01*
X-17735740Y901000D01*
X-17669557Y894481D01*
X-17669557Y894481D01*
G37*
G36*
X-15129557Y894481D02*
X-15063373Y887963D01*
X-14950147Y853616D01*
X-14893533Y836443D01*
X-14754913Y762348D01*
X-14737009Y752778D01*
X-14701271Y723448D01*
X-14599814Y640186D01*
X-14516552Y538729D01*
X-14487222Y502991D01*
X-14487221Y502989D01*
X-14403557Y346467D01*
X-14403557Y346466D01*
X-14352037Y176627D01*
X-14334641Y0D01*
X-14352037Y-176627D01*
X-14386384Y-289853D01*
X-14403557Y-346467D01*
X-14477652Y-485087D01*
X-14487222Y-502991D01*
X-14516552Y-538729D01*
X-14599814Y-640186D01*
X-14701271Y-723448D01*
X-14737009Y-752778D01*
X-14737011Y-752779D01*
X-14893533Y-836443D01*
X-14950147Y-853616D01*
X-15063373Y-887963D01*
X-15129558Y-894482D01*
X-15195740Y-901000D01*
X-15284260Y-901000D01*
X-15350443Y-894481D01*
X-15416627Y-887963D01*
X-15529853Y-853616D01*
X-15586467Y-836443D01*
X-15742989Y-752779D01*
X-15742991Y-752778D01*
X-15778729Y-723448D01*
X-15880186Y-640186D01*
X-15963448Y-538729D01*
X-15992778Y-502991D01*
X-16002348Y-485087D01*
X-16076443Y-346467D01*
X-16093616Y-289853D01*
X-16127963Y-176627D01*
X-16145359Y0D01*
X-16127963Y176627D01*
X-16076443Y346466D01*
X-16076443Y346467D01*
X-15992779Y502989D01*
X-15992778Y502991D01*
X-15963448Y538729D01*
X-15880186Y640186D01*
X-15778729Y723448D01*
X-15742991Y752778D01*
X-15725087Y762348D01*
X-15586467Y836443D01*
X-15529853Y853616D01*
X-15416627Y887963D01*
X-15350443Y894481D01*
X-15284260Y901000D01*
X-15195740Y901000D01*
X-15129557Y894481D01*
X-15129557Y894481D01*
G37*
G36*
X-12589557Y894481D02*
X-12523373Y887963D01*
X-12410147Y853616D01*
X-12353533Y836443D01*
X-12214913Y762348D01*
X-12197009Y752778D01*
X-12161271Y723448D01*
X-12059814Y640186D01*
X-11976552Y538729D01*
X-11947222Y502991D01*
X-11947221Y502989D01*
X-11863557Y346467D01*
X-11863557Y346466D01*
X-11812037Y176627D01*
X-11794641Y0D01*
X-11812037Y-176627D01*
X-11846384Y-289853D01*
X-11863557Y-346467D01*
X-11937652Y-485087D01*
X-11947222Y-502991D01*
X-11976552Y-538729D01*
X-12059814Y-640186D01*
X-12161271Y-723448D01*
X-12197009Y-752778D01*
X-12197011Y-752779D01*
X-12353533Y-836443D01*
X-12410147Y-853616D01*
X-12523373Y-887963D01*
X-12589558Y-894482D01*
X-12655740Y-901000D01*
X-12744260Y-901000D01*
X-12810443Y-894481D01*
X-12876627Y-887963D01*
X-12989853Y-853616D01*
X-13046467Y-836443D01*
X-13202989Y-752779D01*
X-13202991Y-752778D01*
X-13238729Y-723448D01*
X-13340186Y-640186D01*
X-13423448Y-538729D01*
X-13452778Y-502991D01*
X-13462348Y-485087D01*
X-13536443Y-346467D01*
X-13553616Y-289853D01*
X-13587963Y-176627D01*
X-13605359Y0D01*
X-13587963Y176627D01*
X-13536443Y346466D01*
X-13536443Y346467D01*
X-13452779Y502989D01*
X-13452778Y502991D01*
X-13423448Y538729D01*
X-13340186Y640186D01*
X-13238729Y723448D01*
X-13202991Y752778D01*
X-13185087Y762348D01*
X-13046467Y836443D01*
X-12989853Y853616D01*
X-12876627Y887963D01*
X-12810443Y894481D01*
X-12744260Y901000D01*
X-12655740Y901000D01*
X-12589557Y894481D01*
X-12589557Y894481D01*
G37*
G36*
X-10049557Y894481D02*
X-9983373Y887963D01*
X-9870147Y853616D01*
X-9813533Y836443D01*
X-9674913Y762348D01*
X-9657009Y752778D01*
X-9621271Y723448D01*
X-9519814Y640186D01*
X-9436552Y538729D01*
X-9407222Y502991D01*
X-9407221Y502989D01*
X-9323557Y346467D01*
X-9323557Y346466D01*
X-9272037Y176627D01*
X-9254641Y0D01*
X-9272037Y-176627D01*
X-9306384Y-289853D01*
X-9323557Y-346467D01*
X-9397652Y-485087D01*
X-9407222Y-502991D01*
X-9436552Y-538729D01*
X-9519814Y-640186D01*
X-9621271Y-723448D01*
X-9657009Y-752778D01*
X-9657011Y-752779D01*
X-9813533Y-836443D01*
X-9870147Y-853616D01*
X-9983373Y-887963D01*
X-10049558Y-894482D01*
X-10115740Y-901000D01*
X-10204260Y-901000D01*
X-10270443Y-894481D01*
X-10336627Y-887963D01*
X-10449853Y-853616D01*
X-10506467Y-836443D01*
X-10662989Y-752779D01*
X-10662991Y-752778D01*
X-10698729Y-723448D01*
X-10800186Y-640186D01*
X-10883448Y-538729D01*
X-10912778Y-502991D01*
X-10922348Y-485087D01*
X-10996443Y-346467D01*
X-11013616Y-289853D01*
X-11047963Y-176627D01*
X-11065359Y0D01*
X-11047963Y176627D01*
X-10996443Y346466D01*
X-10996443Y346467D01*
X-10912779Y502989D01*
X-10912778Y502991D01*
X-10883448Y538729D01*
X-10800186Y640186D01*
X-10698729Y723448D01*
X-10662991Y752778D01*
X-10645087Y762348D01*
X-10506467Y836443D01*
X-10449853Y853616D01*
X-10336627Y887963D01*
X-10270443Y894481D01*
X-10204260Y901000D01*
X-10115740Y901000D01*
X-10049557Y894481D01*
X-10049557Y894481D01*
G37*
G36*
X-2429557Y894481D02*
X-2363373Y887963D01*
X-2250147Y853616D01*
X-2193533Y836443D01*
X-2054913Y762348D01*
X-2037009Y752778D01*
X-2001271Y723448D01*
X-1899814Y640186D01*
X-1816552Y538729D01*
X-1787222Y502991D01*
X-1787221Y502989D01*
X-1703557Y346467D01*
X-1703557Y346466D01*
X-1652037Y176627D01*
X-1634641Y0D01*
X-1652037Y-176627D01*
X-1686384Y-289853D01*
X-1703557Y-346467D01*
X-1777652Y-485087D01*
X-1787222Y-502991D01*
X-1816552Y-538729D01*
X-1899814Y-640186D01*
X-2001271Y-723448D01*
X-2037009Y-752778D01*
X-2037011Y-752779D01*
X-2193533Y-836443D01*
X-2250147Y-853616D01*
X-2363373Y-887963D01*
X-2429558Y-894482D01*
X-2495740Y-901000D01*
X-2584260Y-901000D01*
X-2650443Y-894481D01*
X-2716627Y-887963D01*
X-2829853Y-853616D01*
X-2886467Y-836443D01*
X-3042989Y-752779D01*
X-3042991Y-752778D01*
X-3078729Y-723448D01*
X-3180186Y-640186D01*
X-3263448Y-538729D01*
X-3292778Y-502991D01*
X-3302348Y-485087D01*
X-3376443Y-346467D01*
X-3393616Y-289853D01*
X-3427963Y-176627D01*
X-3445359Y0D01*
X-3427963Y176627D01*
X-3376443Y346466D01*
X-3376443Y346467D01*
X-3292779Y502989D01*
X-3292778Y502991D01*
X-3263448Y538729D01*
X-3180186Y640186D01*
X-3078729Y723448D01*
X-3042991Y752778D01*
X-3025087Y762348D01*
X-2886467Y836443D01*
X-2829853Y853616D01*
X-2716627Y887963D01*
X-2650443Y894481D01*
X-2584260Y901000D01*
X-2495740Y901000D01*
X-2429557Y894481D01*
X-2429557Y894481D01*
G37*
G36*
X-4969557Y894481D02*
X-4903373Y887963D01*
X-4790147Y853616D01*
X-4733533Y836443D01*
X-4594913Y762348D01*
X-4577009Y752778D01*
X-4541271Y723448D01*
X-4439814Y640186D01*
X-4356552Y538729D01*
X-4327222Y502991D01*
X-4327221Y502989D01*
X-4243557Y346467D01*
X-4243557Y346466D01*
X-4192037Y176627D01*
X-4174641Y0D01*
X-4192037Y-176627D01*
X-4226384Y-289853D01*
X-4243557Y-346467D01*
X-4317652Y-485087D01*
X-4327222Y-502991D01*
X-4356552Y-538729D01*
X-4439814Y-640186D01*
X-4541271Y-723448D01*
X-4577009Y-752778D01*
X-4577011Y-752779D01*
X-4733533Y-836443D01*
X-4790147Y-853616D01*
X-4903373Y-887963D01*
X-4969558Y-894482D01*
X-5035740Y-901000D01*
X-5124260Y-901000D01*
X-5190443Y-894481D01*
X-5256627Y-887963D01*
X-5369853Y-853616D01*
X-5426467Y-836443D01*
X-5582989Y-752779D01*
X-5582991Y-752778D01*
X-5618729Y-723448D01*
X-5720186Y-640186D01*
X-5803448Y-538729D01*
X-5832778Y-502991D01*
X-5842348Y-485087D01*
X-5916443Y-346467D01*
X-5933616Y-289853D01*
X-5967963Y-176627D01*
X-5985359Y0D01*
X-5967963Y176627D01*
X-5916443Y346466D01*
X-5916443Y346467D01*
X-5832779Y502989D01*
X-5832778Y502991D01*
X-5803448Y538729D01*
X-5720186Y640186D01*
X-5618729Y723448D01*
X-5582991Y752778D01*
X-5565087Y762348D01*
X-5426467Y836443D01*
X-5369853Y853616D01*
X-5256627Y887963D01*
X-5190443Y894481D01*
X-5124260Y901000D01*
X-5035740Y901000D01*
X-4969557Y894481D01*
X-4969557Y894481D01*
G37*
G36*
X-45609557Y894481D02*
X-45543373Y887963D01*
X-45430147Y853616D01*
X-45373533Y836443D01*
X-45234913Y762348D01*
X-45217009Y752778D01*
X-45181271Y723448D01*
X-45079814Y640186D01*
X-44996552Y538729D01*
X-44967222Y502991D01*
X-44967221Y502989D01*
X-44883557Y346467D01*
X-44883557Y346466D01*
X-44832037Y176627D01*
X-44814641Y0D01*
X-44832037Y-176627D01*
X-44866384Y-289853D01*
X-44883557Y-346467D01*
X-44957652Y-485087D01*
X-44967222Y-502991D01*
X-44996552Y-538729D01*
X-45079814Y-640186D01*
X-45181271Y-723448D01*
X-45217009Y-752778D01*
X-45217011Y-752779D01*
X-45373533Y-836443D01*
X-45430147Y-853616D01*
X-45543373Y-887963D01*
X-45609557Y-894481D01*
X-45675740Y-901000D01*
X-45764260Y-901000D01*
X-45830443Y-894481D01*
X-45896627Y-887963D01*
X-46009853Y-853616D01*
X-46066467Y-836443D01*
X-46222989Y-752779D01*
X-46222991Y-752778D01*
X-46258729Y-723448D01*
X-46360186Y-640186D01*
X-46443448Y-538729D01*
X-46472778Y-502991D01*
X-46482348Y-485087D01*
X-46556443Y-346467D01*
X-46573616Y-289853D01*
X-46607963Y-176627D01*
X-46625359Y0D01*
X-46607963Y176627D01*
X-46556443Y346466D01*
X-46556443Y346467D01*
X-46472779Y502989D01*
X-46472778Y502991D01*
X-46443448Y538729D01*
X-46360186Y640186D01*
X-46258729Y723448D01*
X-46222991Y752778D01*
X-46205087Y762348D01*
X-46066467Y836443D01*
X-46009853Y853616D01*
X-45896627Y887963D01*
X-45830443Y894481D01*
X-45764260Y901000D01*
X-45675740Y901000D01*
X-45609557Y894481D01*
X-45609557Y894481D01*
G37*
G36*
X-43069557Y894481D02*
X-43003373Y887963D01*
X-42890147Y853616D01*
X-42833533Y836443D01*
X-42694913Y762348D01*
X-42677009Y752778D01*
X-42641271Y723448D01*
X-42539814Y640186D01*
X-42456552Y538729D01*
X-42427222Y502991D01*
X-42427221Y502989D01*
X-42343557Y346467D01*
X-42343557Y346466D01*
X-42292037Y176627D01*
X-42274641Y0D01*
X-42292037Y-176627D01*
X-42326384Y-289853D01*
X-42343557Y-346467D01*
X-42417652Y-485087D01*
X-42427222Y-502991D01*
X-42456552Y-538729D01*
X-42539814Y-640186D01*
X-42641271Y-723448D01*
X-42677009Y-752778D01*
X-42677011Y-752779D01*
X-42833533Y-836443D01*
X-42890147Y-853616D01*
X-43003373Y-887963D01*
X-43069557Y-894481D01*
X-43135740Y-901000D01*
X-43224260Y-901000D01*
X-43290443Y-894481D01*
X-43356627Y-887963D01*
X-43469853Y-853616D01*
X-43526467Y-836443D01*
X-43682989Y-752779D01*
X-43682991Y-752778D01*
X-43718729Y-723448D01*
X-43820186Y-640186D01*
X-43903448Y-538729D01*
X-43932778Y-502991D01*
X-43942348Y-485087D01*
X-44016443Y-346467D01*
X-44033616Y-289853D01*
X-44067963Y-176627D01*
X-44085359Y0D01*
X-44067963Y176627D01*
X-44016443Y346466D01*
X-44016443Y346467D01*
X-43932779Y502989D01*
X-43932778Y502991D01*
X-43903448Y538729D01*
X-43820186Y640186D01*
X-43718729Y723448D01*
X-43682991Y752778D01*
X-43665087Y762348D01*
X-43526467Y836443D01*
X-43469853Y853616D01*
X-43356627Y887963D01*
X-43290443Y894481D01*
X-43224260Y901000D01*
X-43135740Y901000D01*
X-43069557Y894481D01*
X-43069557Y894481D01*
G37*
G36*
X-40529557Y894481D02*
X-40463373Y887963D01*
X-40350147Y853616D01*
X-40293533Y836443D01*
X-40154913Y762348D01*
X-40137009Y752778D01*
X-40101271Y723448D01*
X-39999814Y640186D01*
X-39916552Y538729D01*
X-39887222Y502991D01*
X-39887221Y502989D01*
X-39803557Y346467D01*
X-39803557Y346466D01*
X-39752037Y176627D01*
X-39734641Y0D01*
X-39752037Y-176627D01*
X-39786384Y-289853D01*
X-39803557Y-346467D01*
X-39877652Y-485087D01*
X-39887222Y-502991D01*
X-39916552Y-538729D01*
X-39999814Y-640186D01*
X-40101271Y-723448D01*
X-40137009Y-752778D01*
X-40137011Y-752779D01*
X-40293533Y-836443D01*
X-40350147Y-853616D01*
X-40463373Y-887963D01*
X-40529557Y-894481D01*
X-40595740Y-901000D01*
X-40684260Y-901000D01*
X-40750443Y-894481D01*
X-40816627Y-887963D01*
X-40929853Y-853616D01*
X-40986467Y-836443D01*
X-41142989Y-752779D01*
X-41142991Y-752778D01*
X-41178729Y-723448D01*
X-41280186Y-640186D01*
X-41363448Y-538729D01*
X-41392778Y-502991D01*
X-41402348Y-485087D01*
X-41476443Y-346467D01*
X-41493616Y-289853D01*
X-41527963Y-176627D01*
X-41545359Y0D01*
X-41527963Y176627D01*
X-41476443Y346466D01*
X-41476443Y346467D01*
X-41392779Y502989D01*
X-41392778Y502991D01*
X-41363448Y538729D01*
X-41280186Y640186D01*
X-41178729Y723448D01*
X-41142991Y752778D01*
X-41125087Y762348D01*
X-40986467Y836443D01*
X-40929853Y853616D01*
X-40816627Y887963D01*
X-40750443Y894481D01*
X-40684260Y901000D01*
X-40595740Y901000D01*
X-40529557Y894481D01*
X-40529557Y894481D01*
G37*
G36*
X-35449557Y894481D02*
X-35383373Y887963D01*
X-35270147Y853616D01*
X-35213533Y836443D01*
X-35074913Y762348D01*
X-35057009Y752778D01*
X-35021271Y723448D01*
X-34919814Y640186D01*
X-34836552Y538729D01*
X-34807222Y502991D01*
X-34807221Y502989D01*
X-34723557Y346467D01*
X-34723557Y346466D01*
X-34672037Y176627D01*
X-34654641Y0D01*
X-34672037Y-176627D01*
X-34706384Y-289853D01*
X-34723557Y-346467D01*
X-34797652Y-485087D01*
X-34807222Y-502991D01*
X-34836552Y-538729D01*
X-34919814Y-640186D01*
X-35021271Y-723448D01*
X-35057009Y-752778D01*
X-35057011Y-752779D01*
X-35213533Y-836443D01*
X-35270147Y-853616D01*
X-35383373Y-887963D01*
X-35449557Y-894481D01*
X-35515740Y-901000D01*
X-35604260Y-901000D01*
X-35670443Y-894481D01*
X-35736627Y-887963D01*
X-35849853Y-853616D01*
X-35906467Y-836443D01*
X-36062989Y-752779D01*
X-36062991Y-752778D01*
X-36098729Y-723448D01*
X-36200186Y-640186D01*
X-36283448Y-538729D01*
X-36312778Y-502991D01*
X-36322348Y-485087D01*
X-36396443Y-346467D01*
X-36413616Y-289853D01*
X-36447963Y-176627D01*
X-36465359Y0D01*
X-36447963Y176627D01*
X-36396443Y346466D01*
X-36396443Y346467D01*
X-36312779Y502989D01*
X-36312778Y502991D01*
X-36283448Y538729D01*
X-36200186Y640186D01*
X-36098729Y723448D01*
X-36062991Y752778D01*
X-36045087Y762348D01*
X-35906467Y836443D01*
X-35849853Y853616D01*
X-35736627Y887963D01*
X-35670443Y894481D01*
X-35604260Y901000D01*
X-35515740Y901000D01*
X-35449557Y894481D01*
X-35449557Y894481D01*
G37*
G36*
X-32909557Y894481D02*
X-32843373Y887963D01*
X-32730147Y853616D01*
X-32673533Y836443D01*
X-32534913Y762348D01*
X-32517009Y752778D01*
X-32481271Y723448D01*
X-32379814Y640186D01*
X-32296552Y538729D01*
X-32267222Y502991D01*
X-32267221Y502989D01*
X-32183557Y346467D01*
X-32183557Y346466D01*
X-32132037Y176627D01*
X-32114641Y0D01*
X-32132037Y-176627D01*
X-32166384Y-289853D01*
X-32183557Y-346467D01*
X-32257652Y-485087D01*
X-32267222Y-502991D01*
X-32296552Y-538729D01*
X-32379814Y-640186D01*
X-32481271Y-723448D01*
X-32517009Y-752778D01*
X-32517011Y-752779D01*
X-32673533Y-836443D01*
X-32730147Y-853616D01*
X-32843373Y-887963D01*
X-32909557Y-894481D01*
X-32975740Y-901000D01*
X-33064260Y-901000D01*
X-33130443Y-894481D01*
X-33196627Y-887963D01*
X-33309853Y-853616D01*
X-33366467Y-836443D01*
X-33522989Y-752779D01*
X-33522991Y-752778D01*
X-33558729Y-723448D01*
X-33660186Y-640186D01*
X-33743448Y-538729D01*
X-33772778Y-502991D01*
X-33782348Y-485087D01*
X-33856443Y-346467D01*
X-33873616Y-289853D01*
X-33907963Y-176627D01*
X-33925359Y0D01*
X-33907963Y176627D01*
X-33856443Y346466D01*
X-33856443Y346467D01*
X-33772779Y502989D01*
X-33772778Y502991D01*
X-33743448Y538729D01*
X-33660186Y640186D01*
X-33558729Y723448D01*
X-33522991Y752778D01*
X-33505087Y762348D01*
X-33366467Y836443D01*
X-33309853Y853616D01*
X-33196627Y887963D01*
X-33130443Y894481D01*
X-33064260Y901000D01*
X-32975740Y901000D01*
X-32909557Y894481D01*
X-32909557Y894481D01*
G37*
G36*
X110443Y894481D02*
X176627Y887963D01*
X289853Y853616D01*
X346467Y836443D01*
X485087Y762348D01*
X502991Y752778D01*
X538729Y723448D01*
X640186Y640186D01*
X723448Y538729D01*
X752778Y502991D01*
X752779Y502989D01*
X836443Y346467D01*
X836443Y346466D01*
X887963Y176627D01*
X905359Y0D01*
X887963Y-176627D01*
X853616Y-289853D01*
X836443Y-346467D01*
X762348Y-485087D01*
X752778Y-502991D01*
X723448Y-538729D01*
X640186Y-640186D01*
X538729Y-723448D01*
X502991Y-752778D01*
X502989Y-752779D01*
X346467Y-836443D01*
X289853Y-853616D01*
X176627Y-887963D01*
X110442Y-894482D01*
X44260Y-901000D01*
X-44260Y-901000D01*
X-110443Y-894481D01*
X-176627Y-887963D01*
X-289853Y-853616D01*
X-346467Y-836443D01*
X-502989Y-752779D01*
X-502991Y-752778D01*
X-538729Y-723448D01*
X-640186Y-640186D01*
X-723448Y-538729D01*
X-752778Y-502991D01*
X-762348Y-485087D01*
X-836443Y-346467D01*
X-853616Y-289853D01*
X-887963Y-176627D01*
X-905359Y0D01*
X-887963Y176627D01*
X-836443Y346466D01*
X-836443Y346467D01*
X-752779Y502989D01*
X-752778Y502991D01*
X-723448Y538729D01*
X-640186Y640186D01*
X-538729Y723448D01*
X-502991Y752778D01*
X-485087Y762348D01*
X-346467Y836443D01*
X-289853Y853616D01*
X-176627Y887963D01*
X-110443Y894481D01*
X-44260Y901000D01*
X44260Y901000D01*
X110443Y894481D01*
X110443Y894481D01*
G37*
G36*
X-37989557Y894481D02*
X-37923373Y887963D01*
X-37810147Y853616D01*
X-37753533Y836443D01*
X-37614913Y762348D01*
X-37597009Y752778D01*
X-37561271Y723448D01*
X-37459814Y640186D01*
X-37376552Y538729D01*
X-37347222Y502991D01*
X-37347221Y502989D01*
X-37263557Y346467D01*
X-37263557Y346466D01*
X-37212037Y176627D01*
X-37194641Y0D01*
X-37212037Y-176627D01*
X-37246384Y-289853D01*
X-37263557Y-346467D01*
X-37337652Y-485087D01*
X-37347222Y-502991D01*
X-37376552Y-538729D01*
X-37459814Y-640186D01*
X-37561271Y-723448D01*
X-37597009Y-752778D01*
X-37597011Y-752779D01*
X-37753533Y-836443D01*
X-37810147Y-853616D01*
X-37923373Y-887963D01*
X-37989557Y-894481D01*
X-38055740Y-901000D01*
X-38144260Y-901000D01*
X-38210443Y-894481D01*
X-38276627Y-887963D01*
X-38389853Y-853616D01*
X-38446467Y-836443D01*
X-38602989Y-752779D01*
X-38602991Y-752778D01*
X-38638729Y-723448D01*
X-38740186Y-640186D01*
X-38823448Y-538729D01*
X-38852778Y-502991D01*
X-38862348Y-485087D01*
X-38936443Y-346467D01*
X-38953616Y-289853D01*
X-38987963Y-176627D01*
X-39005359Y0D01*
X-38987963Y176627D01*
X-38936443Y346466D01*
X-38936443Y346467D01*
X-38852779Y502989D01*
X-38852778Y502991D01*
X-38823448Y538729D01*
X-38740186Y640186D01*
X-38638729Y723448D01*
X-38602991Y752778D01*
X-38585087Y762348D01*
X-38446467Y836443D01*
X-38389853Y853616D01*
X-38276627Y887963D01*
X-38210443Y894481D01*
X-38144260Y901000D01*
X-38055740Y901000D01*
X-37989557Y894481D01*
X-37989557Y894481D01*
G37*
G36*
X-8239000Y5239000D02*
X-10841000Y5239000D01*
X-10841000Y6341000D01*
X-8239000Y6341000D01*
X-8239000Y5239000D01*
X-8239000Y5239000D01*
G37*
G36*
X-11871323Y6936535D02*
X-11833636Y6925102D01*
X-11798897Y6906534D01*
X-11768452Y6881548D01*
X-11743466Y6851103D01*
X-11724898Y6816364D01*
X-11713465Y6778677D01*
X-11709000Y6733339D01*
X-11709000Y5896661D01*
X-11713465Y5851323D01*
X-11724898Y5813636D01*
X-11743466Y5778897D01*
X-11768452Y5748452D01*
X-11798897Y5723466D01*
X-11833636Y5704898D01*
X-11871323Y5693465D01*
X-11916661Y5689000D01*
X-13003339Y5689000D01*
X-13048677Y5693465D01*
X-13086364Y5704898D01*
X-13121103Y5723466D01*
X-13151548Y5748452D01*
X-13176534Y5778897D01*
X-13195102Y5813636D01*
X-13206535Y5851323D01*
X-13211000Y5896661D01*
X-13211000Y6733339D01*
X-13206535Y6778677D01*
X-13195102Y6816364D01*
X-13176534Y6851103D01*
X-13151548Y6881548D01*
X-13121103Y6906534D01*
X-13086364Y6925102D01*
X-13048677Y6936535D01*
X-13003339Y6941000D01*
X-11916661Y6941000D01*
X-11871323Y6936535D01*
X-11871323Y6936535D01*
G37*
G36*
X-7482934Y8396554D02*
X-7467388Y8377612D01*
X-7448446Y8362066D01*
X-7426835Y8350515D01*
X-7403386Y8343402D01*
X-7379000Y8341000D01*
X-3529000Y8341000D01*
X-3529000Y6239000D01*
X-7379000Y6239000D01*
X-7403386Y6236598D01*
X-7426835Y6229485D01*
X-7448446Y6217934D01*
X-7467388Y6202388D01*
X-7482934Y6183446D01*
X-7484032Y6181392D01*
X-7538952Y6218006D01*
X-7560575Y6229535D01*
X-7584031Y6236624D01*
X-7608289Y6239000D01*
X-7634051Y6239000D01*
X-7640515Y6260309D01*
X-7652066Y6281920D01*
X-7667612Y6300862D01*
X-7686662Y6316480D01*
X-8044662Y6555147D01*
X-8056573Y6561498D01*
X-8066951Y6570006D01*
X-8288951Y6718006D01*
X-8310574Y6729535D01*
X-8334031Y6736624D01*
X-8358289Y6739000D01*
X-10841000Y6739000D01*
X-10841000Y7841000D01*
X-8358289Y7841000D01*
X-8333903Y7843402D01*
X-8310454Y7850515D01*
X-8288951Y7861994D01*
X-8066951Y8009994D01*
X-8056567Y8018498D01*
X-8044662Y8024853D01*
X-7686662Y8263520D01*
X-7667704Y8279045D01*
X-7652139Y8297971D01*
X-7640565Y8319570D01*
X-7634040Y8341000D01*
X-7608289Y8341000D01*
X-7583903Y8343402D01*
X-7560454Y8350515D01*
X-7538952Y8361994D01*
X-7484032Y8398608D01*
X-7482934Y8396554D01*
X-7482934Y8396554D01*
G37*
G36*
X-1171323Y7611535D02*
X-1133636Y7600102D01*
X-1098897Y7581534D01*
X-1068452Y7556548D01*
X-1043466Y7526103D01*
X-1024898Y7491364D01*
X-1013465Y7453677D01*
X-1009000Y7408339D01*
X-1009000Y6571661D01*
X-1013465Y6526323D01*
X-1024898Y6488636D01*
X-1043466Y6453897D01*
X-1068452Y6423452D01*
X-1098897Y6398466D01*
X-1133636Y6379898D01*
X-1171323Y6368465D01*
X-1216661Y6364000D01*
X-2303339Y6364000D01*
X-2348677Y6368465D01*
X-2386364Y6379898D01*
X-2421103Y6398466D01*
X-2451548Y6423452D01*
X-2476534Y6453897D01*
X-2495102Y6488636D01*
X-2506535Y6526323D01*
X-2511000Y6571661D01*
X-2511000Y7408339D01*
X-2506535Y7453677D01*
X-2495102Y7491364D01*
X-2476534Y7526103D01*
X-2451548Y7556548D01*
X-2421103Y7581534D01*
X-2386364Y7600102D01*
X-2348677Y7611535D01*
X-2303339Y7616000D01*
X-1216661Y7616000D01*
X-1171323Y7611535D01*
X-1171323Y7611535D01*
G37*
G36*
X-11871323Y8986535D02*
X-11833636Y8975102D01*
X-11798897Y8956534D01*
X-11768452Y8931548D01*
X-11743466Y8901103D01*
X-11724898Y8866364D01*
X-11713465Y8828677D01*
X-11709000Y8783339D01*
X-11709000Y7946661D01*
X-11713465Y7901323D01*
X-11724898Y7863636D01*
X-11743466Y7828897D01*
X-11768452Y7798452D01*
X-11798897Y7773466D01*
X-11833636Y7754898D01*
X-11871323Y7743465D01*
X-11916661Y7739000D01*
X-13003339Y7739000D01*
X-13048677Y7743465D01*
X-13086364Y7754898D01*
X-13121103Y7773466D01*
X-13151548Y7798452D01*
X-13176534Y7828897D01*
X-13195102Y7863636D01*
X-13206535Y7901323D01*
X-13211000Y7946661D01*
X-13211000Y8783339D01*
X-13206535Y8828677D01*
X-13195102Y8866364D01*
X-13176534Y8901103D01*
X-13151548Y8931548D01*
X-13121103Y8956534D01*
X-13086364Y8975102D01*
X-13048677Y8986535D01*
X-13003339Y8991000D01*
X-11916661Y8991000D01*
X-11871323Y8986535D01*
X-11871323Y8986535D01*
G37*
G36*
X-8239000Y8239000D02*
X-10841000Y8239000D01*
X-10841000Y9341000D01*
X-8239000Y9341000D01*
X-8239000Y8239000D01*
X-8239000Y8239000D01*
G37*
G36*
X-1171323Y9661535D02*
X-1133636Y9650102D01*
X-1098897Y9631534D01*
X-1068452Y9606548D01*
X-1043466Y9576103D01*
X-1024898Y9541364D01*
X-1013465Y9503677D01*
X-1009000Y9458339D01*
X-1009000Y8621661D01*
X-1013465Y8576323D01*
X-1024898Y8538636D01*
X-1043466Y8503897D01*
X-1068452Y8473452D01*
X-1098897Y8448466D01*
X-1133636Y8429898D01*
X-1171323Y8418465D01*
X-1216661Y8414000D01*
X-2303339Y8414000D01*
X-2348677Y8418465D01*
X-2386364Y8429898D01*
X-2421103Y8448466D01*
X-2451548Y8473452D01*
X-2476534Y8503897D01*
X-2495102Y8538636D01*
X-2506535Y8576323D01*
X-2511000Y8621661D01*
X-2511000Y9458339D01*
X-2506535Y9503677D01*
X-2495102Y9541364D01*
X-2476534Y9576103D01*
X-2451548Y9606548D01*
X-2421103Y9631534D01*
X-2386364Y9650102D01*
X-2348677Y9661535D01*
X-2303339Y9666000D01*
X-1216661Y9666000D01*
X-1171323Y9661535D01*
X-1171323Y9661535D01*
G37*
G36*
X-28471323Y9811535D02*
X-28433636Y9800102D01*
X-28398897Y9781534D01*
X-28368452Y9756548D01*
X-28343466Y9726103D01*
X-28324898Y9691364D01*
X-28313465Y9653677D01*
X-28309000Y9608339D01*
X-28309000Y8771661D01*
X-28313465Y8726323D01*
X-28324898Y8688636D01*
X-28343466Y8653897D01*
X-28368452Y8623452D01*
X-28398897Y8598466D01*
X-28433636Y8579898D01*
X-28471323Y8568465D01*
X-28516661Y8564000D01*
X-29603339Y8564000D01*
X-29648677Y8568465D01*
X-29686364Y8579898D01*
X-29721103Y8598466D01*
X-29751548Y8623452D01*
X-29776534Y8653897D01*
X-29795102Y8688636D01*
X-29806535Y8726323D01*
X-29811000Y8771661D01*
X-29811000Y9608339D01*
X-29806535Y9653677D01*
X-29795102Y9691364D01*
X-29776534Y9726103D01*
X-29751548Y9756548D01*
X-29721103Y9781534D01*
X-29686364Y9800102D01*
X-29648677Y9811535D01*
X-29603339Y9816000D01*
X-28516661Y9816000D01*
X-28471323Y9811535D01*
X-28471323Y9811535D01*
G37*
G36*
X-28471323Y11861535D02*
X-28433636Y11850102D01*
X-28398897Y11831534D01*
X-28368452Y11806548D01*
X-28343466Y11776103D01*
X-28324898Y11741364D01*
X-28313465Y11703677D01*
X-28309000Y11658339D01*
X-28309000Y10821661D01*
X-28313465Y10776323D01*
X-28324898Y10738636D01*
X-28343466Y10703897D01*
X-28368452Y10673452D01*
X-28398897Y10648466D01*
X-28433636Y10629898D01*
X-28471323Y10618465D01*
X-28516661Y10614000D01*
X-29603339Y10614000D01*
X-29648677Y10618465D01*
X-29686364Y10629898D01*
X-29721103Y10648466D01*
X-29751548Y10673452D01*
X-29776534Y10703897D01*
X-29795102Y10738636D01*
X-29806535Y10776323D01*
X-29811000Y10821661D01*
X-29811000Y11658339D01*
X-29806535Y11703677D01*
X-29795102Y11741364D01*
X-29776534Y11776103D01*
X-29751548Y11806548D01*
X-29721103Y11831534D01*
X-29686364Y11850102D01*
X-29648677Y11861535D01*
X-29603339Y11866000D01*
X-28516661Y11866000D01*
X-28471323Y11861535D01*
X-28471323Y11861535D01*
G37*
G36*
X-7624669Y14451789D02*
X-7296908Y14316026D01*
X-7001927Y14118926D01*
X-6751074Y13868073D01*
X-6553974Y13573092D01*
X-6418211Y13245331D01*
X-6349000Y12897384D01*
X-6349000Y12542616D01*
X-6418211Y12194669D01*
X-6553974Y11866908D01*
X-6751074Y11571927D01*
X-7001927Y11321074D01*
X-7296908Y11123974D01*
X-7624669Y10988211D01*
X-7972616Y10919000D01*
X-8327384Y10919000D01*
X-8675331Y10988211D01*
X-9003092Y11123974D01*
X-9298073Y11321074D01*
X-9548926Y11571927D01*
X-9746026Y11866908D01*
X-9881789Y12194669D01*
X-9951000Y12542616D01*
X-9951000Y12897384D01*
X-9881789Y13245331D01*
X-9746026Y13573092D01*
X-9548926Y13868073D01*
X-9298073Y14118926D01*
X-9003092Y14316026D01*
X-8675331Y14451789D01*
X-8327384Y14521000D01*
X-7972616Y14521000D01*
X-7624669Y14451789D01*
X-7624669Y14451789D01*
G37*
G36*
X-24446323Y12986535D02*
X-24408636Y12975102D01*
X-24373897Y12956534D01*
X-24343452Y12931548D01*
X-24318466Y12901103D01*
X-24299898Y12866364D01*
X-24288465Y12828677D01*
X-24284000Y12783339D01*
X-24284000Y11696661D01*
X-24288465Y11651323D01*
X-24299898Y11613636D01*
X-24318466Y11578897D01*
X-24343452Y11548452D01*
X-24373897Y11523466D01*
X-24408636Y11504898D01*
X-24446323Y11493465D01*
X-24491661Y11489000D01*
X-25328339Y11489000D01*
X-25373677Y11493465D01*
X-25411364Y11504898D01*
X-25446103Y11523466D01*
X-25476548Y11548452D01*
X-25501534Y11578897D01*
X-25520102Y11613636D01*
X-25531535Y11651323D01*
X-25536000Y11696661D01*
X-25536000Y12783339D01*
X-25531535Y12828677D01*
X-25520102Y12866364D01*
X-25501534Y12901103D01*
X-25476548Y12931548D01*
X-25446103Y12956534D01*
X-25411364Y12975102D01*
X-25373677Y12986535D01*
X-25328339Y12991000D01*
X-24491661Y12991000D01*
X-24446323Y12986535D01*
X-24446323Y12986535D01*
G37*
G36*
X-22396323Y12986535D02*
X-22358636Y12975102D01*
X-22323897Y12956534D01*
X-22293452Y12931548D01*
X-22268466Y12901103D01*
X-22249898Y12866364D01*
X-22238465Y12828677D01*
X-22234000Y12783339D01*
X-22234000Y11696661D01*
X-22238465Y11651323D01*
X-22249898Y11613636D01*
X-22268466Y11578897D01*
X-22293452Y11548452D01*
X-22323897Y11523466D01*
X-22358636Y11504898D01*
X-22396323Y11493465D01*
X-22441661Y11489000D01*
X-23278339Y11489000D01*
X-23323677Y11493465D01*
X-23361364Y11504898D01*
X-23396103Y11523466D01*
X-23426548Y11548452D01*
X-23451534Y11578897D01*
X-23470102Y11613636D01*
X-23481535Y11651323D01*
X-23486000Y11696661D01*
X-23486000Y12783339D01*
X-23481535Y12828677D01*
X-23470102Y12866364D01*
X-23451534Y12901103D01*
X-23426548Y12931548D01*
X-23396103Y12956534D01*
X-23361364Y12975102D01*
X-23323677Y12986535D01*
X-23278339Y12991000D01*
X-22441661Y12991000D01*
X-22396323Y12986535D01*
X-22396323Y12986535D01*
G37*
G36*
X-19797802Y14040046D02*
X-19785550Y14039444D01*
X-19767131Y14039444D01*
X-19744851Y14037250D01*
X-19660764Y14020524D01*
X-19639345Y14014026D01*
X-19560129Y13981215D01*
X-19540393Y13970665D01*
X-19469103Y13923031D01*
X-19451792Y13908824D01*
X-19391176Y13848208D01*
X-19376969Y13830897D01*
X-19329335Y13759607D01*
X-19318785Y13739871D01*
X-19285974Y13660655D01*
X-19279476Y13639236D01*
X-19262750Y13555149D01*
X-19260556Y13532869D01*
X-19260556Y13514450D01*
X-19259954Y13502198D01*
X-19258148Y13483860D01*
X-19258148Y12996140D01*
X-19259737Y12980001D01*
X-19262653Y12970389D01*
X-19267388Y12961531D01*
X-19273763Y12953763D01*
X-19286202Y12943554D01*
X-19296568Y12936628D01*
X-19313895Y12919302D01*
X-19327510Y12898927D01*
X-19336888Y12876289D01*
X-19341669Y12852255D01*
X-19341669Y12827751D01*
X-19336889Y12803717D01*
X-19327513Y12781078D01*
X-19313899Y12760703D01*
X-19296573Y12743376D01*
X-19286204Y12736448D01*
X-19273763Y12726237D01*
X-19267388Y12718469D01*
X-19262653Y12709611D01*
X-19259737Y12699999D01*
X-19258148Y12683860D01*
X-19258148Y12196139D01*
X-19259954Y12177802D01*
X-19260556Y12165550D01*
X-19260556Y12147131D01*
X-19262750Y12124851D01*
X-19279476Y12040764D01*
X-19285974Y12019345D01*
X-19318785Y11940129D01*
X-19329335Y11920393D01*
X-19376969Y11849103D01*
X-19391176Y11831792D01*
X-19451792Y11771176D01*
X-19469103Y11756969D01*
X-19540393Y11709335D01*
X-19560129Y11698785D01*
X-19639345Y11665974D01*
X-19660764Y11659476D01*
X-19744851Y11642750D01*
X-19767131Y11640556D01*
X-19785550Y11640556D01*
X-19797802Y11639954D01*
X-19816139Y11638148D01*
X-20303861Y11638148D01*
X-20322198Y11639954D01*
X-20334450Y11640556D01*
X-20352869Y11640556D01*
X-20375149Y11642750D01*
X-20459236Y11659476D01*
X-20480655Y11665974D01*
X-20559871Y11698785D01*
X-20579607Y11709335D01*
X-20650897Y11756969D01*
X-20668208Y11771176D01*
X-20728824Y11831792D01*
X-20743031Y11849103D01*
X-20790665Y11920393D01*
X-20801215Y11940129D01*
X-20834026Y12019345D01*
X-20840524Y12040764D01*
X-20857250Y12124851D01*
X-20859444Y12147131D01*
X-20859444Y12165550D01*
X-20860046Y12177802D01*
X-20861852Y12196139D01*
X-20861852Y12683860D01*
X-20860263Y12699999D01*
X-20857347Y12709611D01*
X-20852612Y12718469D01*
X-20846237Y12726237D01*
X-20833798Y12736446D01*
X-20823432Y12743372D01*
X-20806105Y12760698D01*
X-20792490Y12781073D01*
X-20783112Y12803711D01*
X-20778331Y12827745D01*
X-20778331Y12852249D01*
X-20783111Y12876283D01*
X-20792487Y12898922D01*
X-20806101Y12919297D01*
X-20823427Y12936624D01*
X-20833796Y12943552D01*
X-20846237Y12953763D01*
X-20852612Y12961531D01*
X-20857347Y12970389D01*
X-20860263Y12980001D01*
X-20861852Y12996140D01*
X-20861852Y13483860D01*
X-20860046Y13502198D01*
X-20859444Y13514450D01*
X-20859444Y13532869D01*
X-20857250Y13555149D01*
X-20840524Y13639236D01*
X-20834026Y13660655D01*
X-20801215Y13739871D01*
X-20790665Y13759607D01*
X-20743031Y13830897D01*
X-20728824Y13848208D01*
X-20668208Y13908824D01*
X-20650897Y13923031D01*
X-20579607Y13970665D01*
X-20559871Y13981215D01*
X-20480655Y14014026D01*
X-20459236Y14020524D01*
X-20375149Y14037250D01*
X-20352869Y14039444D01*
X-20334450Y14039444D01*
X-20322198Y14040046D01*
X-20303860Y14041852D01*
X-19816140Y14041852D01*
X-19797802Y14040046D01*
X-19797802Y14040046D01*
G37*
G36*
X-35721323Y14286535D02*
X-35683636Y14275102D01*
X-35648897Y14256534D01*
X-35618452Y14231548D01*
X-35593466Y14201103D01*
X-35574898Y14166364D01*
X-35563465Y14128677D01*
X-35559000Y14083339D01*
X-35559000Y13246661D01*
X-35563465Y13201323D01*
X-35574898Y13163636D01*
X-35593466Y13128897D01*
X-35618452Y13098452D01*
X-35648897Y13073466D01*
X-35683636Y13054898D01*
X-35721323Y13043465D01*
X-35766661Y13039000D01*
X-36853339Y13039000D01*
X-36898677Y13043465D01*
X-36936364Y13054898D01*
X-36971103Y13073466D01*
X-37001548Y13098452D01*
X-37026534Y13128897D01*
X-37045102Y13163636D01*
X-37056535Y13201323D01*
X-37061000Y13246661D01*
X-37061000Y14083339D01*
X-37056535Y14128677D01*
X-37045102Y14166364D01*
X-37026534Y14201103D01*
X-37001548Y14231548D01*
X-36971103Y14256534D01*
X-36936364Y14275102D01*
X-36898677Y14286535D01*
X-36853339Y14291000D01*
X-35766661Y14291000D01*
X-35721323Y14286535D01*
X-35721323Y14286535D01*
G37*
G36*
X-24834000Y13589000D02*
X-30686000Y13589000D01*
X-30686000Y14991000D01*
X-24834000Y14991000D01*
X-24834000Y13589000D01*
X-24834000Y13589000D01*
G37*
G36*
X-33621323Y16261535D02*
X-33583636Y16250102D01*
X-33548897Y16231534D01*
X-33518452Y16206548D01*
X-33493466Y16176103D01*
X-33474898Y16141364D01*
X-33463465Y16103677D01*
X-33459000Y16058339D01*
X-33459000Y15221661D01*
X-33463465Y15176323D01*
X-33474898Y15138636D01*
X-33493466Y15103897D01*
X-33518452Y15073452D01*
X-33548897Y15048466D01*
X-33583636Y15029898D01*
X-33621323Y15018465D01*
X-33666661Y15014000D01*
X-34753339Y15014000D01*
X-34798677Y15018465D01*
X-34836364Y15029898D01*
X-34871103Y15048466D01*
X-34901548Y15073452D01*
X-34926534Y15103897D01*
X-34945102Y15138636D01*
X-34956535Y15176323D01*
X-34961000Y15221661D01*
X-34961000Y16058339D01*
X-34956535Y16103677D01*
X-34945102Y16141364D01*
X-34926534Y16176103D01*
X-34901548Y16206548D01*
X-34871103Y16231534D01*
X-34836364Y16250102D01*
X-34798677Y16261535D01*
X-34753339Y16266000D01*
X-33666661Y16266000D01*
X-33621323Y16261535D01*
X-33621323Y16261535D01*
G37*
G36*
X-35721323Y16336535D02*
X-35683636Y16325102D01*
X-35648897Y16306534D01*
X-35618452Y16281548D01*
X-35593466Y16251103D01*
X-35574898Y16216364D01*
X-35563465Y16178677D01*
X-35559000Y16133339D01*
X-35559000Y15296661D01*
X-35563465Y15251323D01*
X-35574898Y15213636D01*
X-35593466Y15178897D01*
X-35618452Y15148452D01*
X-35648897Y15123466D01*
X-35683636Y15104898D01*
X-35721323Y15093465D01*
X-35766661Y15089000D01*
X-36853339Y15089000D01*
X-36898677Y15093465D01*
X-36936364Y15104898D01*
X-36971103Y15123466D01*
X-37001548Y15148452D01*
X-37026534Y15178897D01*
X-37045102Y15213636D01*
X-37056535Y15251323D01*
X-37061000Y15296661D01*
X-37061000Y16133339D01*
X-37056535Y16178677D01*
X-37045102Y16216364D01*
X-37026534Y16251103D01*
X-37001548Y16281548D01*
X-36971103Y16306534D01*
X-36936364Y16325102D01*
X-36898677Y16336535D01*
X-36853339Y16341000D01*
X-35766661Y16341000D01*
X-35721323Y16336535D01*
X-35721323Y16336535D01*
G37*
G36*
X-40176357Y17030219D02*
X-40030585Y16969838D01*
X-39899389Y16882176D01*
X-39787824Y16770611D01*
X-39700162Y16639415D01*
X-39639781Y16493643D01*
X-39609000Y16338893D01*
X-39609000Y16181107D01*
X-39639781Y16026357D01*
X-39700162Y15880585D01*
X-39787824Y15749389D01*
X-39899389Y15637824D01*
X-40030585Y15550162D01*
X-40176357Y15489781D01*
X-40331107Y15459000D01*
X-40488893Y15459000D01*
X-40643643Y15489781D01*
X-40789415Y15550162D01*
X-40920611Y15637824D01*
X-41032176Y15749389D01*
X-41119838Y15880585D01*
X-41180219Y16026357D01*
X-41211000Y16181107D01*
X-41211000Y16338893D01*
X-41180219Y16493643D01*
X-41119838Y16639415D01*
X-41032176Y16770611D01*
X-40920611Y16882176D01*
X-40789415Y16969838D01*
X-40643643Y17030219D01*
X-40488893Y17061000D01*
X-40331107Y17061000D01*
X-40176357Y17030219D01*
X-40176357Y17030219D01*
G37*
G36*
X-48076400Y17437011D02*
X-48043351Y17426986D01*
X-48012894Y17410706D01*
X-47986201Y17388799D01*
X-47964294Y17362106D01*
X-47948014Y17331649D01*
X-47937989Y17298600D01*
X-47934000Y17258096D01*
X-47934000Y15821904D01*
X-47937989Y15781400D01*
X-47948014Y15748351D01*
X-47964294Y15717894D01*
X-47986201Y15691201D01*
X-48012894Y15669294D01*
X-48043351Y15653014D01*
X-48076400Y15642989D01*
X-48116904Y15639000D01*
X-49803096Y15639000D01*
X-49843600Y15642989D01*
X-49876649Y15653014D01*
X-49907106Y15669294D01*
X-49933799Y15691201D01*
X-49955706Y15717894D01*
X-49971986Y15748351D01*
X-49982011Y15781400D01*
X-49986000Y15821904D01*
X-49986000Y17258096D01*
X-49982011Y17298600D01*
X-49971986Y17331649D01*
X-49955706Y17362106D01*
X-49933799Y17388799D01*
X-49907106Y17410706D01*
X-49876649Y17426986D01*
X-49843600Y17437011D01*
X-49803096Y17441000D01*
X-48116904Y17441000D01*
X-48076400Y17437011D01*
X-48076400Y17437011D01*
G37*
G36*
X-31409000Y15714000D02*
X-32811000Y15714000D01*
X-32811000Y21566000D01*
X-31409000Y21566000D01*
X-31409000Y15714000D01*
X-31409000Y15714000D01*
G37*
G36*
X-22709000Y15714000D02*
X-24111000Y15714000D01*
X-24111000Y21566000D01*
X-22709000Y21566000D01*
X-22709000Y15714000D01*
X-22709000Y15714000D01*
G37*
G36*
X-12597188Y18356376D02*
X-12433216Y18288456D01*
X-12285646Y18189853D01*
X-12160147Y18064354D01*
X-12061544Y17916784D01*
X-11993624Y17752812D01*
X-11982596Y17697367D01*
X-11975485Y17673926D01*
X-11963933Y17652315D01*
X-11948388Y17633373D01*
X-11929446Y17617828D01*
X-11907835Y17606277D01*
X-11884386Y17599164D01*
X-11860000Y17596762D01*
X-11835613Y17599164D01*
X-11812164Y17606277D01*
X-11790553Y17617829D01*
X-11771611Y17633374D01*
X-11756066Y17652316D01*
X-11744515Y17673927D01*
X-11737404Y17697367D01*
X-11726376Y17752812D01*
X-11658456Y17916784D01*
X-11559853Y18064354D01*
X-11434354Y18189853D01*
X-11286784Y18288456D01*
X-11122812Y18356376D01*
X-10948741Y18391000D01*
X-10771259Y18391000D01*
X-10597188Y18356376D01*
X-10433216Y18288456D01*
X-10285646Y18189853D01*
X-10160147Y18064354D01*
X-10061544Y17916784D01*
X-9993624Y17752812D01*
X-9959000Y17578741D01*
X-9959000Y17401259D01*
X-9993624Y17227188D01*
X-10061544Y17063216D01*
X-10160147Y16915646D01*
X-10285646Y16790147D01*
X-10433216Y16691544D01*
X-10597188Y16623624D01*
X-10771259Y16589000D01*
X-10948741Y16589000D01*
X-11122812Y16623624D01*
X-11286784Y16691544D01*
X-11434354Y16790147D01*
X-11559853Y16915646D01*
X-11658456Y17063216D01*
X-11726376Y17227188D01*
X-11737404Y17282633D01*
X-11744515Y17306074D01*
X-11756067Y17327685D01*
X-11771612Y17346627D01*
X-11790554Y17362172D01*
X-11812165Y17373723D01*
X-11835614Y17380836D01*
X-11860000Y17383238D01*
X-11884387Y17380836D01*
X-11907836Y17373723D01*
X-11929447Y17362171D01*
X-11948389Y17346626D01*
X-11963934Y17327684D01*
X-11975485Y17306073D01*
X-11982596Y17282633D01*
X-11993624Y17227188D01*
X-12061544Y17063216D01*
X-12160147Y16915646D01*
X-12285646Y16790147D01*
X-12433216Y16691544D01*
X-12597188Y16623624D01*
X-12771259Y16589000D01*
X-12948741Y16589000D01*
X-13122812Y16623624D01*
X-13286784Y16691544D01*
X-13434354Y16790147D01*
X-13559853Y16915646D01*
X-13658456Y17063216D01*
X-13726376Y17227188D01*
X-13761000Y17401259D01*
X-13761000Y17578741D01*
X-13726376Y17752812D01*
X-13658456Y17916784D01*
X-13559853Y18064354D01*
X-13434354Y18189853D01*
X-13286784Y18288456D01*
X-13122812Y18356376D01*
X-12948741Y18391000D01*
X-12771259Y18391000D01*
X-12597188Y18356376D01*
X-12597188Y18356376D01*
G37*
G36*
X-33621323Y18311535D02*
X-33583636Y18300102D01*
X-33548897Y18281534D01*
X-33518452Y18256548D01*
X-33493466Y18226103D01*
X-33474898Y18191364D01*
X-33463465Y18153677D01*
X-33459000Y18108339D01*
X-33459000Y17271661D01*
X-33463465Y17226323D01*
X-33474898Y17188636D01*
X-33493466Y17153897D01*
X-33518452Y17123452D01*
X-33548897Y17098466D01*
X-33583636Y17079898D01*
X-33621323Y17068465D01*
X-33666661Y17064000D01*
X-34753339Y17064000D01*
X-34798677Y17068465D01*
X-34836364Y17079898D01*
X-34871103Y17098466D01*
X-34901548Y17123452D01*
X-34926534Y17153897D01*
X-34945102Y17188636D01*
X-34956535Y17226323D01*
X-34961000Y17271661D01*
X-34961000Y18108339D01*
X-34956535Y18153677D01*
X-34945102Y18191364D01*
X-34926534Y18226103D01*
X-34901548Y18256548D01*
X-34871103Y18281534D01*
X-34836364Y18300102D01*
X-34798677Y18311535D01*
X-34753339Y18316000D01*
X-33666661Y18316000D01*
X-33621323Y18311535D01*
X-33621323Y18311535D01*
G37*
G36*
X-18259000Y17539000D02*
X-20261000Y17539000D01*
X-20261000Y18441000D01*
X-18259000Y18441000D01*
X-18259000Y17539000D01*
X-18259000Y17539000D01*
G37*
G36*
X-48724558Y19934482D02*
X-48658373Y19927963D01*
X-48570342Y19901259D01*
X-48488533Y19876443D01*
X-48349913Y19802348D01*
X-48332009Y19792778D01*
X-48311398Y19775863D01*
X-48194814Y19680186D01*
X-48111552Y19578729D01*
X-48082222Y19542991D01*
X-48082221Y19542989D01*
X-47998557Y19386467D01*
X-47998557Y19386466D01*
X-47947037Y19216627D01*
X-47929641Y19040000D01*
X-47947037Y18863373D01*
X-47981384Y18750147D01*
X-47998557Y18693533D01*
X-48066726Y18566000D01*
X-48082222Y18537009D01*
X-48111552Y18501271D01*
X-48194814Y18399814D01*
X-48296271Y18316552D01*
X-48332009Y18287222D01*
X-48332011Y18287221D01*
X-48488533Y18203557D01*
X-48516617Y18195038D01*
X-48658373Y18152037D01*
X-48699535Y18147983D01*
X-48790740Y18139000D01*
X-49129260Y18139000D01*
X-49220465Y18147983D01*
X-49261627Y18152037D01*
X-49403383Y18195038D01*
X-49431467Y18203557D01*
X-49587989Y18287221D01*
X-49587991Y18287222D01*
X-49623729Y18316552D01*
X-49725186Y18399814D01*
X-49808448Y18501271D01*
X-49837778Y18537009D01*
X-49853274Y18566000D01*
X-49921443Y18693533D01*
X-49938616Y18750147D01*
X-49972963Y18863373D01*
X-49990359Y19040000D01*
X-49972963Y19216627D01*
X-49921443Y19386466D01*
X-49921443Y19386467D01*
X-49837779Y19542989D01*
X-49837778Y19542991D01*
X-49808448Y19578729D01*
X-49725186Y19680186D01*
X-49608602Y19775863D01*
X-49587991Y19792778D01*
X-49570087Y19802348D01*
X-49431467Y19876443D01*
X-49349658Y19901259D01*
X-49261627Y19927963D01*
X-49195442Y19934482D01*
X-49129260Y19941000D01*
X-48790740Y19941000D01*
X-48724558Y19934482D01*
X-48724558Y19934482D01*
G37*
G36*
X-15259000Y18489000D02*
X-17261000Y18489000D01*
X-17261000Y19391000D01*
X-15259000Y19391000D01*
X-15259000Y18489000D01*
X-15259000Y18489000D01*
G37*
G36*
X-11959000Y20319622D02*
X-11956598Y20295236D01*
X-11949485Y20271787D01*
X-11937934Y20250176D01*
X-11922388Y20231234D01*
X-11903446Y20215688D01*
X-11881835Y20204137D01*
X-11858386Y20197024D01*
X-11834000Y20194622D01*
X-11809614Y20197024D01*
X-11786165Y20204137D01*
X-11764554Y20215688D01*
X-11745612Y20231234D01*
X-11730066Y20250176D01*
X-11718520Y20271777D01*
X-11658456Y20416784D01*
X-11559853Y20564354D01*
X-11434354Y20689853D01*
X-11286784Y20788456D01*
X-11122812Y20856376D01*
X-10948741Y20891000D01*
X-10771259Y20891000D01*
X-10597188Y20856376D01*
X-10433216Y20788456D01*
X-10285646Y20689853D01*
X-10160147Y20564354D01*
X-10061544Y20416784D01*
X-9993624Y20252812D01*
X-9959000Y20078741D01*
X-9959000Y19901259D01*
X-9993624Y19727188D01*
X-10061544Y19563216D01*
X-10160147Y19415646D01*
X-10285646Y19290147D01*
X-10433216Y19191544D01*
X-10597188Y19123624D01*
X-10771259Y19089000D01*
X-10948741Y19089000D01*
X-11122812Y19123624D01*
X-11286784Y19191544D01*
X-11434354Y19290147D01*
X-11559853Y19415646D01*
X-11658456Y19563216D01*
X-11718520Y19708223D01*
X-11730066Y19729824D01*
X-11745612Y19748766D01*
X-11764554Y19764312D01*
X-11786165Y19775863D01*
X-11809614Y19782976D01*
X-11834000Y19785378D01*
X-11858386Y19782976D01*
X-11881835Y19775863D01*
X-11903446Y19764312D01*
X-11922388Y19748766D01*
X-11937934Y19729824D01*
X-11949485Y19708213D01*
X-11956598Y19684764D01*
X-11959000Y19660378D01*
X-11959000Y19089000D01*
X-13761000Y19089000D01*
X-13761000Y20891000D01*
X-11959000Y20891000D01*
X-11959000Y20319622D01*
X-11959000Y20319622D01*
G37*
G36*
X-18259000Y19439000D02*
X-20261000Y19439000D01*
X-20261000Y20341000D01*
X-18259000Y20341000D01*
X-18259000Y19439000D01*
X-18259000Y19439000D01*
G37*
G36*
X-40176357Y21910219D02*
X-40030585Y21849838D01*
X-39899389Y21762176D01*
X-39787824Y21650611D01*
X-39700162Y21519415D01*
X-39639781Y21373643D01*
X-39609000Y21218893D01*
X-39609000Y21061107D01*
X-39639781Y20906357D01*
X-39700162Y20760585D01*
X-39787824Y20629389D01*
X-39899389Y20517824D01*
X-40030585Y20430162D01*
X-40176357Y20369781D01*
X-40331107Y20339000D01*
X-40488893Y20339000D01*
X-40643643Y20369781D01*
X-40789415Y20430162D01*
X-40920611Y20517824D01*
X-41032176Y20629389D01*
X-41119838Y20760585D01*
X-41180219Y20906357D01*
X-41211000Y21061107D01*
X-41211000Y21218893D01*
X-41180219Y21373643D01*
X-41119838Y21519415D01*
X-41032176Y21650611D01*
X-40920611Y21762176D01*
X-40789415Y21849838D01*
X-40643643Y21910219D01*
X-40488893Y21941000D01*
X-40331107Y21941000D01*
X-40176357Y21910219D01*
X-40176357Y21910219D01*
G37*
G36*
X-48724557Y22434481D02*
X-48658373Y22427963D01*
X-48545147Y22393616D01*
X-48488533Y22376443D01*
X-48392482Y22325102D01*
X-48332009Y22292778D01*
X-48299824Y22266364D01*
X-48194814Y22180186D01*
X-48144459Y22118827D01*
X-48082222Y22042991D01*
X-48082221Y22042989D01*
X-47998557Y21886467D01*
X-47998557Y21886466D01*
X-47947037Y21716627D01*
X-47929641Y21540000D01*
X-47947037Y21363373D01*
X-47965860Y21301323D01*
X-47998557Y21193533D01*
X-48052045Y21093465D01*
X-48082222Y21037009D01*
X-48111552Y21001271D01*
X-48194814Y20899814D01*
X-48296271Y20816552D01*
X-48332009Y20787222D01*
X-48332011Y20787221D01*
X-48488533Y20703557D01*
X-48533710Y20689853D01*
X-48658373Y20652037D01*
X-48724557Y20645519D01*
X-48790740Y20639000D01*
X-49129260Y20639000D01*
X-49195443Y20645519D01*
X-49261627Y20652037D01*
X-49386290Y20689853D01*
X-49431467Y20703557D01*
X-49587989Y20787221D01*
X-49587991Y20787222D01*
X-49623729Y20816552D01*
X-49725186Y20899814D01*
X-49808448Y21001271D01*
X-49837778Y21037009D01*
X-49867955Y21093465D01*
X-49921443Y21193533D01*
X-49954140Y21301323D01*
X-49972963Y21363373D01*
X-49990359Y21540000D01*
X-49972963Y21716627D01*
X-49921443Y21886466D01*
X-49921443Y21886467D01*
X-49837779Y22042989D01*
X-49837778Y22042991D01*
X-49775541Y22118827D01*
X-49725186Y22180186D01*
X-49620176Y22266364D01*
X-49587991Y22292778D01*
X-49527518Y22325102D01*
X-49431467Y22376443D01*
X-49374853Y22393616D01*
X-49261627Y22427963D01*
X-49195443Y22434481D01*
X-49129260Y22441000D01*
X-48790740Y22441000D01*
X-48724557Y22434481D01*
X-48724557Y22434481D01*
G37*
G36*
X-35771323Y22336535D02*
X-35733636Y22325102D01*
X-35698897Y22306534D01*
X-35668452Y22281548D01*
X-35643466Y22251103D01*
X-35624898Y22216364D01*
X-35613465Y22178677D01*
X-35609000Y22133339D01*
X-35609000Y21296661D01*
X-35613465Y21251323D01*
X-35624898Y21213636D01*
X-35643466Y21178897D01*
X-35668452Y21148452D01*
X-35698897Y21123466D01*
X-35733636Y21104898D01*
X-35771323Y21093465D01*
X-35816661Y21089000D01*
X-36903339Y21089000D01*
X-36948677Y21093465D01*
X-36986364Y21104898D01*
X-37021103Y21123466D01*
X-37051548Y21148452D01*
X-37076534Y21178897D01*
X-37095102Y21213636D01*
X-37106535Y21251323D01*
X-37111000Y21296661D01*
X-37111000Y22133339D01*
X-37106535Y22178677D01*
X-37095102Y22216364D01*
X-37076534Y22251103D01*
X-37051548Y22281548D01*
X-37021103Y22306534D01*
X-36986364Y22325102D01*
X-36948677Y22336535D01*
X-36903339Y22341000D01*
X-35816661Y22341000D01*
X-35771323Y22336535D01*
X-35771323Y22336535D01*
G37*
G36*
X-17671323Y22361535D02*
X-17633636Y22350102D01*
X-17598897Y22331534D01*
X-17568452Y22306548D01*
X-17543466Y22276103D01*
X-17524898Y22241364D01*
X-17513465Y22203677D01*
X-17509000Y22158339D01*
X-17509000Y21321661D01*
X-17513465Y21276323D01*
X-17524898Y21238636D01*
X-17543466Y21203897D01*
X-17568452Y21173452D01*
X-17598897Y21148466D01*
X-17633636Y21129898D01*
X-17671323Y21118465D01*
X-17716661Y21114000D01*
X-18803339Y21114000D01*
X-18848677Y21118465D01*
X-18886364Y21129898D01*
X-18921103Y21148466D01*
X-18951548Y21173452D01*
X-18976534Y21203897D01*
X-18995102Y21238636D01*
X-19006535Y21276323D01*
X-19011000Y21321661D01*
X-19011000Y22158339D01*
X-19006535Y22203677D01*
X-18995102Y22241364D01*
X-18976534Y22276103D01*
X-18951548Y22306548D01*
X-18921103Y22331534D01*
X-18886364Y22350102D01*
X-18848677Y22361535D01*
X-18803339Y22366000D01*
X-17716661Y22366000D01*
X-17671323Y22361535D01*
X-17671323Y22361535D01*
G37*
G36*
X-19721323Y22386535D02*
X-19683636Y22375102D01*
X-19648897Y22356534D01*
X-19618452Y22331548D01*
X-19593466Y22301103D01*
X-19574898Y22266364D01*
X-19563465Y22228677D01*
X-19559000Y22183339D01*
X-19559000Y21346661D01*
X-19563465Y21301323D01*
X-19574898Y21263636D01*
X-19593466Y21228897D01*
X-19618452Y21198452D01*
X-19648897Y21173466D01*
X-19683636Y21154898D01*
X-19721323Y21143465D01*
X-19766661Y21139000D01*
X-20853339Y21139000D01*
X-20898677Y21143465D01*
X-20936364Y21154898D01*
X-20971103Y21173466D01*
X-21001548Y21198452D01*
X-21026534Y21228897D01*
X-21045102Y21263636D01*
X-21056535Y21301323D01*
X-21061000Y21346661D01*
X-21061000Y22183339D01*
X-21056535Y22228677D01*
X-21045102Y22266364D01*
X-21026534Y22301103D01*
X-21001548Y22331548D01*
X-20971103Y22356534D01*
X-20936364Y22375102D01*
X-20898677Y22386535D01*
X-20853339Y22391000D01*
X-19766661Y22391000D01*
X-19721323Y22386535D01*
X-19721323Y22386535D01*
G37*
G36*
X-24834000Y22289000D02*
X-30686000Y22289000D01*
X-30686000Y23691000D01*
X-24834000Y23691000D01*
X-24834000Y22289000D01*
X-24834000Y22289000D01*
G37*
G36*
X-7624669Y26491789D02*
X-7296908Y26356026D01*
X-7001927Y26158926D01*
X-6751074Y25908073D01*
X-6553974Y25613092D01*
X-6418211Y25285331D01*
X-6349000Y24937384D01*
X-6349000Y24582616D01*
X-6418211Y24234669D01*
X-6553974Y23906908D01*
X-6751074Y23611927D01*
X-7001927Y23361074D01*
X-7296908Y23163974D01*
X-7624669Y23028211D01*
X-7972616Y22959000D01*
X-8327384Y22959000D01*
X-8675331Y23028211D01*
X-9003092Y23163974D01*
X-9298073Y23361074D01*
X-9548926Y23611927D01*
X-9746026Y23906908D01*
X-9881789Y24234669D01*
X-9951000Y24582616D01*
X-9951000Y24937384D01*
X-9881789Y25285331D01*
X-9746026Y25613092D01*
X-9548926Y25908073D01*
X-9298073Y26158926D01*
X-9003092Y26356026D01*
X-8675331Y26491789D01*
X-8327384Y26561000D01*
X-7972616Y26561000D01*
X-7624669Y26491789D01*
X-7624669Y26491789D01*
G37*
G36*
X-48754017Y24937383D02*
X-48658373Y24927963D01*
X-48545147Y24893616D01*
X-48488533Y24876443D01*
X-48365669Y24810770D01*
X-48332009Y24792778D01*
X-48304414Y24770131D01*
X-48194814Y24680186D01*
X-48114742Y24582617D01*
X-48082222Y24542991D01*
X-48082221Y24542989D01*
X-47998557Y24386467D01*
X-47990443Y24359718D01*
X-47947037Y24216627D01*
X-47929641Y24040000D01*
X-47947037Y23863373D01*
X-47981384Y23750147D01*
X-47998557Y23693533D01*
X-48042177Y23611927D01*
X-48082222Y23537009D01*
X-48111552Y23501271D01*
X-48194814Y23399814D01*
X-48296271Y23316552D01*
X-48332009Y23287222D01*
X-48332011Y23287221D01*
X-48488533Y23203557D01*
X-48519281Y23194230D01*
X-48658373Y23152037D01*
X-48724557Y23145519D01*
X-48790740Y23139000D01*
X-49129260Y23139000D01*
X-49195443Y23145519D01*
X-49261627Y23152037D01*
X-49400719Y23194230D01*
X-49431467Y23203557D01*
X-49587989Y23287221D01*
X-49587991Y23287222D01*
X-49623729Y23316552D01*
X-49725186Y23399814D01*
X-49808448Y23501271D01*
X-49837778Y23537009D01*
X-49877823Y23611927D01*
X-49921443Y23693533D01*
X-49938616Y23750147D01*
X-49972963Y23863373D01*
X-49990359Y24040000D01*
X-49972963Y24216627D01*
X-49929557Y24359718D01*
X-49921443Y24386467D01*
X-49837779Y24542989D01*
X-49837778Y24542991D01*
X-49805258Y24582617D01*
X-49725186Y24680186D01*
X-49615586Y24770131D01*
X-49587991Y24792778D01*
X-49554331Y24810770D01*
X-49431467Y24876443D01*
X-49374853Y24893616D01*
X-49261627Y24927963D01*
X-49165983Y24937383D01*
X-49129260Y24941000D01*
X-48790740Y24941000D01*
X-48754017Y24937383D01*
X-48754017Y24937383D01*
G37*
G36*
X-35771323Y24386535D02*
X-35733636Y24375102D01*
X-35698897Y24356534D01*
X-35668452Y24331548D01*
X-35643466Y24301103D01*
X-35624898Y24266364D01*
X-35613465Y24228677D01*
X-35609000Y24183339D01*
X-35609000Y23346661D01*
X-35613465Y23301323D01*
X-35624898Y23263636D01*
X-35643466Y23228897D01*
X-35668452Y23198452D01*
X-35698897Y23173466D01*
X-35733636Y23154898D01*
X-35771323Y23143465D01*
X-35816661Y23139000D01*
X-36903339Y23139000D01*
X-36948677Y23143465D01*
X-36986364Y23154898D01*
X-37021103Y23173466D01*
X-37051548Y23198452D01*
X-37076534Y23228897D01*
X-37095102Y23263636D01*
X-37106535Y23301323D01*
X-37111000Y23346661D01*
X-37111000Y24183339D01*
X-37106535Y24228677D01*
X-37095102Y24266364D01*
X-37076534Y24301103D01*
X-37051548Y24331548D01*
X-37021103Y24356534D01*
X-36986364Y24375102D01*
X-36948677Y24386535D01*
X-36903339Y24391000D01*
X-35816661Y24391000D01*
X-35771323Y24386535D01*
X-35771323Y24386535D01*
G37*
G36*
X-17671323Y24411535D02*
X-17633636Y24400102D01*
X-17598897Y24381534D01*
X-17568452Y24356548D01*
X-17543466Y24326103D01*
X-17524898Y24291364D01*
X-17513465Y24253677D01*
X-17509000Y24208339D01*
X-17509000Y23371661D01*
X-17513465Y23326323D01*
X-17524898Y23288636D01*
X-17543466Y23253897D01*
X-17568452Y23223452D01*
X-17598897Y23198466D01*
X-17633636Y23179898D01*
X-17671323Y23168465D01*
X-17716661Y23164000D01*
X-18803339Y23164000D01*
X-18848677Y23168465D01*
X-18886364Y23179898D01*
X-18921103Y23198466D01*
X-18951548Y23223452D01*
X-18976534Y23253897D01*
X-18995102Y23288636D01*
X-19006535Y23326323D01*
X-19011000Y23371661D01*
X-19011000Y24208339D01*
X-19006535Y24253677D01*
X-18995102Y24291364D01*
X-18976534Y24326103D01*
X-18951548Y24356548D01*
X-18921103Y24381534D01*
X-18886364Y24400102D01*
X-18848677Y24411535D01*
X-18803339Y24416000D01*
X-17716661Y24416000D01*
X-17671323Y24411535D01*
X-17671323Y24411535D01*
G37*
G36*
X-19721323Y24436535D02*
X-19683636Y24425102D01*
X-19648897Y24406534D01*
X-19618452Y24381548D01*
X-19593466Y24351103D01*
X-19574898Y24316364D01*
X-19563465Y24278677D01*
X-19559000Y24233339D01*
X-19559000Y23396661D01*
X-19563465Y23351323D01*
X-19574898Y23313636D01*
X-19593466Y23278897D01*
X-19618452Y23248452D01*
X-19648897Y23223466D01*
X-19683636Y23204898D01*
X-19721323Y23193465D01*
X-19766661Y23189000D01*
X-20853339Y23189000D01*
X-20898677Y23193465D01*
X-20936364Y23204898D01*
X-20971103Y23223466D01*
X-21001548Y23248452D01*
X-21026534Y23278897D01*
X-21045102Y23313636D01*
X-21056535Y23351323D01*
X-21061000Y23396661D01*
X-21061000Y24233339D01*
X-21056535Y24278677D01*
X-21045102Y24316364D01*
X-21026534Y24351103D01*
X-21001548Y24381548D01*
X-20971103Y24406534D01*
X-20936364Y24425102D01*
X-20898677Y24436535D01*
X-20853339Y24441000D01*
X-19766661Y24441000D01*
X-19721323Y24436535D01*
X-19721323Y24436535D01*
G37*
G36*
X-15671323Y24811535D02*
X-15633636Y24800102D01*
X-15598897Y24781534D01*
X-15568452Y24756548D01*
X-15543466Y24726103D01*
X-15524898Y24691364D01*
X-15513465Y24653677D01*
X-15509000Y24608339D01*
X-15509000Y23771661D01*
X-15513465Y23726323D01*
X-15524898Y23688636D01*
X-15543466Y23653897D01*
X-15568452Y23623452D01*
X-15598897Y23598466D01*
X-15633636Y23579898D01*
X-15671323Y23568465D01*
X-15716661Y23564000D01*
X-16803339Y23564000D01*
X-16848677Y23568465D01*
X-16886364Y23579898D01*
X-16921103Y23598466D01*
X-16951548Y23623452D01*
X-16976534Y23653897D01*
X-16995102Y23688636D01*
X-17006535Y23726323D01*
X-17011000Y23771661D01*
X-17011000Y24608339D01*
X-17006535Y24653677D01*
X-16995102Y24691364D01*
X-16976534Y24726103D01*
X-16951548Y24756548D01*
X-16921103Y24781534D01*
X-16886364Y24800102D01*
X-16848677Y24811535D01*
X-16803339Y24816000D01*
X-15716661Y24816000D01*
X-15671323Y24811535D01*
X-15671323Y24811535D01*
G37*
G36*
X-30146323Y25836535D02*
X-30108636Y25825102D01*
X-30073897Y25806534D01*
X-30043452Y25781548D01*
X-30018466Y25751103D01*
X-29999898Y25716364D01*
X-29988465Y25678677D01*
X-29984000Y25633339D01*
X-29984000Y24546661D01*
X-29988465Y24501323D01*
X-29999898Y24463636D01*
X-30018466Y24428897D01*
X-30043452Y24398452D01*
X-30073897Y24373466D01*
X-30108636Y24354898D01*
X-30146323Y24343465D01*
X-30191661Y24339000D01*
X-31028339Y24339000D01*
X-31073677Y24343465D01*
X-31111364Y24354898D01*
X-31146103Y24373466D01*
X-31176548Y24398452D01*
X-31201534Y24428897D01*
X-31220102Y24463636D01*
X-31231535Y24501323D01*
X-31236000Y24546661D01*
X-31236000Y25633339D01*
X-31231535Y25678677D01*
X-31220102Y25716364D01*
X-31201534Y25751103D01*
X-31176548Y25781548D01*
X-31146103Y25806534D01*
X-31111364Y25825102D01*
X-31073677Y25836535D01*
X-31028339Y25841000D01*
X-30191661Y25841000D01*
X-30146323Y25836535D01*
X-30146323Y25836535D01*
G37*
G36*
X-32196323Y25836535D02*
X-32158636Y25825102D01*
X-32123897Y25806534D01*
X-32093452Y25781548D01*
X-32068466Y25751103D01*
X-32049898Y25716364D01*
X-32038465Y25678677D01*
X-32034000Y25633339D01*
X-32034000Y24546661D01*
X-32038465Y24501323D01*
X-32049898Y24463636D01*
X-32068466Y24428897D01*
X-32093452Y24398452D01*
X-32123897Y24373466D01*
X-32158636Y24354898D01*
X-32196323Y24343465D01*
X-32241661Y24339000D01*
X-33078339Y24339000D01*
X-33123677Y24343465D01*
X-33161364Y24354898D01*
X-33196103Y24373466D01*
X-33226548Y24398452D01*
X-33251534Y24428897D01*
X-33270102Y24463636D01*
X-33281535Y24501323D01*
X-33286000Y24546661D01*
X-33286000Y25633339D01*
X-33281535Y25678677D01*
X-33270102Y25716364D01*
X-33251534Y25751103D01*
X-33226548Y25781548D01*
X-33196103Y25806534D01*
X-33161364Y25825102D01*
X-33123677Y25836535D01*
X-33078339Y25841000D01*
X-32241661Y25841000D01*
X-32196323Y25836535D01*
X-32196323Y25836535D01*
G37*
G36*
X-15671323Y26861535D02*
X-15633636Y26850102D01*
X-15598897Y26831534D01*
X-15568452Y26806548D01*
X-15543466Y26776103D01*
X-15524898Y26741364D01*
X-15513465Y26703677D01*
X-15509000Y26658339D01*
X-15509000Y25821661D01*
X-15513465Y25776323D01*
X-15524898Y25738636D01*
X-15543466Y25703897D01*
X-15568452Y25673452D01*
X-15598897Y25648466D01*
X-15633636Y25629898D01*
X-15671323Y25618465D01*
X-15716661Y25614000D01*
X-16803339Y25614000D01*
X-16848677Y25618465D01*
X-16886364Y25629898D01*
X-16921103Y25648466D01*
X-16951548Y25673452D01*
X-16976534Y25703897D01*
X-16995102Y25738636D01*
X-17006535Y25776323D01*
X-17011000Y25821661D01*
X-17011000Y26658339D01*
X-17006535Y26703677D01*
X-16995102Y26741364D01*
X-16976534Y26776103D01*
X-16951548Y26806548D01*
X-16921103Y26831534D01*
X-16886364Y26850102D01*
X-16848677Y26861535D01*
X-16803339Y26866000D01*
X-15716661Y26866000D01*
X-15671323Y26861535D01*
X-15671323Y26861535D01*
G37*
G36*
X-48724557Y27434481D02*
X-48658373Y27427963D01*
X-48545147Y27393616D01*
X-48488533Y27376443D01*
X-48349913Y27302348D01*
X-48332009Y27292778D01*
X-48296271Y27263448D01*
X-48194814Y27180186D01*
X-48111552Y27078729D01*
X-48082222Y27042991D01*
X-48082221Y27042989D01*
X-47998557Y26886467D01*
X-47998557Y26886466D01*
X-47947037Y26716627D01*
X-47929641Y26540000D01*
X-47947037Y26363373D01*
X-47969598Y26289000D01*
X-47998557Y26193533D01*
X-48072652Y26054913D01*
X-48082222Y26037009D01*
X-48111552Y26001271D01*
X-48194814Y25899814D01*
X-48296271Y25816552D01*
X-48332009Y25787222D01*
X-48332011Y25787221D01*
X-48488533Y25703557D01*
X-48545147Y25686384D01*
X-48658373Y25652037D01*
X-48694631Y25648466D01*
X-48790740Y25639000D01*
X-49129260Y25639000D01*
X-49225369Y25648466D01*
X-49261627Y25652037D01*
X-49374853Y25686384D01*
X-49431467Y25703557D01*
X-49587989Y25787221D01*
X-49587991Y25787222D01*
X-49623729Y25816552D01*
X-49725186Y25899814D01*
X-49808448Y26001271D01*
X-49837778Y26037009D01*
X-49847348Y26054913D01*
X-49921443Y26193533D01*
X-49950402Y26289000D01*
X-49972963Y26363373D01*
X-49990359Y26540000D01*
X-49972963Y26716627D01*
X-49921443Y26886466D01*
X-49921443Y26886467D01*
X-49837779Y27042989D01*
X-49837778Y27042991D01*
X-49808448Y27078729D01*
X-49725186Y27180186D01*
X-49623729Y27263448D01*
X-49587991Y27292778D01*
X-49570087Y27302348D01*
X-49431467Y27376443D01*
X-49374853Y27393616D01*
X-49261627Y27427963D01*
X-49195443Y27434481D01*
X-49129260Y27441000D01*
X-48790740Y27441000D01*
X-48724557Y27434481D01*
X-48724557Y27434481D01*
G37*
G36*
X-39496323Y27786535D02*
X-39458636Y27775102D01*
X-39423897Y27756534D01*
X-39393452Y27731548D01*
X-39368466Y27701103D01*
X-39349898Y27666364D01*
X-39338465Y27628677D01*
X-39334000Y27583339D01*
X-39334000Y26496661D01*
X-39338465Y26451323D01*
X-39349898Y26413636D01*
X-39368466Y26378897D01*
X-39393452Y26348452D01*
X-39423897Y26323466D01*
X-39458636Y26304898D01*
X-39496323Y26293465D01*
X-39541661Y26289000D01*
X-40378339Y26289000D01*
X-40423677Y26293465D01*
X-40461364Y26304898D01*
X-40496103Y26323466D01*
X-40526548Y26348452D01*
X-40551534Y26378897D01*
X-40570102Y26413636D01*
X-40581535Y26451323D01*
X-40586000Y26496661D01*
X-40586000Y27583339D01*
X-40581535Y27628677D01*
X-40570102Y27666364D01*
X-40551534Y27701103D01*
X-40526548Y27731548D01*
X-40496103Y27756534D01*
X-40461364Y27775102D01*
X-40423677Y27786535D01*
X-40378339Y27791000D01*
X-39541661Y27791000D01*
X-39496323Y27786535D01*
X-39496323Y27786535D01*
G37*
G36*
X-37446323Y27786535D02*
X-37408636Y27775102D01*
X-37373897Y27756534D01*
X-37343452Y27731548D01*
X-37318466Y27701103D01*
X-37299898Y27666364D01*
X-37288465Y27628677D01*
X-37284000Y27583339D01*
X-37284000Y26496661D01*
X-37288465Y26451323D01*
X-37299898Y26413636D01*
X-37318466Y26378897D01*
X-37343452Y26348452D01*
X-37373897Y26323466D01*
X-37408636Y26304898D01*
X-37446323Y26293465D01*
X-37491661Y26289000D01*
X-38328339Y26289000D01*
X-38373677Y26293465D01*
X-38411364Y26304898D01*
X-38446103Y26323466D01*
X-38476548Y26348452D01*
X-38501534Y26378897D01*
X-38520102Y26413636D01*
X-38531535Y26451323D01*
X-38536000Y26496661D01*
X-38536000Y27583339D01*
X-38531535Y27628677D01*
X-38520102Y27666364D01*
X-38501534Y27701103D01*
X-38476548Y27731548D01*
X-38446103Y27756534D01*
X-38411364Y27775102D01*
X-38373677Y27786535D01*
X-38328339Y27791000D01*
X-37491661Y27791000D01*
X-37446323Y27786535D01*
X-37446323Y27786535D01*
G37*
G36*
X-13921323Y29136535D02*
X-13883636Y29125102D01*
X-13848897Y29106534D01*
X-13818452Y29081548D01*
X-13793466Y29051103D01*
X-13774898Y29016364D01*
X-13763465Y28978677D01*
X-13759000Y28933339D01*
X-13759000Y27846661D01*
X-13763465Y27801323D01*
X-13774898Y27763636D01*
X-13793466Y27728897D01*
X-13818452Y27698452D01*
X-13848897Y27673466D01*
X-13883636Y27654898D01*
X-13921323Y27643465D01*
X-13966661Y27639000D01*
X-14803339Y27639000D01*
X-14848677Y27643465D01*
X-14886364Y27654898D01*
X-14921103Y27673466D01*
X-14951548Y27698452D01*
X-14976534Y27728897D01*
X-14995102Y27763636D01*
X-15006535Y27801323D01*
X-15011000Y27846661D01*
X-15011000Y28933339D01*
X-15006535Y28978677D01*
X-14995102Y29016364D01*
X-14976534Y29051103D01*
X-14951548Y29081548D01*
X-14921103Y29106534D01*
X-14886364Y29125102D01*
X-14848677Y29136535D01*
X-14803339Y29141000D01*
X-13966661Y29141000D01*
X-13921323Y29136535D01*
X-13921323Y29136535D01*
G37*
G36*
X-15971323Y29136535D02*
X-15933636Y29125102D01*
X-15898897Y29106534D01*
X-15868452Y29081548D01*
X-15843466Y29051103D01*
X-15824898Y29016364D01*
X-15813465Y28978677D01*
X-15809000Y28933339D01*
X-15809000Y27846661D01*
X-15813465Y27801323D01*
X-15824898Y27763636D01*
X-15843466Y27728897D01*
X-15868452Y27698452D01*
X-15898897Y27673466D01*
X-15933636Y27654898D01*
X-15971323Y27643465D01*
X-16016661Y27639000D01*
X-16853339Y27639000D01*
X-16898677Y27643465D01*
X-16936364Y27654898D01*
X-16971103Y27673466D01*
X-17001548Y27698452D01*
X-17026534Y27728897D01*
X-17045102Y27763636D01*
X-17056535Y27801323D01*
X-17061000Y27846661D01*
X-17061000Y28933339D01*
X-17056535Y28978677D01*
X-17045102Y29016364D01*
X-17026534Y29051103D01*
X-17001548Y29081548D01*
X-16971103Y29106534D01*
X-16936364Y29125102D01*
X-16898677Y29136535D01*
X-16853339Y29141000D01*
X-16016661Y29141000D01*
X-15971323Y29136535D01*
X-15971323Y29136535D01*
G37*
G36*
X-821323Y29686535D02*
X-783636Y29675102D01*
X-748897Y29656534D01*
X-718452Y29631548D01*
X-693466Y29601103D01*
X-674898Y29566364D01*
X-663465Y29528677D01*
X-659000Y29483339D01*
X-659000Y28646661D01*
X-663465Y28601323D01*
X-674898Y28563636D01*
X-693466Y28528897D01*
X-718452Y28498452D01*
X-748897Y28473466D01*
X-783636Y28454898D01*
X-821323Y28443465D01*
X-866661Y28439000D01*
X-1953339Y28439000D01*
X-1998677Y28443465D01*
X-2036364Y28454898D01*
X-2071103Y28473466D01*
X-2101548Y28498452D01*
X-2126534Y28528897D01*
X-2145102Y28563636D01*
X-2156535Y28601323D01*
X-2161000Y28646661D01*
X-2161000Y29483339D01*
X-2156535Y29528677D01*
X-2145102Y29566364D01*
X-2126534Y29601103D01*
X-2101548Y29631548D01*
X-2071103Y29656534D01*
X-2036364Y29675102D01*
X-1998677Y29686535D01*
X-1953339Y29691000D01*
X-866661Y29691000D01*
X-821323Y29686535D01*
X-821323Y29686535D01*
G37*
G36*
X-7639000Y28739000D02*
X-10241000Y28739000D01*
X-10241000Y29841000D01*
X-7639000Y29841000D01*
X-7639000Y28739000D01*
X-7639000Y28739000D01*
G37*
G36*
X-40953435Y31050611D02*
X-40762166Y30971385D01*
X-40590024Y30856363D01*
X-40443637Y30709976D01*
X-40328615Y30537834D01*
X-40249389Y30346565D01*
X-40209000Y30143516D01*
X-40209000Y29936484D01*
X-40249389Y29733435D01*
X-40328615Y29542166D01*
X-40443637Y29370024D01*
X-40590024Y29223637D01*
X-40762166Y29108615D01*
X-40953435Y29029389D01*
X-41156484Y28989000D01*
X-41363516Y28989000D01*
X-41566565Y29029389D01*
X-41757834Y29108615D01*
X-41929976Y29223637D01*
X-42076363Y29370024D01*
X-42191385Y29542166D01*
X-42270611Y29733435D01*
X-42311000Y29936484D01*
X-42311000Y30143516D01*
X-42270611Y30346565D01*
X-42191385Y30537834D01*
X-42076363Y30709976D01*
X-41929976Y30856363D01*
X-41757834Y30971385D01*
X-41566565Y31050611D01*
X-41363516Y31091000D01*
X-41156484Y31091000D01*
X-40953435Y31050611D01*
X-40953435Y31050611D01*
G37*
G36*
X-36453435Y31050611D02*
X-36262166Y30971385D01*
X-36090024Y30856363D01*
X-35943637Y30709976D01*
X-35828615Y30537834D01*
X-35749389Y30346565D01*
X-35709000Y30143516D01*
X-35709000Y29936484D01*
X-35749389Y29733435D01*
X-35828615Y29542166D01*
X-35943637Y29370024D01*
X-36090024Y29223637D01*
X-36262166Y29108615D01*
X-36453435Y29029389D01*
X-36656484Y28989000D01*
X-36863516Y28989000D01*
X-37066565Y29029389D01*
X-37257834Y29108615D01*
X-37429976Y29223637D01*
X-37576363Y29370024D01*
X-37691385Y29542166D01*
X-37770611Y29733435D01*
X-37811000Y29936484D01*
X-37811000Y30143516D01*
X-37770611Y30346565D01*
X-37691385Y30537834D01*
X-37576363Y30709976D01*
X-37429976Y30856363D01*
X-37257834Y30971385D01*
X-37066565Y31050611D01*
X-36863516Y31091000D01*
X-36656484Y31091000D01*
X-36453435Y31050611D01*
X-36453435Y31050611D01*
G37*
G36*
X-11321323Y30361535D02*
X-11283636Y30350102D01*
X-11248897Y30331534D01*
X-11218452Y30306548D01*
X-11193466Y30276103D01*
X-11174898Y30241364D01*
X-11163465Y30203677D01*
X-11159000Y30158339D01*
X-11159000Y29321661D01*
X-11163465Y29276323D01*
X-11174898Y29238636D01*
X-11193466Y29203897D01*
X-11218452Y29173452D01*
X-11248897Y29148466D01*
X-11283636Y29129898D01*
X-11321323Y29118465D01*
X-11366661Y29114000D01*
X-12453339Y29114000D01*
X-12498677Y29118465D01*
X-12536364Y29129898D01*
X-12571103Y29148466D01*
X-12601548Y29173452D01*
X-12626534Y29203897D01*
X-12645102Y29238636D01*
X-12656535Y29276323D01*
X-12661000Y29321661D01*
X-12661000Y30158339D01*
X-12656535Y30203677D01*
X-12645102Y30241364D01*
X-12626534Y30276103D01*
X-12601548Y30306548D01*
X-12571103Y30331534D01*
X-12536364Y30350102D01*
X-12498677Y30361535D01*
X-12453339Y30366000D01*
X-11366661Y30366000D01*
X-11321323Y30361535D01*
X-11321323Y30361535D01*
G37*
G36*
X-6882934Y31896554D02*
X-6867388Y31877612D01*
X-6848446Y31862066D01*
X-6826835Y31850515D01*
X-6803386Y31843402D01*
X-6779000Y31841000D01*
X-2929000Y31841000D01*
X-2929000Y29739000D01*
X-6779000Y29739000D01*
X-6803386Y29736598D01*
X-6826835Y29729485D01*
X-6848446Y29717934D01*
X-6867388Y29702388D01*
X-6882934Y29683446D01*
X-6884032Y29681392D01*
X-6938952Y29718006D01*
X-6960575Y29729535D01*
X-6984031Y29736624D01*
X-7008289Y29739000D01*
X-7034051Y29739000D01*
X-7040515Y29760309D01*
X-7052066Y29781920D01*
X-7067612Y29800862D01*
X-7086662Y29816480D01*
X-7444662Y30055147D01*
X-7456573Y30061498D01*
X-7466951Y30070006D01*
X-7688951Y30218006D01*
X-7710574Y30229535D01*
X-7734031Y30236624D01*
X-7758289Y30239000D01*
X-10241000Y30239000D01*
X-10241000Y31341000D01*
X-7758289Y31341000D01*
X-7733903Y31343402D01*
X-7710454Y31350515D01*
X-7688951Y31361994D01*
X-7466951Y31509994D01*
X-7456567Y31518498D01*
X-7444662Y31524853D01*
X-7086662Y31763520D01*
X-7067704Y31779045D01*
X-7052139Y31797971D01*
X-7040565Y31819570D01*
X-7034040Y31841000D01*
X-7008289Y31841000D01*
X-6983903Y31843402D01*
X-6960454Y31850515D01*
X-6938952Y31861994D01*
X-6884032Y31898608D01*
X-6882934Y31896554D01*
X-6882934Y31896554D01*
G37*
G36*
X-821323Y31736535D02*
X-783636Y31725102D01*
X-748897Y31706534D01*
X-718452Y31681548D01*
X-693466Y31651103D01*
X-674898Y31616364D01*
X-663465Y31578677D01*
X-659000Y31533339D01*
X-659000Y30696661D01*
X-663465Y30651323D01*
X-674898Y30613636D01*
X-693466Y30578897D01*
X-718452Y30548452D01*
X-748897Y30523466D01*
X-783636Y30504898D01*
X-821323Y30493465D01*
X-866661Y30489000D01*
X-1953339Y30489000D01*
X-1998677Y30493465D01*
X-2036364Y30504898D01*
X-2071103Y30523466D01*
X-2101548Y30548452D01*
X-2126534Y30578897D01*
X-2145102Y30613636D01*
X-2156535Y30651323D01*
X-2161000Y30696661D01*
X-2161000Y31533339D01*
X-2156535Y31578677D01*
X-2145102Y31616364D01*
X-2126534Y31651103D01*
X-2101548Y31681548D01*
X-2071103Y31706534D01*
X-2036364Y31725102D01*
X-1998677Y31736535D01*
X-1953339Y31741000D01*
X-866661Y31741000D01*
X-821323Y31736535D01*
X-821323Y31736535D01*
G37*
G36*
X-11321323Y32411535D02*
X-11283636Y32400102D01*
X-11248897Y32381534D01*
X-11218452Y32356548D01*
X-11193466Y32326103D01*
X-11174898Y32291364D01*
X-11163465Y32253677D01*
X-11159000Y32208339D01*
X-11159000Y31371661D01*
X-11163465Y31326323D01*
X-11174898Y31288636D01*
X-11193466Y31253897D01*
X-11218452Y31223452D01*
X-11248897Y31198466D01*
X-11283636Y31179898D01*
X-11321323Y31168465D01*
X-11366661Y31164000D01*
X-12453339Y31164000D01*
X-12498677Y31168465D01*
X-12536364Y31179898D01*
X-12571103Y31198466D01*
X-12601548Y31223452D01*
X-12626534Y31253897D01*
X-12645102Y31288636D01*
X-12656535Y31326323D01*
X-12661000Y31371661D01*
X-12661000Y32208339D01*
X-12656535Y32253677D01*
X-12645102Y32291364D01*
X-12626534Y32326103D01*
X-12601548Y32356548D01*
X-12571103Y32381534D01*
X-12536364Y32400102D01*
X-12498677Y32411535D01*
X-12453339Y32416000D01*
X-11366661Y32416000D01*
X-11321323Y32411535D01*
X-11321323Y32411535D01*
G37*
G36*
X-7639000Y31739000D02*
X-10241000Y31739000D01*
X-10241000Y32841000D01*
X-7639000Y32841000D01*
X-7639000Y31739000D01*
X-7639000Y31739000D01*
G37*
G36*
X-32971323Y33836535D02*
X-32933636Y33825102D01*
X-32898897Y33806534D01*
X-32868452Y33781548D01*
X-32843466Y33751103D01*
X-32824898Y33716364D01*
X-32813465Y33678677D01*
X-32809000Y33633339D01*
X-32809000Y32796661D01*
X-32813465Y32751323D01*
X-32824898Y32713636D01*
X-32843466Y32678897D01*
X-32868452Y32648452D01*
X-32898897Y32623466D01*
X-32933636Y32604898D01*
X-32971323Y32593465D01*
X-33016661Y32589000D01*
X-34103339Y32589000D01*
X-34148677Y32593465D01*
X-34186364Y32604898D01*
X-34221103Y32623466D01*
X-34251548Y32648452D01*
X-34276534Y32678897D01*
X-34295102Y32713636D01*
X-34306535Y32751323D01*
X-34311000Y32796661D01*
X-34311000Y33633339D01*
X-34306535Y33678677D01*
X-34295102Y33716364D01*
X-34276534Y33751103D01*
X-34251548Y33781548D01*
X-34221103Y33806534D01*
X-34186364Y33825102D01*
X-34148677Y33836535D01*
X-34103339Y33841000D01*
X-33016661Y33841000D01*
X-32971323Y33836535D01*
X-32971323Y33836535D01*
G37*
G36*
X-48799557Y34384481D02*
X-48733373Y34377963D01*
X-48620147Y34343616D01*
X-48563533Y34326443D01*
X-48424913Y34252348D01*
X-48407009Y34242778D01*
X-48371271Y34213448D01*
X-48269814Y34130186D01*
X-48186552Y34028729D01*
X-48157222Y33992991D01*
X-48157221Y33992989D01*
X-48073557Y33836467D01*
X-48064477Y33806534D01*
X-48022037Y33666627D01*
X-48004641Y33490000D01*
X-48022037Y33313373D01*
X-48056384Y33200147D01*
X-48073557Y33143533D01*
X-48122845Y33051323D01*
X-48157222Y32987009D01*
X-48172233Y32968718D01*
X-48269814Y32849814D01*
X-48371271Y32766552D01*
X-48407009Y32737222D01*
X-48407011Y32737221D01*
X-48563533Y32653557D01*
X-48620147Y32636384D01*
X-48733373Y32602037D01*
X-48799557Y32595519D01*
X-48865740Y32589000D01*
X-48954260Y32589000D01*
X-49020443Y32595519D01*
X-49086627Y32602037D01*
X-49199853Y32636384D01*
X-49256467Y32653557D01*
X-49412989Y32737221D01*
X-49412991Y32737222D01*
X-49448729Y32766552D01*
X-49550186Y32849814D01*
X-49647767Y32968718D01*
X-49662778Y32987009D01*
X-49697155Y33051323D01*
X-49746443Y33143533D01*
X-49763616Y33200147D01*
X-49797963Y33313373D01*
X-49815359Y33490000D01*
X-49797963Y33666627D01*
X-49755523Y33806534D01*
X-49746443Y33836467D01*
X-49662779Y33992989D01*
X-49662778Y33992991D01*
X-49633448Y34028729D01*
X-49550186Y34130186D01*
X-49448729Y34213448D01*
X-49412991Y34242778D01*
X-49395087Y34252348D01*
X-49256467Y34326443D01*
X-49199853Y34343616D01*
X-49086627Y34377963D01*
X-49020443Y34384481D01*
X-48954260Y34391000D01*
X-48865740Y34391000D01*
X-48799557Y34384481D01*
X-48799557Y34384481D01*
G37*
G36*
X-44421323Y34136535D02*
X-44383636Y34125102D01*
X-44348897Y34106534D01*
X-44318452Y34081548D01*
X-44293466Y34051103D01*
X-44274898Y34016364D01*
X-44263465Y33978677D01*
X-44259000Y33933339D01*
X-44259000Y33096661D01*
X-44263465Y33051323D01*
X-44274898Y33013636D01*
X-44293466Y32978897D01*
X-44318452Y32948452D01*
X-44348897Y32923466D01*
X-44383636Y32904898D01*
X-44421323Y32893465D01*
X-44466661Y32889000D01*
X-45553339Y32889000D01*
X-45598677Y32893465D01*
X-45636364Y32904898D01*
X-45671103Y32923466D01*
X-45701548Y32948452D01*
X-45726534Y32978897D01*
X-45745102Y33013636D01*
X-45756535Y33051323D01*
X-45761000Y33096661D01*
X-45761000Y33933339D01*
X-45756535Y33978677D01*
X-45745102Y34016364D01*
X-45726534Y34051103D01*
X-45701548Y34081548D01*
X-45671103Y34106534D01*
X-45636364Y34125102D01*
X-45598677Y34136535D01*
X-45553339Y34141000D01*
X-44466661Y34141000D01*
X-44421323Y34136535D01*
X-44421323Y34136535D01*
G37*
G36*
X-32971323Y35886535D02*
X-32933636Y35875102D01*
X-32898897Y35856534D01*
X-32868452Y35831548D01*
X-32843466Y35801103D01*
X-32824898Y35766364D01*
X-32813465Y35728677D01*
X-32809000Y35683339D01*
X-32809000Y34846661D01*
X-32813465Y34801323D01*
X-32824898Y34763636D01*
X-32843466Y34728897D01*
X-32868452Y34698452D01*
X-32898897Y34673466D01*
X-32933636Y34654898D01*
X-32971323Y34643465D01*
X-33016661Y34639000D01*
X-34103339Y34639000D01*
X-34148677Y34643465D01*
X-34186364Y34654898D01*
X-34221103Y34673466D01*
X-34251548Y34698452D01*
X-34276534Y34728897D01*
X-34295102Y34763636D01*
X-34306535Y34801323D01*
X-34311000Y34846661D01*
X-34311000Y35683339D01*
X-34306535Y35728677D01*
X-34295102Y35766364D01*
X-34276534Y35801103D01*
X-34251548Y35831548D01*
X-34221103Y35856534D01*
X-34186364Y35875102D01*
X-34148677Y35886535D01*
X-34103339Y35891000D01*
X-33016661Y35891000D01*
X-32971323Y35886535D01*
X-32971323Y35886535D01*
G37*
G36*
X-44421323Y36186535D02*
X-44383636Y36175102D01*
X-44348897Y36156534D01*
X-44318452Y36131548D01*
X-44293466Y36101103D01*
X-44274898Y36066364D01*
X-44263465Y36028677D01*
X-44259000Y35983339D01*
X-44259000Y35146661D01*
X-44263465Y35101323D01*
X-44274898Y35063636D01*
X-44293466Y35028897D01*
X-44318452Y34998452D01*
X-44348897Y34973466D01*
X-44383636Y34954898D01*
X-44421323Y34943465D01*
X-44466661Y34939000D01*
X-45553339Y34939000D01*
X-45598677Y34943465D01*
X-45636364Y34954898D01*
X-45671103Y34973466D01*
X-45701548Y34998452D01*
X-45726534Y35028897D01*
X-45745102Y35063636D01*
X-45756535Y35101323D01*
X-45761000Y35146661D01*
X-45761000Y35983339D01*
X-45756535Y36028677D01*
X-45745102Y36066364D01*
X-45726534Y36101103D01*
X-45701548Y36131548D01*
X-45671103Y36156534D01*
X-45636364Y36175102D01*
X-45598677Y36186535D01*
X-45553339Y36191000D01*
X-44466661Y36191000D01*
X-44421323Y36186535D01*
X-44421323Y36186535D01*
G37*
G36*
X-48009000Y35129000D02*
X-49811000Y35129000D01*
X-49811000Y36931000D01*
X-48009000Y36931000D01*
X-48009000Y35129000D01*
X-48009000Y35129000D01*
G37*
G36*
X-40953435Y37550611D02*
X-40762166Y37471385D01*
X-40590024Y37356363D01*
X-40443637Y37209976D01*
X-40328615Y37037834D01*
X-40249389Y36846565D01*
X-40209000Y36643516D01*
X-40209000Y36436484D01*
X-40249389Y36233435D01*
X-40328615Y36042166D01*
X-40443637Y35870024D01*
X-40590024Y35723637D01*
X-40762166Y35608615D01*
X-40953435Y35529389D01*
X-41156484Y35489000D01*
X-41363516Y35489000D01*
X-41566565Y35529389D01*
X-41757834Y35608615D01*
X-41929976Y35723637D01*
X-42076363Y35870024D01*
X-42191385Y36042166D01*
X-42270611Y36233435D01*
X-42311000Y36436484D01*
X-42311000Y36643516D01*
X-42270611Y36846565D01*
X-42191385Y37037834D01*
X-42076363Y37209976D01*
X-41929976Y37356363D01*
X-41757834Y37471385D01*
X-41566565Y37550611D01*
X-41363516Y37591000D01*
X-41156484Y37591000D01*
X-40953435Y37550611D01*
X-40953435Y37550611D01*
G37*
G36*
X-36453435Y37550611D02*
X-36262166Y37471385D01*
X-36090024Y37356363D01*
X-35943637Y37209976D01*
X-35828615Y37037834D01*
X-35749389Y36846565D01*
X-35709000Y36643516D01*
X-35709000Y36436484D01*
X-35749389Y36233435D01*
X-35828615Y36042166D01*
X-35943637Y35870024D01*
X-36090024Y35723637D01*
X-36262166Y35608615D01*
X-36453435Y35529389D01*
X-36656484Y35489000D01*
X-36863516Y35489000D01*
X-37066565Y35529389D01*
X-37257834Y35608615D01*
X-37429976Y35723637D01*
X-37576363Y35870024D01*
X-37691385Y36042166D01*
X-37770611Y36233435D01*
X-37811000Y36436484D01*
X-37811000Y36643516D01*
X-37770611Y36846565D01*
X-37691385Y37037834D01*
X-37576363Y37209976D01*
X-37429976Y37356363D01*
X-37257834Y37471385D01*
X-37066565Y37550611D01*
X-36863516Y37591000D01*
X-36656484Y37591000D01*
X-36453435Y37550611D01*
X-36453435Y37550611D01*
G37*
G36*
X-20269557Y41534481D02*
X-20203373Y41527963D01*
X-20090147Y41493616D01*
X-20033533Y41476443D01*
X-19894913Y41402348D01*
X-19877009Y41392778D01*
X-19841271Y41363448D01*
X-19739814Y41280186D01*
X-19656552Y41178729D01*
X-19627222Y41142991D01*
X-19627221Y41142989D01*
X-19543557Y40986467D01*
X-19543557Y40986466D01*
X-19492037Y40816627D01*
X-19474641Y40640000D01*
X-19492037Y40463373D01*
X-19526384Y40350147D01*
X-19543557Y40293533D01*
X-19617652Y40154913D01*
X-19627222Y40137009D01*
X-19656552Y40101271D01*
X-19739814Y39999814D01*
X-19841271Y39916552D01*
X-19877009Y39887222D01*
X-19877011Y39887221D01*
X-20033533Y39803557D01*
X-20090147Y39786384D01*
X-20203373Y39752037D01*
X-20269558Y39745518D01*
X-20335740Y39739000D01*
X-20424260Y39739000D01*
X-20490442Y39745518D01*
X-20556627Y39752037D01*
X-20669853Y39786384D01*
X-20726467Y39803557D01*
X-20882989Y39887221D01*
X-20882991Y39887222D01*
X-20918729Y39916552D01*
X-21020186Y39999814D01*
X-21103448Y40101271D01*
X-21132778Y40137009D01*
X-21142348Y40154913D01*
X-21216443Y40293533D01*
X-21233616Y40350147D01*
X-21267963Y40463373D01*
X-21285359Y40640000D01*
X-21267963Y40816627D01*
X-21216443Y40986466D01*
X-21216443Y40986467D01*
X-21132779Y41142989D01*
X-21132778Y41142991D01*
X-21103448Y41178729D01*
X-21020186Y41280186D01*
X-20918729Y41363448D01*
X-20882991Y41392778D01*
X-20865087Y41402348D01*
X-20726467Y41476443D01*
X-20669853Y41493616D01*
X-20556627Y41527963D01*
X-20490443Y41534481D01*
X-20424260Y41541000D01*
X-20335740Y41541000D01*
X-20269557Y41534481D01*
X-20269557Y41534481D01*
G37*
G36*
X-7569557Y41534481D02*
X-7503373Y41527963D01*
X-7390147Y41493616D01*
X-7333533Y41476443D01*
X-7194913Y41402348D01*
X-7177009Y41392778D01*
X-7141271Y41363448D01*
X-7039814Y41280186D01*
X-6956552Y41178729D01*
X-6927222Y41142991D01*
X-6927221Y41142989D01*
X-6843557Y40986467D01*
X-6843557Y40986466D01*
X-6792037Y40816627D01*
X-6774641Y40640000D01*
X-6792037Y40463373D01*
X-6826384Y40350147D01*
X-6843557Y40293533D01*
X-6917652Y40154913D01*
X-6927222Y40137009D01*
X-6956552Y40101271D01*
X-7039814Y39999814D01*
X-7141271Y39916552D01*
X-7177009Y39887222D01*
X-7177011Y39887221D01*
X-7333533Y39803557D01*
X-7390147Y39786384D01*
X-7503373Y39752037D01*
X-7569558Y39745518D01*
X-7635740Y39739000D01*
X-7724260Y39739000D01*
X-7790442Y39745518D01*
X-7856627Y39752037D01*
X-7969853Y39786384D01*
X-8026467Y39803557D01*
X-8182989Y39887221D01*
X-8182991Y39887222D01*
X-8218729Y39916552D01*
X-8320186Y39999814D01*
X-8403448Y40101271D01*
X-8432778Y40137009D01*
X-8442348Y40154913D01*
X-8516443Y40293533D01*
X-8533616Y40350147D01*
X-8567963Y40463373D01*
X-8585359Y40640000D01*
X-8567963Y40816627D01*
X-8516443Y40986466D01*
X-8516443Y40986467D01*
X-8432779Y41142989D01*
X-8432778Y41142991D01*
X-8403448Y41178729D01*
X-8320186Y41280186D01*
X-8218729Y41363448D01*
X-8182991Y41392778D01*
X-8165087Y41402348D01*
X-8026467Y41476443D01*
X-7969853Y41493616D01*
X-7856627Y41527963D01*
X-7790443Y41534481D01*
X-7724260Y41541000D01*
X-7635740Y41541000D01*
X-7569557Y41534481D01*
X-7569557Y41534481D01*
G37*
G36*
X-5029557Y41534481D02*
X-4963373Y41527963D01*
X-4850147Y41493616D01*
X-4793533Y41476443D01*
X-4654913Y41402348D01*
X-4637009Y41392778D01*
X-4601271Y41363448D01*
X-4499814Y41280186D01*
X-4416552Y41178729D01*
X-4387222Y41142991D01*
X-4387221Y41142989D01*
X-4303557Y40986467D01*
X-4303557Y40986466D01*
X-4252037Y40816627D01*
X-4234641Y40640000D01*
X-4252037Y40463373D01*
X-4286384Y40350147D01*
X-4303557Y40293533D01*
X-4377652Y40154913D01*
X-4387222Y40137009D01*
X-4416552Y40101271D01*
X-4499814Y39999814D01*
X-4601271Y39916552D01*
X-4637009Y39887222D01*
X-4637011Y39887221D01*
X-4793533Y39803557D01*
X-4850147Y39786384D01*
X-4963373Y39752037D01*
X-5029558Y39745518D01*
X-5095740Y39739000D01*
X-5184260Y39739000D01*
X-5250442Y39745518D01*
X-5316627Y39752037D01*
X-5429853Y39786384D01*
X-5486467Y39803557D01*
X-5642989Y39887221D01*
X-5642991Y39887222D01*
X-5678729Y39916552D01*
X-5780186Y39999814D01*
X-5863448Y40101271D01*
X-5892778Y40137009D01*
X-5902348Y40154913D01*
X-5976443Y40293533D01*
X-5993616Y40350147D01*
X-6027963Y40463373D01*
X-6045359Y40640000D01*
X-6027963Y40816627D01*
X-5976443Y40986466D01*
X-5976443Y40986467D01*
X-5892779Y41142989D01*
X-5892778Y41142991D01*
X-5863448Y41178729D01*
X-5780186Y41280186D01*
X-5678729Y41363448D01*
X-5642991Y41392778D01*
X-5625087Y41402348D01*
X-5486467Y41476443D01*
X-5429853Y41493616D01*
X-5316627Y41527963D01*
X-5250443Y41534481D01*
X-5184260Y41541000D01*
X-5095740Y41541000D01*
X-5029557Y41534481D01*
X-5029557Y41534481D01*
G37*
G36*
X841000Y39739000D02*
X-961000Y39739000D01*
X-961000Y41541000D01*
X841000Y41541000D01*
X841000Y39739000D01*
X841000Y39739000D01*
G37*
G36*
X-2489557Y41534481D02*
X-2423373Y41527963D01*
X-2310147Y41493616D01*
X-2253533Y41476443D01*
X-2114913Y41402348D01*
X-2097009Y41392778D01*
X-2061271Y41363448D01*
X-1959814Y41280186D01*
X-1876552Y41178729D01*
X-1847222Y41142991D01*
X-1847221Y41142989D01*
X-1763557Y40986467D01*
X-1763557Y40986466D01*
X-1712037Y40816627D01*
X-1694641Y40640000D01*
X-1712037Y40463373D01*
X-1746384Y40350147D01*
X-1763557Y40293533D01*
X-1837652Y40154913D01*
X-1847222Y40137009D01*
X-1876552Y40101271D01*
X-1959814Y39999814D01*
X-2061271Y39916552D01*
X-2097009Y39887222D01*
X-2097011Y39887221D01*
X-2253533Y39803557D01*
X-2310147Y39786384D01*
X-2423373Y39752037D01*
X-2489558Y39745518D01*
X-2555740Y39739000D01*
X-2644260Y39739000D01*
X-2710442Y39745518D01*
X-2776627Y39752037D01*
X-2889853Y39786384D01*
X-2946467Y39803557D01*
X-3102989Y39887221D01*
X-3102991Y39887222D01*
X-3138729Y39916552D01*
X-3240186Y39999814D01*
X-3323448Y40101271D01*
X-3352778Y40137009D01*
X-3362348Y40154913D01*
X-3436443Y40293533D01*
X-3453616Y40350147D01*
X-3487963Y40463373D01*
X-3505359Y40640000D01*
X-3487963Y40816627D01*
X-3436443Y40986466D01*
X-3436443Y40986467D01*
X-3352779Y41142989D01*
X-3352778Y41142991D01*
X-3323448Y41178729D01*
X-3240186Y41280186D01*
X-3138729Y41363448D01*
X-3102991Y41392778D01*
X-3085087Y41402348D01*
X-2946467Y41476443D01*
X-2889853Y41493616D01*
X-2776627Y41527963D01*
X-2710443Y41534481D01*
X-2644260Y41541000D01*
X-2555740Y41541000D01*
X-2489557Y41534481D01*
X-2489557Y41534481D01*
G37*
G36*
X-22809557Y41534481D02*
X-22743373Y41527963D01*
X-22630147Y41493616D01*
X-22573533Y41476443D01*
X-22434913Y41402348D01*
X-22417009Y41392778D01*
X-22381271Y41363448D01*
X-22279814Y41280186D01*
X-22196552Y41178729D01*
X-22167222Y41142991D01*
X-22167221Y41142989D01*
X-22083557Y40986467D01*
X-22083557Y40986466D01*
X-22032037Y40816627D01*
X-22014641Y40640000D01*
X-22032037Y40463373D01*
X-22066384Y40350147D01*
X-22083557Y40293533D01*
X-22157652Y40154913D01*
X-22167222Y40137009D01*
X-22196552Y40101271D01*
X-22279814Y39999814D01*
X-22381271Y39916552D01*
X-22417009Y39887222D01*
X-22417011Y39887221D01*
X-22573533Y39803557D01*
X-22630147Y39786384D01*
X-22743373Y39752037D01*
X-22809558Y39745518D01*
X-22875740Y39739000D01*
X-22964260Y39739000D01*
X-23030442Y39745518D01*
X-23096627Y39752037D01*
X-23209853Y39786384D01*
X-23266467Y39803557D01*
X-23422989Y39887221D01*
X-23422991Y39887222D01*
X-23458729Y39916552D01*
X-23560186Y39999814D01*
X-23643448Y40101271D01*
X-23672778Y40137009D01*
X-23682348Y40154913D01*
X-23756443Y40293533D01*
X-23773616Y40350147D01*
X-23807963Y40463373D01*
X-23825359Y40640000D01*
X-23807963Y40816627D01*
X-23756443Y40986466D01*
X-23756443Y40986467D01*
X-23672779Y41142989D01*
X-23672778Y41142991D01*
X-23643448Y41178729D01*
X-23560186Y41280186D01*
X-23458729Y41363448D01*
X-23422991Y41392778D01*
X-23405087Y41402348D01*
X-23266467Y41476443D01*
X-23209853Y41493616D01*
X-23096627Y41527963D01*
X-23030443Y41534481D01*
X-22964260Y41541000D01*
X-22875740Y41541000D01*
X-22809557Y41534481D01*
X-22809557Y41534481D01*
G37*
G36*
X-10109557Y41534481D02*
X-10043373Y41527963D01*
X-9930147Y41493616D01*
X-9873533Y41476443D01*
X-9734913Y41402348D01*
X-9717009Y41392778D01*
X-9681271Y41363448D01*
X-9579814Y41280186D01*
X-9496552Y41178729D01*
X-9467222Y41142991D01*
X-9467221Y41142989D01*
X-9383557Y40986467D01*
X-9383557Y40986466D01*
X-9332037Y40816627D01*
X-9314641Y40640000D01*
X-9332037Y40463373D01*
X-9366384Y40350147D01*
X-9383557Y40293533D01*
X-9457652Y40154913D01*
X-9467222Y40137009D01*
X-9496552Y40101271D01*
X-9579814Y39999814D01*
X-9681271Y39916552D01*
X-9717009Y39887222D01*
X-9717011Y39887221D01*
X-9873533Y39803557D01*
X-9930147Y39786384D01*
X-10043373Y39752037D01*
X-10109558Y39745518D01*
X-10175740Y39739000D01*
X-10264260Y39739000D01*
X-10330442Y39745518D01*
X-10396627Y39752037D01*
X-10509853Y39786384D01*
X-10566467Y39803557D01*
X-10722989Y39887221D01*
X-10722991Y39887222D01*
X-10758729Y39916552D01*
X-10860186Y39999814D01*
X-10943448Y40101271D01*
X-10972778Y40137009D01*
X-10982348Y40154913D01*
X-11056443Y40293533D01*
X-11073616Y40350147D01*
X-11107963Y40463373D01*
X-11125359Y40640000D01*
X-11107963Y40816627D01*
X-11056443Y40986466D01*
X-11056443Y40986467D01*
X-10972779Y41142989D01*
X-10972778Y41142991D01*
X-10943448Y41178729D01*
X-10860186Y41280186D01*
X-10758729Y41363448D01*
X-10722991Y41392778D01*
X-10705087Y41402348D01*
X-10566467Y41476443D01*
X-10509853Y41493616D01*
X-10396627Y41527963D01*
X-10330443Y41534481D01*
X-10264260Y41541000D01*
X-10175740Y41541000D01*
X-10109557Y41534481D01*
X-10109557Y41534481D01*
G37*
G36*
X-17729557Y41534481D02*
X-17663373Y41527963D01*
X-17550147Y41493616D01*
X-17493533Y41476443D01*
X-17354913Y41402348D01*
X-17337009Y41392778D01*
X-17301271Y41363448D01*
X-17199814Y41280186D01*
X-17116552Y41178729D01*
X-17087222Y41142991D01*
X-17087221Y41142989D01*
X-17003557Y40986467D01*
X-17003557Y40986466D01*
X-16952037Y40816627D01*
X-16934641Y40640000D01*
X-16952037Y40463373D01*
X-16986384Y40350147D01*
X-17003557Y40293533D01*
X-17077652Y40154913D01*
X-17087222Y40137009D01*
X-17116552Y40101271D01*
X-17199814Y39999814D01*
X-17301271Y39916552D01*
X-17337009Y39887222D01*
X-17337011Y39887221D01*
X-17493533Y39803557D01*
X-17550147Y39786384D01*
X-17663373Y39752037D01*
X-17729558Y39745518D01*
X-17795740Y39739000D01*
X-17884260Y39739000D01*
X-17950442Y39745518D01*
X-18016627Y39752037D01*
X-18129853Y39786384D01*
X-18186467Y39803557D01*
X-18342989Y39887221D01*
X-18342991Y39887222D01*
X-18378729Y39916552D01*
X-18480186Y39999814D01*
X-18563448Y40101271D01*
X-18592778Y40137009D01*
X-18602348Y40154913D01*
X-18676443Y40293533D01*
X-18693616Y40350147D01*
X-18727963Y40463373D01*
X-18745359Y40640000D01*
X-18727963Y40816627D01*
X-18676443Y40986466D01*
X-18676443Y40986467D01*
X-18592779Y41142989D01*
X-18592778Y41142991D01*
X-18563448Y41178729D01*
X-18480186Y41280186D01*
X-18378729Y41363448D01*
X-18342991Y41392778D01*
X-18325087Y41402348D01*
X-18186467Y41476443D01*
X-18129853Y41493616D01*
X-18016627Y41527963D01*
X-17950443Y41534481D01*
X-17884260Y41541000D01*
X-17795740Y41541000D01*
X-17729557Y41534481D01*
X-17729557Y41534481D01*
G37*
G36*
X-15189557Y41534481D02*
X-15123373Y41527963D01*
X-15010147Y41493616D01*
X-14953533Y41476443D01*
X-14814913Y41402348D01*
X-14797009Y41392778D01*
X-14761271Y41363448D01*
X-14659814Y41280186D01*
X-14576552Y41178729D01*
X-14547222Y41142991D01*
X-14547221Y41142989D01*
X-14463557Y40986467D01*
X-14463557Y40986466D01*
X-14412037Y40816627D01*
X-14394641Y40640000D01*
X-14412037Y40463373D01*
X-14446384Y40350147D01*
X-14463557Y40293533D01*
X-14537652Y40154913D01*
X-14547222Y40137009D01*
X-14576552Y40101271D01*
X-14659814Y39999814D01*
X-14761271Y39916552D01*
X-14797009Y39887222D01*
X-14797011Y39887221D01*
X-14953533Y39803557D01*
X-15010147Y39786384D01*
X-15123373Y39752037D01*
X-15189558Y39745518D01*
X-15255740Y39739000D01*
X-15344260Y39739000D01*
X-15410442Y39745518D01*
X-15476627Y39752037D01*
X-15589853Y39786384D01*
X-15646467Y39803557D01*
X-15802989Y39887221D01*
X-15802991Y39887222D01*
X-15838729Y39916552D01*
X-15940186Y39999814D01*
X-16023448Y40101271D01*
X-16052778Y40137009D01*
X-16062348Y40154913D01*
X-16136443Y40293533D01*
X-16153616Y40350147D01*
X-16187963Y40463373D01*
X-16205359Y40640000D01*
X-16187963Y40816627D01*
X-16136443Y40986466D01*
X-16136443Y40986467D01*
X-16052779Y41142989D01*
X-16052778Y41142991D01*
X-16023448Y41178729D01*
X-15940186Y41280186D01*
X-15838729Y41363448D01*
X-15802991Y41392778D01*
X-15785087Y41402348D01*
X-15646467Y41476443D01*
X-15589853Y41493616D01*
X-15476627Y41527963D01*
X-15410443Y41534481D01*
X-15344260Y41541000D01*
X-15255740Y41541000D01*
X-15189557Y41534481D01*
X-15189557Y41534481D01*
G37*
G36*
X-12649557Y41534481D02*
X-12583373Y41527963D01*
X-12470147Y41493616D01*
X-12413533Y41476443D01*
X-12274913Y41402348D01*
X-12257009Y41392778D01*
X-12221271Y41363448D01*
X-12119814Y41280186D01*
X-12036552Y41178729D01*
X-12007222Y41142991D01*
X-12007221Y41142989D01*
X-11923557Y40986467D01*
X-11923557Y40986466D01*
X-11872037Y40816627D01*
X-11854641Y40640000D01*
X-11872037Y40463373D01*
X-11906384Y40350147D01*
X-11923557Y40293533D01*
X-11997652Y40154913D01*
X-12007222Y40137009D01*
X-12036552Y40101271D01*
X-12119814Y39999814D01*
X-12221271Y39916552D01*
X-12257009Y39887222D01*
X-12257011Y39887221D01*
X-12413533Y39803557D01*
X-12470147Y39786384D01*
X-12583373Y39752037D01*
X-12649558Y39745518D01*
X-12715740Y39739000D01*
X-12804260Y39739000D01*
X-12870442Y39745518D01*
X-12936627Y39752037D01*
X-13049853Y39786384D01*
X-13106467Y39803557D01*
X-13262989Y39887221D01*
X-13262991Y39887222D01*
X-13298729Y39916552D01*
X-13400186Y39999814D01*
X-13483448Y40101271D01*
X-13512778Y40137009D01*
X-13522348Y40154913D01*
X-13596443Y40293533D01*
X-13613616Y40350147D01*
X-13647963Y40463373D01*
X-13665359Y40640000D01*
X-13647963Y40816627D01*
X-13596443Y40986466D01*
X-13596443Y40986467D01*
X-13512779Y41142989D01*
X-13512778Y41142991D01*
X-13483448Y41178729D01*
X-13400186Y41280186D01*
X-13298729Y41363448D01*
X-13262991Y41392778D01*
X-13245087Y41402348D01*
X-13106467Y41476443D01*
X-13049853Y41493616D01*
X-12936627Y41527963D01*
X-12870443Y41534481D01*
X-12804260Y41541000D01*
X-12715740Y41541000D01*
X-12649557Y41534481D01*
X-12649557Y41534481D01*
G37*
G36*
X-48209557Y41534481D02*
X-48143373Y41527963D01*
X-48030147Y41493616D01*
X-47973533Y41476443D01*
X-47834913Y41402348D01*
X-47817009Y41392778D01*
X-47781271Y41363448D01*
X-47679814Y41280186D01*
X-47596552Y41178729D01*
X-47567222Y41142991D01*
X-47567221Y41142989D01*
X-47483557Y40986467D01*
X-47483557Y40986466D01*
X-47432037Y40816627D01*
X-47414641Y40640000D01*
X-47432037Y40463373D01*
X-47466384Y40350147D01*
X-47483557Y40293533D01*
X-47557652Y40154913D01*
X-47567222Y40137009D01*
X-47596552Y40101271D01*
X-47679814Y39999814D01*
X-47781271Y39916552D01*
X-47817009Y39887222D01*
X-47817011Y39887221D01*
X-47973533Y39803557D01*
X-48030147Y39786384D01*
X-48143373Y39752037D01*
X-48209558Y39745518D01*
X-48275740Y39739000D01*
X-48364260Y39739000D01*
X-48430442Y39745518D01*
X-48496627Y39752037D01*
X-48609853Y39786384D01*
X-48666467Y39803557D01*
X-48822989Y39887221D01*
X-48822991Y39887222D01*
X-48858729Y39916552D01*
X-48960186Y39999814D01*
X-49043448Y40101271D01*
X-49072778Y40137009D01*
X-49082348Y40154913D01*
X-49156443Y40293533D01*
X-49173616Y40350147D01*
X-49207963Y40463373D01*
X-49225359Y40640000D01*
X-49207963Y40816627D01*
X-49156443Y40986466D01*
X-49156443Y40986467D01*
X-49072779Y41142989D01*
X-49072778Y41142991D01*
X-49043448Y41178729D01*
X-48960186Y41280186D01*
X-48858729Y41363448D01*
X-48822991Y41392778D01*
X-48805087Y41402348D01*
X-48666467Y41476443D01*
X-48609853Y41493616D01*
X-48496627Y41527963D01*
X-48430443Y41534481D01*
X-48364260Y41541000D01*
X-48275740Y41541000D01*
X-48209557Y41534481D01*
X-48209557Y41534481D01*
G37*
G36*
X-45669557Y41534481D02*
X-45603373Y41527963D01*
X-45490147Y41493616D01*
X-45433533Y41476443D01*
X-45294913Y41402348D01*
X-45277009Y41392778D01*
X-45241271Y41363448D01*
X-45139814Y41280186D01*
X-45056552Y41178729D01*
X-45027222Y41142991D01*
X-45027221Y41142989D01*
X-44943557Y40986467D01*
X-44943557Y40986466D01*
X-44892037Y40816627D01*
X-44874641Y40640000D01*
X-44892037Y40463373D01*
X-44926384Y40350147D01*
X-44943557Y40293533D01*
X-45017652Y40154913D01*
X-45027222Y40137009D01*
X-45056552Y40101271D01*
X-45139814Y39999814D01*
X-45241271Y39916552D01*
X-45277009Y39887222D01*
X-45277011Y39887221D01*
X-45433533Y39803557D01*
X-45490147Y39786384D01*
X-45603373Y39752037D01*
X-45669558Y39745518D01*
X-45735740Y39739000D01*
X-45824260Y39739000D01*
X-45890442Y39745518D01*
X-45956627Y39752037D01*
X-46069853Y39786384D01*
X-46126467Y39803557D01*
X-46282989Y39887221D01*
X-46282991Y39887222D01*
X-46318729Y39916552D01*
X-46420186Y39999814D01*
X-46503448Y40101271D01*
X-46532778Y40137009D01*
X-46542348Y40154913D01*
X-46616443Y40293533D01*
X-46633616Y40350147D01*
X-46667963Y40463373D01*
X-46685359Y40640000D01*
X-46667963Y40816627D01*
X-46616443Y40986466D01*
X-46616443Y40986467D01*
X-46532779Y41142989D01*
X-46532778Y41142991D01*
X-46503448Y41178729D01*
X-46420186Y41280186D01*
X-46318729Y41363448D01*
X-46282991Y41392778D01*
X-46265087Y41402348D01*
X-46126467Y41476443D01*
X-46069853Y41493616D01*
X-45956627Y41527963D01*
X-45890443Y41534481D01*
X-45824260Y41541000D01*
X-45735740Y41541000D01*
X-45669557Y41534481D01*
X-45669557Y41534481D01*
G37*
G36*
X-43129557Y41534481D02*
X-43063373Y41527963D01*
X-42950147Y41493616D01*
X-42893533Y41476443D01*
X-42754913Y41402348D01*
X-42737009Y41392778D01*
X-42701271Y41363448D01*
X-42599814Y41280186D01*
X-42516552Y41178729D01*
X-42487222Y41142991D01*
X-42487221Y41142989D01*
X-42403557Y40986467D01*
X-42403557Y40986466D01*
X-42352037Y40816627D01*
X-42334641Y40640000D01*
X-42352037Y40463373D01*
X-42386384Y40350147D01*
X-42403557Y40293533D01*
X-42477652Y40154913D01*
X-42487222Y40137009D01*
X-42516552Y40101271D01*
X-42599814Y39999814D01*
X-42701271Y39916552D01*
X-42737009Y39887222D01*
X-42737011Y39887221D01*
X-42893533Y39803557D01*
X-42950147Y39786384D01*
X-43063373Y39752037D01*
X-43129558Y39745518D01*
X-43195740Y39739000D01*
X-43284260Y39739000D01*
X-43350442Y39745518D01*
X-43416627Y39752037D01*
X-43529853Y39786384D01*
X-43586467Y39803557D01*
X-43742989Y39887221D01*
X-43742991Y39887222D01*
X-43778729Y39916552D01*
X-43880186Y39999814D01*
X-43963448Y40101271D01*
X-43992778Y40137009D01*
X-44002348Y40154913D01*
X-44076443Y40293533D01*
X-44093616Y40350147D01*
X-44127963Y40463373D01*
X-44145359Y40640000D01*
X-44127963Y40816627D01*
X-44076443Y40986466D01*
X-44076443Y40986467D01*
X-43992779Y41142989D01*
X-43992778Y41142991D01*
X-43963448Y41178729D01*
X-43880186Y41280186D01*
X-43778729Y41363448D01*
X-43742991Y41392778D01*
X-43725087Y41402348D01*
X-43586467Y41476443D01*
X-43529853Y41493616D01*
X-43416627Y41527963D01*
X-43350443Y41534481D01*
X-43284260Y41541000D01*
X-43195740Y41541000D01*
X-43129557Y41534481D01*
X-43129557Y41534481D01*
G37*
G36*
X-40589557Y41534481D02*
X-40523373Y41527963D01*
X-40410147Y41493616D01*
X-40353533Y41476443D01*
X-40214913Y41402348D01*
X-40197009Y41392778D01*
X-40161271Y41363448D01*
X-40059814Y41280186D01*
X-39976552Y41178729D01*
X-39947222Y41142991D01*
X-39947221Y41142989D01*
X-39863557Y40986467D01*
X-39863557Y40986466D01*
X-39812037Y40816627D01*
X-39794641Y40640000D01*
X-39812037Y40463373D01*
X-39846384Y40350147D01*
X-39863557Y40293533D01*
X-39937652Y40154913D01*
X-39947222Y40137009D01*
X-39976552Y40101271D01*
X-40059814Y39999814D01*
X-40161271Y39916552D01*
X-40197009Y39887222D01*
X-40197011Y39887221D01*
X-40353533Y39803557D01*
X-40410147Y39786384D01*
X-40523373Y39752037D01*
X-40589558Y39745518D01*
X-40655740Y39739000D01*
X-40744260Y39739000D01*
X-40810442Y39745518D01*
X-40876627Y39752037D01*
X-40989853Y39786384D01*
X-41046467Y39803557D01*
X-41202989Y39887221D01*
X-41202991Y39887222D01*
X-41238729Y39916552D01*
X-41340186Y39999814D01*
X-41423448Y40101271D01*
X-41452778Y40137009D01*
X-41462348Y40154913D01*
X-41536443Y40293533D01*
X-41553616Y40350147D01*
X-41587963Y40463373D01*
X-41605359Y40640000D01*
X-41587963Y40816627D01*
X-41536443Y40986466D01*
X-41536443Y40986467D01*
X-41452779Y41142989D01*
X-41452778Y41142991D01*
X-41423448Y41178729D01*
X-41340186Y41280186D01*
X-41238729Y41363448D01*
X-41202991Y41392778D01*
X-41185087Y41402348D01*
X-41046467Y41476443D01*
X-40989853Y41493616D01*
X-40876627Y41527963D01*
X-40810443Y41534481D01*
X-40744260Y41541000D01*
X-40655740Y41541000D01*
X-40589557Y41534481D01*
X-40589557Y41534481D01*
G37*
G36*
X-38049557Y41534481D02*
X-37983373Y41527963D01*
X-37870147Y41493616D01*
X-37813533Y41476443D01*
X-37674913Y41402348D01*
X-37657009Y41392778D01*
X-37621271Y41363448D01*
X-37519814Y41280186D01*
X-37436552Y41178729D01*
X-37407222Y41142991D01*
X-37407221Y41142989D01*
X-37323557Y40986467D01*
X-37323557Y40986466D01*
X-37272037Y40816627D01*
X-37254641Y40640000D01*
X-37272037Y40463373D01*
X-37306384Y40350147D01*
X-37323557Y40293533D01*
X-37397652Y40154913D01*
X-37407222Y40137009D01*
X-37436552Y40101271D01*
X-37519814Y39999814D01*
X-37621271Y39916552D01*
X-37657009Y39887222D01*
X-37657011Y39887221D01*
X-37813533Y39803557D01*
X-37870147Y39786384D01*
X-37983373Y39752037D01*
X-38049558Y39745518D01*
X-38115740Y39739000D01*
X-38204260Y39739000D01*
X-38270442Y39745518D01*
X-38336627Y39752037D01*
X-38449853Y39786384D01*
X-38506467Y39803557D01*
X-38662989Y39887221D01*
X-38662991Y39887222D01*
X-38698729Y39916552D01*
X-38800186Y39999814D01*
X-38883448Y40101271D01*
X-38912778Y40137009D01*
X-38922348Y40154913D01*
X-38996443Y40293533D01*
X-39013616Y40350147D01*
X-39047963Y40463373D01*
X-39065359Y40640000D01*
X-39047963Y40816627D01*
X-38996443Y40986466D01*
X-38996443Y40986467D01*
X-38912779Y41142989D01*
X-38912778Y41142991D01*
X-38883448Y41178729D01*
X-38800186Y41280186D01*
X-38698729Y41363448D01*
X-38662991Y41392778D01*
X-38645087Y41402348D01*
X-38506467Y41476443D01*
X-38449853Y41493616D01*
X-38336627Y41527963D01*
X-38270443Y41534481D01*
X-38204260Y41541000D01*
X-38115740Y41541000D01*
X-38049557Y41534481D01*
X-38049557Y41534481D01*
G37*
G36*
X-35509557Y41534481D02*
X-35443373Y41527963D01*
X-35330147Y41493616D01*
X-35273533Y41476443D01*
X-35134913Y41402348D01*
X-35117009Y41392778D01*
X-35081271Y41363448D01*
X-34979814Y41280186D01*
X-34896552Y41178729D01*
X-34867222Y41142991D01*
X-34867221Y41142989D01*
X-34783557Y40986467D01*
X-34783557Y40986466D01*
X-34732037Y40816627D01*
X-34714641Y40640000D01*
X-34732037Y40463373D01*
X-34766384Y40350147D01*
X-34783557Y40293533D01*
X-34857652Y40154913D01*
X-34867222Y40137009D01*
X-34896552Y40101271D01*
X-34979814Y39999814D01*
X-35081271Y39916552D01*
X-35117009Y39887222D01*
X-35117011Y39887221D01*
X-35273533Y39803557D01*
X-35330147Y39786384D01*
X-35443373Y39752037D01*
X-35509558Y39745518D01*
X-35575740Y39739000D01*
X-35664260Y39739000D01*
X-35730442Y39745518D01*
X-35796627Y39752037D01*
X-35909853Y39786384D01*
X-35966467Y39803557D01*
X-36122989Y39887221D01*
X-36122991Y39887222D01*
X-36158729Y39916552D01*
X-36260186Y39999814D01*
X-36343448Y40101271D01*
X-36372778Y40137009D01*
X-36382348Y40154913D01*
X-36456443Y40293533D01*
X-36473616Y40350147D01*
X-36507963Y40463373D01*
X-36525359Y40640000D01*
X-36507963Y40816627D01*
X-36456443Y40986466D01*
X-36456443Y40986467D01*
X-36372779Y41142989D01*
X-36372778Y41142991D01*
X-36343448Y41178729D01*
X-36260186Y41280186D01*
X-36158729Y41363448D01*
X-36122991Y41392778D01*
X-36105087Y41402348D01*
X-35966467Y41476443D01*
X-35909853Y41493616D01*
X-35796627Y41527963D01*
X-35730443Y41534481D01*
X-35664260Y41541000D01*
X-35575740Y41541000D01*
X-35509557Y41534481D01*
X-35509557Y41534481D01*
G37*
G36*
X-32969557Y41534481D02*
X-32903373Y41527963D01*
X-32790147Y41493616D01*
X-32733533Y41476443D01*
X-32594913Y41402348D01*
X-32577009Y41392778D01*
X-32541271Y41363448D01*
X-32439814Y41280186D01*
X-32356552Y41178729D01*
X-32327222Y41142991D01*
X-32327221Y41142989D01*
X-32243557Y40986467D01*
X-32243557Y40986466D01*
X-32192037Y40816627D01*
X-32174641Y40640000D01*
X-32192037Y40463373D01*
X-32226384Y40350147D01*
X-32243557Y40293533D01*
X-32317652Y40154913D01*
X-32327222Y40137009D01*
X-32356552Y40101271D01*
X-32439814Y39999814D01*
X-32541271Y39916552D01*
X-32577009Y39887222D01*
X-32577011Y39887221D01*
X-32733533Y39803557D01*
X-32790147Y39786384D01*
X-32903373Y39752037D01*
X-32969558Y39745518D01*
X-33035740Y39739000D01*
X-33124260Y39739000D01*
X-33190442Y39745518D01*
X-33256627Y39752037D01*
X-33369853Y39786384D01*
X-33426467Y39803557D01*
X-33582989Y39887221D01*
X-33582991Y39887222D01*
X-33618729Y39916552D01*
X-33720186Y39999814D01*
X-33803448Y40101271D01*
X-33832778Y40137009D01*
X-33842348Y40154913D01*
X-33916443Y40293533D01*
X-33933616Y40350147D01*
X-33967963Y40463373D01*
X-33985359Y40640000D01*
X-33967963Y40816627D01*
X-33916443Y40986466D01*
X-33916443Y40986467D01*
X-33832779Y41142989D01*
X-33832778Y41142991D01*
X-33803448Y41178729D01*
X-33720186Y41280186D01*
X-33618729Y41363448D01*
X-33582991Y41392778D01*
X-33565087Y41402348D01*
X-33426467Y41476443D01*
X-33369853Y41493616D01*
X-33256627Y41527963D01*
X-33190443Y41534481D01*
X-33124260Y41541000D01*
X-33035740Y41541000D01*
X-32969557Y41534481D01*
X-32969557Y41534481D01*
G37*
G36*
X-30429557Y41534481D02*
X-30363373Y41527963D01*
X-30250147Y41493616D01*
X-30193533Y41476443D01*
X-30054913Y41402348D01*
X-30037009Y41392778D01*
X-30001271Y41363448D01*
X-29899814Y41280186D01*
X-29816552Y41178729D01*
X-29787222Y41142991D01*
X-29787221Y41142989D01*
X-29703557Y40986467D01*
X-29703557Y40986466D01*
X-29652037Y40816627D01*
X-29634641Y40640000D01*
X-29652037Y40463373D01*
X-29686384Y40350147D01*
X-29703557Y40293533D01*
X-29777652Y40154913D01*
X-29787222Y40137009D01*
X-29816552Y40101271D01*
X-29899814Y39999814D01*
X-30001271Y39916552D01*
X-30037009Y39887222D01*
X-30037011Y39887221D01*
X-30193533Y39803557D01*
X-30250147Y39786384D01*
X-30363373Y39752037D01*
X-30429558Y39745518D01*
X-30495740Y39739000D01*
X-30584260Y39739000D01*
X-30650442Y39745518D01*
X-30716627Y39752037D01*
X-30829853Y39786384D01*
X-30886467Y39803557D01*
X-31042989Y39887221D01*
X-31042991Y39887222D01*
X-31078729Y39916552D01*
X-31180186Y39999814D01*
X-31263448Y40101271D01*
X-31292778Y40137009D01*
X-31302348Y40154913D01*
X-31376443Y40293533D01*
X-31393616Y40350147D01*
X-31427963Y40463373D01*
X-31445359Y40640000D01*
X-31427963Y40816627D01*
X-31376443Y40986466D01*
X-31376443Y40986467D01*
X-31292779Y41142989D01*
X-31292778Y41142991D01*
X-31263448Y41178729D01*
X-31180186Y41280186D01*
X-31078729Y41363448D01*
X-31042991Y41392778D01*
X-31025087Y41402348D01*
X-30886467Y41476443D01*
X-30829853Y41493616D01*
X-30716627Y41527963D01*
X-30650443Y41534481D01*
X-30584260Y41541000D01*
X-30495740Y41541000D01*
X-30429557Y41534481D01*
X-30429557Y41534481D01*
G37*
G36*
X-27889557Y41534481D02*
X-27823373Y41527963D01*
X-27710147Y41493616D01*
X-27653533Y41476443D01*
X-27514913Y41402348D01*
X-27497009Y41392778D01*
X-27461271Y41363448D01*
X-27359814Y41280186D01*
X-27276552Y41178729D01*
X-27247222Y41142991D01*
X-27247221Y41142989D01*
X-27163557Y40986467D01*
X-27163557Y40986466D01*
X-27112037Y40816627D01*
X-27094641Y40640000D01*
X-27112037Y40463373D01*
X-27146384Y40350147D01*
X-27163557Y40293533D01*
X-27237652Y40154913D01*
X-27247222Y40137009D01*
X-27276552Y40101271D01*
X-27359814Y39999814D01*
X-27461271Y39916552D01*
X-27497009Y39887222D01*
X-27497011Y39887221D01*
X-27653533Y39803557D01*
X-27710147Y39786384D01*
X-27823373Y39752037D01*
X-27889558Y39745518D01*
X-27955740Y39739000D01*
X-28044260Y39739000D01*
X-28110442Y39745518D01*
X-28176627Y39752037D01*
X-28289853Y39786384D01*
X-28346467Y39803557D01*
X-28502989Y39887221D01*
X-28502991Y39887222D01*
X-28538729Y39916552D01*
X-28640186Y39999814D01*
X-28723448Y40101271D01*
X-28752778Y40137009D01*
X-28762348Y40154913D01*
X-28836443Y40293533D01*
X-28853616Y40350147D01*
X-28887963Y40463373D01*
X-28905359Y40640000D01*
X-28887963Y40816627D01*
X-28836443Y40986466D01*
X-28836443Y40986467D01*
X-28752779Y41142989D01*
X-28752778Y41142991D01*
X-28723448Y41178729D01*
X-28640186Y41280186D01*
X-28538729Y41363448D01*
X-28502991Y41392778D01*
X-28485087Y41402348D01*
X-28346467Y41476443D01*
X-28289853Y41493616D01*
X-28176627Y41527963D01*
X-28110443Y41534481D01*
X-28044260Y41541000D01*
X-27955740Y41541000D01*
X-27889557Y41534481D01*
X-27889557Y41534481D01*
G37*
G36*
X-25349557Y41534481D02*
X-25283373Y41527963D01*
X-25170147Y41493616D01*
X-25113533Y41476443D01*
X-24974913Y41402348D01*
X-24957009Y41392778D01*
X-24921271Y41363448D01*
X-24819814Y41280186D01*
X-24736552Y41178729D01*
X-24707222Y41142991D01*
X-24707221Y41142989D01*
X-24623557Y40986467D01*
X-24623557Y40986466D01*
X-24572037Y40816627D01*
X-24554641Y40640000D01*
X-24572037Y40463373D01*
X-24606384Y40350147D01*
X-24623557Y40293533D01*
X-24697652Y40154913D01*
X-24707222Y40137009D01*
X-24736552Y40101271D01*
X-24819814Y39999814D01*
X-24921271Y39916552D01*
X-24957009Y39887222D01*
X-24957011Y39887221D01*
X-25113533Y39803557D01*
X-25170147Y39786384D01*
X-25283373Y39752037D01*
X-25349558Y39745518D01*
X-25415740Y39739000D01*
X-25504260Y39739000D01*
X-25570442Y39745518D01*
X-25636627Y39752037D01*
X-25749853Y39786384D01*
X-25806467Y39803557D01*
X-25962989Y39887221D01*
X-25962991Y39887222D01*
X-25998729Y39916552D01*
X-26100186Y39999814D01*
X-26183448Y40101271D01*
X-26212778Y40137009D01*
X-26222348Y40154913D01*
X-26296443Y40293533D01*
X-26313616Y40350147D01*
X-26347963Y40463373D01*
X-26365359Y40640000D01*
X-26347963Y40816627D01*
X-26296443Y40986466D01*
X-26296443Y40986467D01*
X-26212779Y41142989D01*
X-26212778Y41142991D01*
X-26183448Y41178729D01*
X-26100186Y41280186D01*
X-25998729Y41363448D01*
X-25962991Y41392778D01*
X-25945087Y41402348D01*
X-25806467Y41476443D01*
X-25749853Y41493616D01*
X-25636627Y41527963D01*
X-25570443Y41534481D01*
X-25504260Y41541000D01*
X-25415740Y41541000D01*
X-25349557Y41534481D01*
X-25349557Y41534481D01*
G37*
M02*
