G04 #@! TF.GenerationSoftware,KiCad,Pcbnew,5.0.2-bee76a0~70~ubuntu18.04.1*
G04 #@! TF.CreationDate,2019-10-04T10:46:57+02:00*
G04 #@! TF.ProjectId,STM32F373_Dev_Board,53544d33-3246-4333-9733-5f4465765f42,rev?*
G04 #@! TF.SameCoordinates,PX9104060PY5859300*
G04 #@! TF.FileFunction,Legend,Bot*
G04 #@! TF.FilePolarity,Positive*
%FSLAX46Y46*%
G04 Gerber Fmt 4.6, Leading zero omitted, Abs format (unit mm)*
G04 Created by KiCad (PCBNEW 5.0.2-bee76a0~70~ubuntu18.04.1) date Fr 04 Okt 2019 10:46:57 CEST*
%MOMM*%
%LPD*%
G01*
G04 APERTURE LIST*
%ADD10C,0.200000*%
%ADD11C,0.300000*%
%ADD12C,0.150000*%
G04 APERTURE END LIST*
D10*
X20952Y36387620D02*
X20952Y36911429D01*
X68571Y37006667D01*
X163809Y37054286D01*
X354285Y37054286D01*
X449523Y37006667D01*
X20952Y36435239D02*
X116190Y36387620D01*
X354285Y36387620D01*
X449523Y36435239D01*
X497142Y36530477D01*
X497142Y36625715D01*
X449523Y36720953D01*
X354285Y36768572D01*
X116190Y36768572D01*
X20952Y36816191D01*
X-598096Y36387620D02*
X-502858Y36435239D01*
X-455239Y36530477D01*
X-455239Y37387620D01*
X-1121905Y36387620D02*
X-1026667Y36435239D01*
X-979048Y36530477D01*
X-979048Y37387620D01*
X-2264762Y36387620D02*
X-2264762Y37387620D01*
X-2645715Y37387620D01*
X-2740953Y37340000D01*
X-2788572Y37292381D01*
X-2836191Y37197143D01*
X-2836191Y37054286D01*
X-2788572Y36959048D01*
X-2740953Y36911429D01*
X-2645715Y36863810D01*
X-2264762Y36863810D01*
X-3836191Y36482858D02*
X-3788572Y36435239D01*
X-3645715Y36387620D01*
X-3550477Y36387620D01*
X-3407620Y36435239D01*
X-3312381Y36530477D01*
X-3264762Y36625715D01*
X-3217143Y36816191D01*
X-3217143Y36959048D01*
X-3264762Y37149524D01*
X-3312381Y37244762D01*
X-3407620Y37340000D01*
X-3550477Y37387620D01*
X-3645715Y37387620D01*
X-3788572Y37340000D01*
X-3836191Y37292381D01*
X-4598096Y36911429D02*
X-4740953Y36863810D01*
X-4788572Y36816191D01*
X-4836191Y36720953D01*
X-4836191Y36578096D01*
X-4788572Y36482858D01*
X-4740953Y36435239D01*
X-4645715Y36387620D01*
X-4264762Y36387620D01*
X-4264762Y37387620D01*
X-4598096Y37387620D01*
X-4693334Y37340000D01*
X-4740953Y37292381D01*
X-4788572Y37197143D01*
X-4788572Y37101905D01*
X-4740953Y37006667D01*
X-4693334Y36959048D01*
X-4598096Y36911429D01*
X-4264762Y36911429D01*
X-5883810Y37054286D02*
X-6264762Y37054286D01*
X-6026667Y36387620D02*
X-6026667Y37244762D01*
X-6074286Y37340000D01*
X-6169524Y37387620D01*
X-6264762Y37387620D01*
X-6598096Y36387620D02*
X-6598096Y37054286D01*
X-6598096Y37387620D02*
X-6550477Y37340000D01*
X-6598096Y37292381D01*
X-6645715Y37340000D01*
X-6598096Y37387620D01*
X-6598096Y37292381D01*
X-7217143Y36387620D02*
X-7121905Y36435239D01*
X-7074286Y36530477D01*
X-7074286Y37387620D01*
X-7979048Y36435239D02*
X-7883810Y36387620D01*
X-7693334Y36387620D01*
X-7598096Y36435239D01*
X-7550477Y36530477D01*
X-7550477Y36911429D01*
X-7598096Y37006667D01*
X-7693334Y37054286D01*
X-7883810Y37054286D01*
X-7979048Y37006667D01*
X-8026667Y36911429D01*
X-8026667Y36816191D01*
X-7550477Y36720953D01*
X-8407620Y36435239D02*
X-8502858Y36387620D01*
X-8693334Y36387620D01*
X-8788572Y36435239D01*
X-8836191Y36530477D01*
X-8836191Y36578096D01*
X-8788572Y36673334D01*
X-8693334Y36720953D01*
X-8550477Y36720953D01*
X-8455239Y36768572D01*
X-8407620Y36863810D01*
X-8407620Y36911429D01*
X-8455239Y37006667D01*
X-8550477Y37054286D01*
X-8693334Y37054286D01*
X-8788572Y37006667D01*
X-10455239Y36387620D02*
X-10455239Y36911429D01*
X-10407620Y37006667D01*
X-10312381Y37054286D01*
X-10121905Y37054286D01*
X-10026667Y37006667D01*
X-10455239Y36435239D02*
X-10360000Y36387620D01*
X-10121905Y36387620D01*
X-10026667Y36435239D01*
X-9979048Y36530477D01*
X-9979048Y36625715D01*
X-10026667Y36720953D01*
X-10121905Y36768572D01*
X-10360000Y36768572D01*
X-10455239Y36816191D01*
X-10931429Y36387620D02*
X-10931429Y37054286D01*
X-10931429Y36863810D02*
X-10979048Y36959048D01*
X-11026667Y37006667D01*
X-11121905Y37054286D01*
X-11217143Y37054286D01*
X-11931429Y36435239D02*
X-11836191Y36387620D01*
X-11645715Y36387620D01*
X-11550477Y36435239D01*
X-11502858Y36530477D01*
X-11502858Y36911429D01*
X-11550477Y37006667D01*
X-11645715Y37054286D01*
X-11836191Y37054286D01*
X-11931429Y37006667D01*
X-11979048Y36911429D01*
X-11979048Y36816191D01*
X-11502858Y36720953D01*
X-13598096Y36387620D02*
X-13598096Y36911429D01*
X-13550477Y37006667D01*
X-13455239Y37054286D01*
X-13264762Y37054286D01*
X-13169524Y37006667D01*
X-13598096Y36435239D02*
X-13502858Y36387620D01*
X-13264762Y36387620D01*
X-13169524Y36435239D01*
X-13121905Y36530477D01*
X-13121905Y36625715D01*
X-13169524Y36720953D01*
X-13264762Y36768572D01*
X-13502858Y36768572D01*
X-13598096Y36816191D01*
X-13979048Y37054286D02*
X-14217143Y36387620D01*
X-14455239Y37054286D01*
X-15264762Y36387620D02*
X-15264762Y36911429D01*
X-15217143Y37006667D01*
X-15121905Y37054286D01*
X-14931429Y37054286D01*
X-14836191Y37006667D01*
X-15264762Y36435239D02*
X-15169524Y36387620D01*
X-14931429Y36387620D01*
X-14836191Y36435239D01*
X-14788572Y36530477D01*
X-14788572Y36625715D01*
X-14836191Y36720953D01*
X-14931429Y36768572D01*
X-15169524Y36768572D01*
X-15264762Y36816191D01*
X-15740953Y36387620D02*
X-15740953Y37054286D01*
X-15740953Y37387620D02*
X-15693334Y37340000D01*
X-15740953Y37292381D01*
X-15788572Y37340000D01*
X-15740953Y37387620D01*
X-15740953Y37292381D01*
X-16360000Y36387620D02*
X-16264762Y36435239D01*
X-16217143Y36530477D01*
X-16217143Y37387620D01*
X-17169524Y36387620D02*
X-17169524Y36911429D01*
X-17121905Y37006667D01*
X-17026667Y37054286D01*
X-16836191Y37054286D01*
X-16740953Y37006667D01*
X-17169524Y36435239D02*
X-17074286Y36387620D01*
X-16836191Y36387620D01*
X-16740953Y36435239D01*
X-16693334Y36530477D01*
X-16693334Y36625715D01*
X-16740953Y36720953D01*
X-16836191Y36768572D01*
X-17074286Y36768572D01*
X-17169524Y36816191D01*
X-17645715Y36387620D02*
X-17645715Y37387620D01*
X-17645715Y37006667D02*
X-17740953Y37054286D01*
X-17931429Y37054286D01*
X-18026667Y37006667D01*
X-18074286Y36959048D01*
X-18121905Y36863810D01*
X-18121905Y36578096D01*
X-18074286Y36482858D01*
X-18026667Y36435239D01*
X-17931429Y36387620D01*
X-17740953Y36387620D01*
X-17645715Y36435239D01*
X-18693334Y36387620D02*
X-18598096Y36435239D01*
X-18550477Y36530477D01*
X-18550477Y37387620D01*
X-19455239Y36435239D02*
X-19360000Y36387620D01*
X-19169524Y36387620D01*
X-19074286Y36435239D01*
X-19026667Y36530477D01*
X-19026667Y36911429D01*
X-19074286Y37006667D01*
X-19169524Y37054286D01*
X-19360000Y37054286D01*
X-19455239Y37006667D01*
X-19502858Y36911429D01*
X-19502858Y36816191D01*
X-19026667Y36720953D01*
X-21121905Y36387620D02*
X-21121905Y36911429D01*
X-21074286Y37006667D01*
X-20979048Y37054286D01*
X-20788572Y37054286D01*
X-20693334Y37006667D01*
X-21121905Y36435239D02*
X-21026667Y36387620D01*
X-20788572Y36387620D01*
X-20693334Y36435239D01*
X-20645715Y36530477D01*
X-20645715Y36625715D01*
X-20693334Y36720953D01*
X-20788572Y36768572D01*
X-21026667Y36768572D01*
X-21121905Y36816191D01*
X-21455239Y37054286D02*
X-21836191Y37054286D01*
X-21598096Y37387620D02*
X-21598096Y36530477D01*
X-21645715Y36435239D01*
X-21740953Y36387620D01*
X-21836191Y36387620D01*
X-22169524Y36482858D02*
X-22217143Y36435239D01*
X-22169524Y36387620D01*
X-22121905Y36435239D01*
X-22169524Y36482858D01*
X-22169524Y36387620D01*
X-22169524Y37006667D02*
X-22217143Y36959048D01*
X-22169524Y36911429D01*
X-22121905Y36959048D01*
X-22169524Y37006667D01*
X-22169524Y36911429D01*
X190000Y34954286D02*
X190000Y34144762D01*
X237619Y34049524D01*
X285238Y34001905D01*
X380476Y33954286D01*
X523333Y33954286D01*
X618571Y34001905D01*
X190000Y34335239D02*
X285238Y34287620D01*
X475714Y34287620D01*
X570952Y34335239D01*
X618571Y34382858D01*
X666190Y34478096D01*
X666190Y34763810D01*
X618571Y34859048D01*
X570952Y34906667D01*
X475714Y34954286D01*
X285238Y34954286D01*
X190000Y34906667D01*
X-286191Y34287620D02*
X-286191Y34954286D01*
X-286191Y35287620D02*
X-238572Y35240000D01*
X-286191Y35192381D01*
X-333810Y35240000D01*
X-286191Y35287620D01*
X-286191Y35192381D01*
X-619524Y34954286D02*
X-1000477Y34954286D01*
X-762381Y35287620D02*
X-762381Y34430477D01*
X-810000Y34335239D01*
X-905239Y34287620D01*
X-1000477Y34287620D01*
X-1333810Y34287620D02*
X-1333810Y35287620D01*
X-1762381Y34287620D02*
X-1762381Y34811429D01*
X-1714762Y34906667D01*
X-1619524Y34954286D01*
X-1476667Y34954286D01*
X-1381429Y34906667D01*
X-1333810Y34859048D01*
X-2667143Y34954286D02*
X-2667143Y34287620D01*
X-2238572Y34954286D02*
X-2238572Y34430477D01*
X-2286191Y34335239D01*
X-2381429Y34287620D01*
X-2524286Y34287620D01*
X-2619524Y34335239D01*
X-2667143Y34382858D01*
X-3143334Y34287620D02*
X-3143334Y35287620D01*
X-3143334Y34906667D02*
X-3238572Y34954286D01*
X-3429048Y34954286D01*
X-3524286Y34906667D01*
X-3571905Y34859048D01*
X-3619524Y34763810D01*
X-3619524Y34478096D01*
X-3571905Y34382858D01*
X-3524286Y34335239D01*
X-3429048Y34287620D01*
X-3238572Y34287620D01*
X-3143334Y34335239D01*
X-4048096Y34382858D02*
X-4095715Y34335239D01*
X-4048096Y34287620D01*
X-4000477Y34335239D01*
X-4048096Y34382858D01*
X-4048096Y34287620D01*
X-4952858Y34335239D02*
X-4857620Y34287620D01*
X-4667143Y34287620D01*
X-4571905Y34335239D01*
X-4524286Y34382858D01*
X-4476667Y34478096D01*
X-4476667Y34763810D01*
X-4524286Y34859048D01*
X-4571905Y34906667D01*
X-4667143Y34954286D01*
X-4857620Y34954286D01*
X-4952858Y34906667D01*
X-5524286Y34287620D02*
X-5429048Y34335239D01*
X-5381429Y34382858D01*
X-5333810Y34478096D01*
X-5333810Y34763810D01*
X-5381429Y34859048D01*
X-5429048Y34906667D01*
X-5524286Y34954286D01*
X-5667143Y34954286D01*
X-5762381Y34906667D01*
X-5810000Y34859048D01*
X-5857620Y34763810D01*
X-5857620Y34478096D01*
X-5810000Y34382858D01*
X-5762381Y34335239D01*
X-5667143Y34287620D01*
X-5524286Y34287620D01*
X-6286191Y34287620D02*
X-6286191Y34954286D01*
X-6286191Y34859048D02*
X-6333810Y34906667D01*
X-6429048Y34954286D01*
X-6571905Y34954286D01*
X-6667143Y34906667D01*
X-6714762Y34811429D01*
X-6714762Y34287620D01*
X-6714762Y34811429D02*
X-6762381Y34906667D01*
X-6857620Y34954286D01*
X-7000477Y34954286D01*
X-7095715Y34906667D01*
X-7143334Y34811429D01*
X-7143334Y34287620D01*
X-8333810Y35335239D02*
X-7476667Y34049524D01*
X-8667143Y34287620D02*
X-8667143Y35287620D01*
X-9000477Y34573334D01*
X-9333810Y35287620D01*
X-9333810Y34287620D01*
X-10238572Y34287620D02*
X-10238572Y34811429D01*
X-10190953Y34906667D01*
X-10095715Y34954286D01*
X-9905239Y34954286D01*
X-9810000Y34906667D01*
X-10238572Y34335239D02*
X-10143334Y34287620D01*
X-9905239Y34287620D01*
X-9810000Y34335239D01*
X-9762381Y34430477D01*
X-9762381Y34525715D01*
X-9810000Y34620953D01*
X-9905239Y34668572D01*
X-10143334Y34668572D01*
X-10238572Y34716191D01*
X-10714762Y34287620D02*
X-10714762Y34954286D01*
X-10714762Y34763810D02*
X-10762381Y34859048D01*
X-10810000Y34906667D01*
X-10905239Y34954286D01*
X-11000477Y34954286D01*
X-11762381Y34335239D02*
X-11667143Y34287620D01*
X-11476667Y34287620D01*
X-11381429Y34335239D01*
X-11333810Y34382858D01*
X-11286191Y34478096D01*
X-11286191Y34763810D01*
X-11333810Y34859048D01*
X-11381429Y34906667D01*
X-11476667Y34954286D01*
X-11667143Y34954286D01*
X-11762381Y34906667D01*
X-12571905Y34335239D02*
X-12476667Y34287620D01*
X-12286191Y34287620D01*
X-12190953Y34335239D01*
X-12143334Y34430477D01*
X-12143334Y34811429D01*
X-12190953Y34906667D01*
X-12286191Y34954286D01*
X-12476667Y34954286D01*
X-12571905Y34906667D01*
X-12619524Y34811429D01*
X-12619524Y34716191D01*
X-12143334Y34620953D01*
X-13190953Y34287620D02*
X-13095715Y34335239D01*
X-13048096Y34430477D01*
X-13048096Y35287620D01*
X-13571905Y34287620D02*
X-13571905Y35287620D01*
X-13905239Y34573334D01*
X-14238572Y35287620D01*
X-14238572Y34287620D01*
X-15238572Y35240000D02*
X-15143334Y35287620D01*
X-15000477Y35287620D01*
X-14857620Y35240000D01*
X-14762381Y35144762D01*
X-14714762Y35049524D01*
X-14667143Y34859048D01*
X-14667143Y34716191D01*
X-14714762Y34525715D01*
X-14762381Y34430477D01*
X-14857620Y34335239D01*
X-15000477Y34287620D01*
X-15095715Y34287620D01*
X-15238572Y34335239D01*
X-15286191Y34382858D01*
X-15286191Y34716191D01*
X-15095715Y34716191D01*
X-16429048Y35335239D02*
X-15571905Y34049524D01*
X-16714762Y34335239D02*
X-16857620Y34287620D01*
X-17095715Y34287620D01*
X-17190953Y34335239D01*
X-17238572Y34382858D01*
X-17286191Y34478096D01*
X-17286191Y34573334D01*
X-17238572Y34668572D01*
X-17190953Y34716191D01*
X-17095715Y34763810D01*
X-16905239Y34811429D01*
X-16810000Y34859048D01*
X-16762381Y34906667D01*
X-16714762Y35001905D01*
X-16714762Y35097143D01*
X-16762381Y35192381D01*
X-16810000Y35240000D01*
X-16905239Y35287620D01*
X-17143334Y35287620D01*
X-17286191Y35240000D01*
X-17571905Y35287620D02*
X-18143334Y35287620D01*
X-17857620Y34287620D02*
X-17857620Y35287620D01*
X-18476667Y34287620D02*
X-18476667Y35287620D01*
X-18810000Y34573334D01*
X-19143334Y35287620D01*
X-19143334Y34287620D01*
X-19524286Y35287620D02*
X-20143334Y35287620D01*
X-19810000Y34906667D01*
X-19952858Y34906667D01*
X-20048096Y34859048D01*
X-20095715Y34811429D01*
X-20143334Y34716191D01*
X-20143334Y34478096D01*
X-20095715Y34382858D01*
X-20048096Y34335239D01*
X-19952858Y34287620D01*
X-19667143Y34287620D01*
X-19571905Y34335239D01*
X-19524286Y34382858D01*
X-20524286Y35192381D02*
X-20571905Y35240000D01*
X-20667143Y35287620D01*
X-20905239Y35287620D01*
X-21000477Y35240000D01*
X-21048096Y35192381D01*
X-21095715Y35097143D01*
X-21095715Y35001905D01*
X-21048096Y34859048D01*
X-20476667Y34287620D01*
X-21095715Y34287620D01*
X-21857620Y34811429D02*
X-21524286Y34811429D01*
X-21524286Y34287620D02*
X-21524286Y35287620D01*
X-22000477Y35287620D01*
X-22286191Y35287620D02*
X-22905239Y35287620D01*
X-22571905Y34906667D01*
X-22714762Y34906667D01*
X-22810000Y34859048D01*
X-22857620Y34811429D01*
X-22905239Y34716191D01*
X-22905239Y34478096D01*
X-22857620Y34382858D01*
X-22810000Y34335239D01*
X-22714762Y34287620D01*
X-22429048Y34287620D01*
X-22333810Y34335239D01*
X-22286191Y34382858D01*
X-23238572Y35287620D02*
X-23905239Y35287620D01*
X-23476667Y34287620D01*
X-24190953Y35287620D02*
X-24810000Y35287620D01*
X-24476667Y34906667D01*
X-24619524Y34906667D01*
X-24714762Y34859048D01*
X-24762381Y34811429D01*
X-24810000Y34716191D01*
X-24810000Y34478096D01*
X-24762381Y34382858D01*
X-24714762Y34335239D01*
X-24619524Y34287620D01*
X-24333810Y34287620D01*
X-24238572Y34335239D01*
X-24190953Y34382858D01*
X-25000477Y34192381D02*
X-25762381Y34192381D01*
X-26000477Y34287620D02*
X-26000477Y35287620D01*
X-26238572Y35287620D01*
X-26381429Y35240000D01*
X-26476667Y35144762D01*
X-26524286Y35049524D01*
X-26571905Y34859048D01*
X-26571905Y34716191D01*
X-26524286Y34525715D01*
X-26476667Y34430477D01*
X-26381429Y34335239D01*
X-26238572Y34287620D01*
X-26000477Y34287620D01*
X-27381429Y34335239D02*
X-27286191Y34287620D01*
X-27095715Y34287620D01*
X-27000477Y34335239D01*
X-26952858Y34430477D01*
X-26952858Y34811429D01*
X-27000477Y34906667D01*
X-27095715Y34954286D01*
X-27286191Y34954286D01*
X-27381429Y34906667D01*
X-27429048Y34811429D01*
X-27429048Y34716191D01*
X-26952858Y34620953D01*
X-27762381Y34954286D02*
X-28000477Y34287620D01*
X-28238572Y34954286D01*
X-28381429Y34192381D02*
X-29143334Y34192381D01*
X-29714762Y34811429D02*
X-29857620Y34763810D01*
X-29905239Y34716191D01*
X-29952858Y34620953D01*
X-29952858Y34478096D01*
X-29905239Y34382858D01*
X-29857620Y34335239D01*
X-29762381Y34287620D01*
X-29381429Y34287620D01*
X-29381429Y35287620D01*
X-29714762Y35287620D01*
X-29810000Y35240000D01*
X-29857620Y35192381D01*
X-29905239Y35097143D01*
X-29905239Y35001905D01*
X-29857620Y34906667D01*
X-29810000Y34859048D01*
X-29714762Y34811429D01*
X-29381429Y34811429D01*
X-30524286Y34287620D02*
X-30429048Y34335239D01*
X-30381429Y34382858D01*
X-30333810Y34478096D01*
X-30333810Y34763810D01*
X-30381429Y34859048D01*
X-30429048Y34906667D01*
X-30524286Y34954286D01*
X-30667143Y34954286D01*
X-30762381Y34906667D01*
X-30810000Y34859048D01*
X-30857620Y34763810D01*
X-30857620Y34478096D01*
X-30810000Y34382858D01*
X-30762381Y34335239D01*
X-30667143Y34287620D01*
X-30524286Y34287620D01*
X-31714762Y34287620D02*
X-31714762Y34811429D01*
X-31667143Y34906667D01*
X-31571905Y34954286D01*
X-31381429Y34954286D01*
X-31286191Y34906667D01*
X-31714762Y34335239D02*
X-31619524Y34287620D01*
X-31381429Y34287620D01*
X-31286191Y34335239D01*
X-31238572Y34430477D01*
X-31238572Y34525715D01*
X-31286191Y34620953D01*
X-31381429Y34668572D01*
X-31619524Y34668572D01*
X-31714762Y34716191D01*
X-32190953Y34287620D02*
X-32190953Y34954286D01*
X-32190953Y34763810D02*
X-32238572Y34859048D01*
X-32286191Y34906667D01*
X-32381429Y34954286D01*
X-32476667Y34954286D01*
X-33238572Y34287620D02*
X-33238572Y35287620D01*
X-33238572Y34335239D02*
X-33143334Y34287620D01*
X-32952858Y34287620D01*
X-32857620Y34335239D01*
X-32810000Y34382858D01*
X-32762381Y34478096D01*
X-32762381Y34763810D01*
X-32810000Y34859048D01*
X-32857620Y34906667D01*
X-32952858Y34954286D01*
X-33143334Y34954286D01*
X-33238572Y34906667D01*
D11*
X-19695715Y3090000D02*
X-19624286Y3161429D01*
X-19481429Y3375715D01*
X-19410000Y3518572D01*
X-19338572Y3732858D01*
X-19267143Y4090000D01*
X-19267143Y4375715D01*
X-19338572Y4732858D01*
X-19410000Y4947143D01*
X-19481429Y5090000D01*
X-19624286Y5304286D01*
X-19695715Y5375715D01*
X-20910000Y3732858D02*
X-20767143Y3661429D01*
X-20481429Y3661429D01*
X-20338572Y3732858D01*
X-20267143Y3804286D01*
X-20195715Y3947143D01*
X-20195715Y4375715D01*
X-20267143Y4518572D01*
X-20338572Y4590000D01*
X-20481429Y4661429D01*
X-20767143Y4661429D01*
X-20910000Y4590000D01*
X-21410000Y3090000D02*
X-21481429Y3161429D01*
X-21624286Y3375715D01*
X-21695715Y3518572D01*
X-21767143Y3732858D01*
X-21838572Y4090000D01*
X-21838572Y4375715D01*
X-21767143Y4732858D01*
X-21695715Y4947143D01*
X-21624286Y5090000D01*
X-21481429Y5304286D01*
X-21410000Y5375715D01*
X-23624286Y5018572D02*
X-23695715Y5090000D01*
X-23838572Y5161429D01*
X-24195715Y5161429D01*
X-24338572Y5090000D01*
X-24410000Y5018572D01*
X-24481429Y4875715D01*
X-24481429Y4732858D01*
X-24410000Y4518572D01*
X-23552858Y3661429D01*
X-24481429Y3661429D01*
X-25410000Y5161429D02*
X-25552858Y5161429D01*
X-25695715Y5090000D01*
X-25767143Y5018572D01*
X-25838572Y4875715D01*
X-25910000Y4590000D01*
X-25910000Y4232858D01*
X-25838572Y3947143D01*
X-25767143Y3804286D01*
X-25695715Y3732858D01*
X-25552858Y3661429D01*
X-25410000Y3661429D01*
X-25267143Y3732858D01*
X-25195715Y3804286D01*
X-25124286Y3947143D01*
X-25052858Y4232858D01*
X-25052858Y4590000D01*
X-25124286Y4875715D01*
X-25195715Y5018572D01*
X-25267143Y5090000D01*
X-25410000Y5161429D01*
X-27338572Y3661429D02*
X-26481429Y3661429D01*
X-26910000Y3661429D02*
X-26910000Y5161429D01*
X-26767143Y4947143D01*
X-26624286Y4804286D01*
X-26481429Y4732858D01*
X-28052858Y3661429D02*
X-28338572Y3661429D01*
X-28481429Y3732858D01*
X-28552858Y3804286D01*
X-28695715Y4018572D01*
X-28767143Y4304286D01*
X-28767143Y4875715D01*
X-28695715Y5018572D01*
X-28624286Y5090000D01*
X-28481429Y5161429D01*
X-28195715Y5161429D01*
X-28052858Y5090000D01*
X-27981429Y5018572D01*
X-27910000Y4875715D01*
X-27910000Y4518572D01*
X-27981429Y4375715D01*
X-28052858Y4304286D01*
X-28195715Y4232858D01*
X-28481429Y4232858D01*
X-28624286Y4304286D01*
X-28695715Y4375715D01*
X-28767143Y4518572D01*
X-30552858Y3661429D02*
X-30552858Y5161429D01*
X-30552858Y4590000D02*
X-30695715Y4661429D01*
X-30981429Y4661429D01*
X-31124286Y4590000D01*
X-31195715Y4518572D01*
X-31267143Y4375715D01*
X-31267143Y3947143D01*
X-31195715Y3804286D01*
X-31124286Y3732858D01*
X-30981429Y3661429D01*
X-30695715Y3661429D01*
X-30552858Y3732858D01*
X-31767143Y4661429D02*
X-32124286Y3661429D01*
X-32481429Y4661429D02*
X-32124286Y3661429D01*
X-31981429Y3304286D01*
X-31910000Y3232858D01*
X-31767143Y3161429D01*
X-34195715Y3661429D02*
X-34195715Y5161429D01*
X-34695715Y4090000D01*
X-35195715Y5161429D01*
X-35195715Y3661429D01*
X-36552858Y3661429D02*
X-36552858Y4447143D01*
X-36481429Y4590000D01*
X-36338572Y4661429D01*
X-36052858Y4661429D01*
X-35910000Y4590000D01*
X-36552858Y3732858D02*
X-36410000Y3661429D01*
X-36052858Y3661429D01*
X-35910000Y3732858D01*
X-35838572Y3875715D01*
X-35838572Y4018572D01*
X-35910000Y4161429D01*
X-36052858Y4232858D01*
X-36410000Y4232858D01*
X-36552858Y4304286D01*
X-37267143Y3661429D02*
X-37267143Y4661429D01*
X-37267143Y4375715D02*
X-37338572Y4518572D01*
X-37410000Y4590000D01*
X-37552858Y4661429D01*
X-37695715Y4661429D01*
X-38838572Y3732858D02*
X-38695715Y3661429D01*
X-38410000Y3661429D01*
X-38267143Y3732858D01*
X-38195715Y3804286D01*
X-38124286Y3947143D01*
X-38124286Y4375715D01*
X-38195715Y4518572D01*
X-38267143Y4590000D01*
X-38410000Y4661429D01*
X-38695715Y4661429D01*
X-38838572Y4590000D01*
X-40052858Y3732858D02*
X-39910000Y3661429D01*
X-39624286Y3661429D01*
X-39481429Y3732858D01*
X-39410000Y3875715D01*
X-39410000Y4447143D01*
X-39481429Y4590000D01*
X-39624286Y4661429D01*
X-39910000Y4661429D01*
X-40052858Y4590000D01*
X-40124286Y4447143D01*
X-40124286Y4304286D01*
X-39410000Y4161429D01*
X-40981429Y3661429D02*
X-40838572Y3732858D01*
X-40767143Y3875715D01*
X-40767143Y5161429D01*
X-41552858Y3661429D02*
X-41552858Y5161429D01*
X-42052858Y4090000D01*
X-42552858Y5161429D01*
X-42552858Y3661429D01*
X-44052858Y5090000D02*
X-43910000Y5161429D01*
X-43695715Y5161429D01*
X-43481429Y5090000D01*
X-43338572Y4947143D01*
X-43267143Y4804286D01*
X-43195715Y4518572D01*
X-43195715Y4304286D01*
X-43267143Y4018572D01*
X-43338572Y3875715D01*
X-43481429Y3732858D01*
X-43695715Y3661429D01*
X-43838572Y3661429D01*
X-44052858Y3732858D01*
X-44124286Y3804286D01*
X-44124286Y4304286D01*
X-43838572Y4304286D01*
X-6610000Y6732858D02*
X-6824286Y6661429D01*
X-7181429Y6661429D01*
X-7324286Y6732858D01*
X-7395715Y6804286D01*
X-7467143Y6947143D01*
X-7467143Y7090000D01*
X-7395715Y7232858D01*
X-7324286Y7304286D01*
X-7181429Y7375715D01*
X-6895715Y7447143D01*
X-6752858Y7518572D01*
X-6681429Y7590000D01*
X-6610000Y7732858D01*
X-6610000Y7875715D01*
X-6681429Y8018572D01*
X-6752858Y8090000D01*
X-6895715Y8161429D01*
X-7252858Y8161429D01*
X-7467143Y8090000D01*
X-7895715Y8161429D02*
X-8752858Y8161429D01*
X-8324286Y6661429D02*
X-8324286Y8161429D01*
X-9252858Y6661429D02*
X-9252858Y8161429D01*
X-9752858Y7090000D01*
X-10252858Y8161429D01*
X-10252858Y6661429D01*
X-10824286Y8161429D02*
X-11752858Y8161429D01*
X-11252858Y7590000D01*
X-11467143Y7590000D01*
X-11610000Y7518572D01*
X-11681429Y7447143D01*
X-11752858Y7304286D01*
X-11752858Y6947143D01*
X-11681429Y6804286D01*
X-11610000Y6732858D01*
X-11467143Y6661429D01*
X-11038572Y6661429D01*
X-10895715Y6732858D01*
X-10824286Y6804286D01*
X-12324286Y8018572D02*
X-12395715Y8090000D01*
X-12538572Y8161429D01*
X-12895715Y8161429D01*
X-13038572Y8090000D01*
X-13110000Y8018572D01*
X-13181429Y7875715D01*
X-13181429Y7732858D01*
X-13110000Y7518572D01*
X-12252858Y6661429D01*
X-13181429Y6661429D01*
X-14324286Y7447143D02*
X-13824286Y7447143D01*
X-13824286Y6661429D02*
X-13824286Y8161429D01*
X-14538572Y8161429D01*
X-14967143Y8161429D02*
X-15895715Y8161429D01*
X-15395715Y7590000D01*
X-15610000Y7590000D01*
X-15752858Y7518572D01*
X-15824286Y7447143D01*
X-15895715Y7304286D01*
X-15895715Y6947143D01*
X-15824286Y6804286D01*
X-15752858Y6732858D01*
X-15610000Y6661429D01*
X-15181429Y6661429D01*
X-15038572Y6732858D01*
X-14967143Y6804286D01*
X-16395715Y8161429D02*
X-17395715Y8161429D01*
X-16752858Y6661429D01*
X-17824286Y8161429D02*
X-18752858Y8161429D01*
X-18252858Y7590000D01*
X-18467143Y7590000D01*
X-18610000Y7518572D01*
X-18681429Y7447143D01*
X-18752858Y7304286D01*
X-18752858Y6947143D01*
X-18681429Y6804286D01*
X-18610000Y6732858D01*
X-18467143Y6661429D01*
X-18038572Y6661429D01*
X-17895715Y6732858D01*
X-17824286Y6804286D01*
X-20538572Y6661429D02*
X-20538572Y8161429D01*
X-20895715Y8161429D01*
X-21110000Y8090000D01*
X-21252858Y7947143D01*
X-21324286Y7804286D01*
X-21395715Y7518572D01*
X-21395715Y7304286D01*
X-21324286Y7018572D01*
X-21252858Y6875715D01*
X-21110000Y6732858D01*
X-20895715Y6661429D01*
X-20538572Y6661429D01*
X-22610000Y6732858D02*
X-22467143Y6661429D01*
X-22181429Y6661429D01*
X-22038572Y6732858D01*
X-21967143Y6875715D01*
X-21967143Y7447143D01*
X-22038572Y7590000D01*
X-22181429Y7661429D01*
X-22467143Y7661429D01*
X-22610000Y7590000D01*
X-22681429Y7447143D01*
X-22681429Y7304286D01*
X-21967143Y7161429D01*
X-23181429Y7661429D02*
X-23538572Y6661429D01*
X-23895715Y7661429D01*
X-25038572Y6732858D02*
X-24895715Y6661429D01*
X-24610000Y6661429D01*
X-24467143Y6732858D01*
X-24395715Y6875715D01*
X-24395715Y7447143D01*
X-24467143Y7590000D01*
X-24610000Y7661429D01*
X-24895715Y7661429D01*
X-25038572Y7590000D01*
X-25110000Y7447143D01*
X-25110000Y7304286D01*
X-24395715Y7161429D01*
X-25967143Y6661429D02*
X-25824286Y6732858D01*
X-25752858Y6875715D01*
X-25752858Y8161429D01*
X-26752858Y6661429D02*
X-26610000Y6732858D01*
X-26538572Y6804286D01*
X-26467143Y6947143D01*
X-26467143Y7375715D01*
X-26538572Y7518572D01*
X-26610000Y7590000D01*
X-26752858Y7661429D01*
X-26967143Y7661429D01*
X-27110000Y7590000D01*
X-27181429Y7518572D01*
X-27252858Y7375715D01*
X-27252858Y6947143D01*
X-27181429Y6804286D01*
X-27110000Y6732858D01*
X-26967143Y6661429D01*
X-26752858Y6661429D01*
X-27895715Y7661429D02*
X-27895715Y6161429D01*
X-27895715Y7590000D02*
X-28038572Y7661429D01*
X-28324286Y7661429D01*
X-28467143Y7590000D01*
X-28538572Y7518572D01*
X-28610000Y7375715D01*
X-28610000Y6947143D01*
X-28538572Y6804286D01*
X-28467143Y6732858D01*
X-28324286Y6661429D01*
X-28038572Y6661429D01*
X-27895715Y6732858D01*
X-29252858Y6661429D02*
X-29252858Y7661429D01*
X-29252858Y7518572D02*
X-29324286Y7590000D01*
X-29467143Y7661429D01*
X-29681429Y7661429D01*
X-29824286Y7590000D01*
X-29895715Y7447143D01*
X-29895715Y6661429D01*
X-29895715Y7447143D02*
X-29967143Y7590000D01*
X-30110000Y7661429D01*
X-30324286Y7661429D01*
X-30467143Y7590000D01*
X-30538572Y7447143D01*
X-30538572Y6661429D01*
X-31824286Y6732858D02*
X-31681429Y6661429D01*
X-31395715Y6661429D01*
X-31252858Y6732858D01*
X-31181429Y6875715D01*
X-31181429Y7447143D01*
X-31252858Y7590000D01*
X-31395715Y7661429D01*
X-31681429Y7661429D01*
X-31824286Y7590000D01*
X-31895715Y7447143D01*
X-31895715Y7304286D01*
X-31181429Y7161429D01*
X-32538572Y7661429D02*
X-32538572Y6661429D01*
X-32538572Y7518572D02*
X-32610000Y7590000D01*
X-32752858Y7661429D01*
X-32967143Y7661429D01*
X-33110000Y7590000D01*
X-33181429Y7447143D01*
X-33181429Y6661429D01*
X-33681429Y7661429D02*
X-34252858Y7661429D01*
X-33895715Y8161429D02*
X-33895715Y6875715D01*
X-33967143Y6732858D01*
X-34110000Y6661429D01*
X-34252858Y6661429D01*
X-36395715Y7447143D02*
X-36610000Y7375715D01*
X-36681429Y7304286D01*
X-36752858Y7161429D01*
X-36752858Y6947143D01*
X-36681429Y6804286D01*
X-36610000Y6732858D01*
X-36467143Y6661429D01*
X-35895715Y6661429D01*
X-35895715Y8161429D01*
X-36395715Y8161429D01*
X-36538572Y8090000D01*
X-36610000Y8018572D01*
X-36681429Y7875715D01*
X-36681429Y7732858D01*
X-36610000Y7590000D01*
X-36538572Y7518572D01*
X-36395715Y7447143D01*
X-35895715Y7447143D01*
X-37610000Y6661429D02*
X-37467143Y6732858D01*
X-37395715Y6804286D01*
X-37324286Y6947143D01*
X-37324286Y7375715D01*
X-37395715Y7518572D01*
X-37467143Y7590000D01*
X-37610000Y7661429D01*
X-37824286Y7661429D01*
X-37967143Y7590000D01*
X-38038572Y7518572D01*
X-38110000Y7375715D01*
X-38110000Y6947143D01*
X-38038572Y6804286D01*
X-37967143Y6732858D01*
X-37824286Y6661429D01*
X-37610000Y6661429D01*
X-39395715Y6661429D02*
X-39395715Y7447143D01*
X-39324286Y7590000D01*
X-39181429Y7661429D01*
X-38895715Y7661429D01*
X-38752858Y7590000D01*
X-39395715Y6732858D02*
X-39252858Y6661429D01*
X-38895715Y6661429D01*
X-38752858Y6732858D01*
X-38681429Y6875715D01*
X-38681429Y7018572D01*
X-38752858Y7161429D01*
X-38895715Y7232858D01*
X-39252858Y7232858D01*
X-39395715Y7304286D01*
X-40110000Y6661429D02*
X-40110000Y7661429D01*
X-40110000Y7375715D02*
X-40181429Y7518572D01*
X-40252858Y7590000D01*
X-40395715Y7661429D01*
X-40538572Y7661429D01*
X-41681429Y6661429D02*
X-41681429Y8161429D01*
X-41681429Y6732858D02*
X-41538572Y6661429D01*
X-41252858Y6661429D01*
X-41110000Y6732858D01*
X-41038572Y6804286D01*
X-40967143Y6947143D01*
X-40967143Y7375715D01*
X-41038572Y7518572D01*
X-41110000Y7590000D01*
X-41252858Y7661429D01*
X-41538572Y7661429D01*
X-41681429Y7590000D01*
X-44395715Y6661429D02*
X-43895715Y7375715D01*
X-43538572Y6661429D02*
X-43538572Y8161429D01*
X-44110000Y8161429D01*
X-44252858Y8090000D01*
X-44324286Y8018572D01*
X-44395715Y7875715D01*
X-44395715Y7661429D01*
X-44324286Y7518572D01*
X-44252858Y7447143D01*
X-44110000Y7375715D01*
X-43538572Y7375715D01*
X-45610000Y6732858D02*
X-45467143Y6661429D01*
X-45181429Y6661429D01*
X-45038572Y6732858D01*
X-44967143Y6875715D01*
X-44967143Y7447143D01*
X-45038572Y7590000D01*
X-45181429Y7661429D01*
X-45467143Y7661429D01*
X-45610000Y7590000D01*
X-45681429Y7447143D01*
X-45681429Y7304286D01*
X-44967143Y7161429D01*
X-46181429Y7661429D02*
X-46538572Y6661429D01*
X-46895715Y7661429D01*
X-47467143Y6804286D02*
X-47538572Y6732858D01*
X-47467143Y6661429D01*
X-47395715Y6732858D01*
X-47467143Y6804286D01*
X-47467143Y6661429D01*
X-50110000Y6661429D02*
X-49252858Y6661429D01*
X-49681429Y6661429D02*
X-49681429Y8161429D01*
X-49538572Y7947143D01*
X-49395715Y7804286D01*
X-49252858Y7732858D01*
D12*
X-52060000Y42640000D02*
X2940000Y42640000D01*
X-52060000Y-2360000D02*
X-52060000Y42640000D01*
X2940000Y-2360000D02*
X-52060000Y-2360000D01*
X2940000Y42640000D02*
X2940000Y-2360000D01*
M02*
