M48
;DRILL file {KiCad 5.0.2-bee76a0~70~ubuntu18.04.1} date Fr 04 Okt 2019 10:47:06 CEST
;FORMAT={-:-/ absolute / inch / decimal}
FMAT,2
INCH,TZ
T1C0.0157
T2C0.0315
T3C0.0362
T4C0.0374
T5C0.0394
T6C0.0433
T7C0.0917
%
G90
G05
T1
X-1.7465Y0.4504
X-1.6421Y0.4799
X-1.5987Y0.504
X-1.5673Y0.4051
X-1.5476Y0.3756
X-1.5425Y0.5247
X-1.5063Y0.474
X-1.461Y1.3067
X-1.4576Y0.7639
X-1.4276Y0.4661
X-1.401Y0.6984
X-1.3665Y0.9366
X-1.3429Y1.226
X-1.3291Y0.8953
X-1.3291Y0.852
X-1.3291Y0.8008
X-1.3173Y0.5449
X-1.3094Y0.4819
X-1.2661Y0.8972
X-1.2287Y1.1315
X-1.2287Y1.0941
X-1.2071Y0.7555
X-1.2031Y0.7024
X-1.1953Y0.8106
X-1.1894Y0.6276
X-1.1638Y0.663
X-1.1205Y0.8441
X-1.1067Y0.8028
X-1.1067Y0.7634
X-1.1008Y0.7142
X-1.087Y0.3618
X-1.0791Y0.6354
X-1.0614Y0.6906
X-1.0299Y0.6571
X-1.0152Y1.0035
X-1.0063Y0.6236
X-0.9571Y1.1079
X-0.9335Y0.4248
X-0.8547Y0.9091
X-0.8528Y0.6315
X-0.8449Y1.1236
X-0.8114Y1.0193
X-0.8114Y0.415
X-0.8016Y1.2161
X-0.776Y0.415
X-0.7622Y1.1807
X-0.7563Y1.0252
X-0.7091Y1.2063
X-0.6953Y0.537
X-0.6933Y0.5902
X-0.6539Y0.8441
X-0.5476Y1.2043
X-0.5142Y1.1709
X-0.5043Y1.1
X-0.4709Y1.1
X-0.4689Y1.3047
X-0.4354Y1.3264
X-0.0142Y0.3382
X-0.0122Y0.3776
X-0.0004Y1.163
X-0.0004Y1.1295
T2
X-1.5909Y0.8323
X-1.5909Y0.6402
T3
X-0.5063Y0.787
X-0.5063Y0.6886
X-0.4276Y0.787
X-0.4276Y0.6886
T4
X-1.9276Y1.0449
X-1.9276Y0.9465
X-1.9276Y0.848
X-1.9276Y0.7496
X-1.9276Y0.6512
T5
X-1.9024Y1.6
X-1.8024Y1.6
X-1.7024Y1.6
X-1.6024Y1.6
X-1.5024Y1.6
X-1.4024Y1.6
X-1.3024Y1.6
X-1.2024Y1.6
X-1.1024Y1.6
X-1.0024Y1.6
X-0.9024Y1.6
X-0.8024Y1.6
X-0.7024Y1.6
X-0.6024Y1.6
X-0.5024Y1.6
X-0.4024Y1.6
X-0.3024Y1.6
X-0.2024Y1.6
X-0.1024Y1.6
X-0.0024Y1.6
X-1.9Y0.
X-1.8Y0.
X-1.7Y0.
X-1.6Y0.
X-1.5Y0.
X-1.4Y0.
X-1.3Y0.
X-1.2Y0.
X-1.1Y0.
X-1.Y0.
X-0.9Y0.
X-0.8Y0.
X-0.7Y0.
X-0.6Y0.
X-0.5Y0.
X-0.4Y0.
X-0.3Y0.
X-0.2Y0.
X-0.1Y0.
X0.Y0.
X-1.9256Y1.4185
X-1.9256Y1.3185
T6
X-1.6244Y1.4386
X-1.6244Y1.1827
X-1.4472Y1.4386
X-1.4472Y1.1827
T7
X-0.3209Y0.9748
X-0.3209Y0.5008
T0
M30
